<mxfile host="app.diagrams.net" modified="2023-09-26T19:58:21.638Z" agent="Mozilla/5.0 (Windows NT 10.0; Win64; x64) AppleWebKit/537.36 (KHTML, like Gecko) Chrome/117.0.0.0 Safari/537.36" etag="pa8jdyv9YuGJ4eXnT297" version="21.8.2" type="device">
  <diagram name="Страница — 1" id="z-eLzPuMozAPU7ToVV5o">
    <mxGraphModel dx="1434" dy="790" grid="1" gridSize="10" guides="1" tooltips="1" connect="1" arrows="1" fold="1" page="1" pageScale="1" pageWidth="827" pageHeight="1169" math="0" shadow="0">
      <root>
        <mxCell id="0" />
        <mxCell id="1" parent="0" />
        <mxCell id="ffPJfeWBExSGsFBKZ4g--1" value="" style="rounded=1;whiteSpace=wrap;html=1;rotation=-90;fillColor=#FFFF99;" vertex="1" parent="1">
          <mxGeometry x="20" y="160" width="230" height="150" as="geometry" />
        </mxCell>
        <mxCell id="ffPJfeWBExSGsFBKZ4g--3" value="&lt;font face=&quot;Tahoma&quot; style=&quot;font-size: 15px;&quot;&gt;Переглянути стан води навколo&lt;/font&gt;" style="text;html=1;strokeColor=none;fillColor=none;align=center;verticalAlign=middle;whiteSpace=wrap;rounded=0;" vertex="1" parent="1">
          <mxGeometry x="85" y="150" width="105" height="30" as="geometry" />
        </mxCell>
        <mxCell id="ffPJfeWBExSGsFBKZ4g--4" value="&lt;font style=&quot;font-size: 15px;&quot;&gt;Переглянути&lt;/font&gt;" style="strokeWidth=1;shadow=0;dashed=0;align=center;html=1;shape=mxgraph.mockup.buttons.button;strokeColor=#666666;fontColor=#ffffff;mainText=;buttonStyle=round;fontSize=17;fontStyle=1;fillColor=#66B2FF;whiteSpace=wrap;" vertex="1" parent="1">
          <mxGeometry x="85" y="280" width="100" height="50" as="geometry" />
        </mxCell>
        <mxCell id="ffPJfeWBExSGsFBKZ4g--5" value="" style="shape=image;verticalLabelPosition=bottom;labelBackgroundColor=default;verticalAlign=top;aspect=fixed;imageAspect=0;image=data:image/png,iVBORw0KGgoAAAANSUhEUgAACAAAAAgACAQAAAAYrhu7AAAABGdBTUEAALGPC/xhBQAAACBjSFJNAAB6JgAAgIQAAPoAAACA6AAAdTAAAOpgAAA6mAAAF3CculE8AAAAB3RJTUUH5gwFAhAPJx6UogAAAAJiS0dEAACqjSMyAAEhCUlEQVQYGezBCZhdZ2Gg6e//z7239lJtKu1VJcnaLdmyLVuyLKnkRQYDNhC2JCYNhARiwEBI0p2ESTIdkpBAzzPJZJqZyTydGZJO04QmG4EhCwazhhgMeBW25SpJ1r5vtd8zJqRpFluWqs69dZfvfQOSJKl6BQKBAAQCgQDkaKOLTrrooot2mmikQIE8BQoUKFAAxhlnnHHGmWCccUYZ4QwnOMEJTnCSs0wCKSkpKZCSkpIiSZKqVECSJFWrPJ3MZS499NLDXLrooIsOIgkJCQkJkUAkEAgEAoFAAFJSUlJSUlJSiqQUmWKKKaaYosgpTnCKExzlGEc4yjGOcIoJJElSVQpIkqRqUKCTLnroppseuummhzk00kCBAg0UKFAgT45INopMMsE444wzxjjjjDHKaY5xnGMc5zjHOM5xTjKBJEmqeAFJklTJ8ixiCQvpYxkDdNBEE0000UwDCeU3xRgXGGGEEUY4xRBPsY8D7OUZJpEkSRUrIEmSKk+eefTRRz+LmE83XXTSSTuV5wwnOckJjnGAvexhiCe5QIokSaowAUmSVCki3SxgPvNYyABL6KefFiLVYYpT7GGIJ9nLXvayj9NIkqSKEZAkSbMtoZN5zGcxy7iC5SxjLtXsHE/yMI/yJAc5whFOkyJJkmZZQJIkzZZIC510Mp+ruIZr6KdALTnPbh7kGzzCMU5xkgsUkSRJsyQgSZLKL0cLrfSygS1cz1oaqF0pF3iIB/gqj3KEES4wShFJklRmAUmSVD6BHAUaGWAHt3INXQQikVpXpEiRc+zmK/wTD3KUUcYoIkmSyiYgSZLKIRAJtLGBnexkJa0UyBOoJylTjDPJWb7Op/g7DjBOkRRJklQGAUmSVA4L2Mwg17OIFlrJE6hfKaOc5SRf4++5j2EkSVIZBCRJUikFWtnK7VzDQrppJ0H/3TmOcYCH+AxfYj+SJKmkApIkqVQaWM82rmcFy+ggoOdylr08zcN8iS9xkiKSJKkkApIkKXuRhdzAtVzNOhaSQxeXcobHeYyHeZAHOYkkScpcQJIkZWsuK1nP1VzPOgro0qUc4yEe5CEe50mOI0mSMhSQJElZifSzguvZwUa60XQd4gG+zNfYzV6KSJKkTAQkSdLMBZpYxHJexJ30kaCZmmKYv+bTPMUzjJAiSZJmKCBJkmYmoYVeNvIadtFGQFlJOcun+Sjf4AjnmUKSJM1AQJIkTV+eAgPczqu4hhyRgLKUUmSSr/ExPs0w40wgSZKmKSBJkqYnocAWXsdOFlAgj0plgnH28/d8lAcYZwpJkjQNAUmSNB0N3MzruZ55NBNRqU1xgcP8Mx/mPsaQJEmXLSBJki5XC7fyGq6mn2YCKpeUCwzxTT7KP3AeSZJ0WQKSJOlydLKNl7KJ1TSi2TDK4/wzn+DznESSJF2ygCRJulTz2MJOtrCBBjSbxvgWn+cf+SrHkCRJlyQgSZIuxRw2chsvYj15VAlG+QZ/x308yGkkSdILCkiSpIsLNLCW7fwY19CMKskFvs7HuJ/HGCNFkiRdRECSJF1Mnj6u5d+wnVZUic5xP/8vX2MvE0iSpOcVkCRJzydHJ+t4I6+gDVWys3ycP+ZRTjKJJEl6TgFJkvRcAgXW8FP8BN0kBFTJUqY4xp/xJzzGOCmSJOlHJEiSpB8VmMcbeB+7mENCQJUtEGlhI4NEhjiPJEn6EQmSJOmHRV7Mr3E3SygQUHUI5OnmetZzhj2kSJKkH5AgSZK+X2Q5v8hb2cQcIqoukWb6uYZ+hjhFiiRJ+p4ESZL0P7TwOt7JXQxQQNUpTy+rWUOOp5hAkiT9qwRJkvRdjVzDPfwUW2gjoOoVaGYZK1nMKU4wiSRJelaCJEmCQD+v5M38BItIUPVLmMe1LKDAcc4iSZJIkCRJTVzDm7mHTeRQ7cixmg10cJrjTCJJUp1LkCSp3s3lZn6e19OOak8nW1jEaY5zAUmS6lqCJEn1rIE+3swvsQnVrhXcQJ69jDCFJEl1K0GSpHoVaOV6fofXMQ/Vtk42sZ4hjjOBJEl1KkGSpPoU6eHn+A020khAtS7PAIPk2M0oKZIk1aEESZLqUYFN/C6vZhE5Aqp9gYQOrmIjT3CUIpIk1Z0ESZLqTxev5NfZzBwiqh+BZvq4jjH2M4IkSXUmQZKkerOSn+UtXEWegOpLIM9i1tDGfk4gSVJdSZAkqZ4EbuRtvJalqH71sIIeTrAfSZLqSIIkSfWjhTt4Fy+lG9W3NlbRxwj7GUeSpDqRIElSfQgs5uX8EtsoIBVYySoucIRzSJJUFxIkSaoHCSt5A7/IFUj/3Xw2AYc4SYokSTUvQZKk2tfAev49P0Un0vdr43r6+TYnmEKSpBqXIElSrWviBn6fm2hE+mF5lnEdj3GESSRJqmkJkiTVtjbu4AOso4D0XHL0splD7GUcSZJqWIIkSbWsi7v5DZaRQ3o+Cd3cwAhPMYIkSTUrQZKk2rWUn+Pt9BGRLibSwZU0M8xJJEmqUQmSJNWqa3k7P8kipEsxh5V0cZCDSJJUkxIkSapNO3g7d9GLdKlaWUoPx9iLJEk1KEGSpNqTcDvv5nY6kC5HM0tZxCmeJkWSpBqTIElSrWngVt7LTTQjXa4GBljOEM8whSRJNSVBkqTa0sRNvJ+NFJCmI8d8VvMUh5hEkqQakiBJUi1pZge/ywZySNOVsJCreZIDTCBJUs1IkCSpdjSziw+whgRpJiJz2cQQe5lAkqQakSBJUq1o5sf4LZaTIM1UpJNNHOVJJpAkqSYkSJJUG1r4N/wyy0iQshDp4Cou8BgTSJJUAxIkSaoFc3gr72AZESkrgU7WEHmEMSRJqnoJkiRVv0beyltZTkDKUqCLZRR5kEkkSapyCZIkVbsCb+IeViCVQhf9jPEtppAkqaolSJJU3Zp4De9hFQGpNLpZzkkeZwpJkqpYgiRJ1ayJO3kvK4lIpRLoYjX7GGYSSZKqVoIkSdWriZt5PytIkEop0sV69rCfSSRJqlIJkiRVqwa28kFWkiCVWqSHq3mEA0whSVJVSpAkqTolbOX3WE+CVA6Rbq7kMfaRIklSFUqQJKk6beXX2EwOqVwivfTxJPuQJKkKJUiSVI2u413cTh6pnCKLaWeIA0iSVHUSJEmqPmu4h1fRhFRuCUuBJziBJElVJkGSpGrTw1u5mw6k2VCgnyke5gKSJFWVBEmSqksLP80bWYQ0W1pZzDjfYgJJkqpIgiRJ1STP67iXFUizqZM+TvIoU0iSVDUSJEmqHjlexK+yDmm2dbOUYfZQRJKkKpEgSVK1yHMt72c9CdJsC3Szgm9yhCKSJFWFBEmSqkOkj99lMw1IlSChhz6+wBlSJEmqAgmSJFWHebyNV9OMVClyLGCKhzmHJElVIEGSpGrQzov5n2gnIFWOPFeymyHGkCSp4iVIklT5cmznt1lMQKokgUbW8gjDFJEkqcIlSJJU+TbzXq4jIlWaQBcLeYxnkCSpwiVIklTpruQeXkYOqRIFFgNPcgxJkipagiRJlW0eb+D1tCFVqoR+zvIYF5AkqYIlSJJUyQr8OG9mCVIla2EeJ3iEKSRJqlgJkiRVsp3cyzVIla6XLobYgyRJFStBkqTKtYT3cisRqfItopWvcAZJkipUgiRJlaqZd3IXc5CqQaSTwFeYRJKkipQgSVJlynMH72IAqVq00ctj7KWIJEkVKEGSpEoU6eODXElEqh5z6OeznCFFkqSKkyBJUiVq59e5hSakapLQRTufZwxJkipOgiRJlaeFl3Av3QSk6tLAQp7maSaQJKnCJEiSVGkCa/hNVpIgVZtAM0v4MkeQJKnCJEiSVGn6eDt3kUOqRpEFTPIwZ5AkqaIkSJJUWdp4CT9PCwGpOgWW8wRPMY4kSRUkQZKkynId93IlAalaBVpo4zH2IUlSBUmQJKmS9PITvBGp2i3jII9yHkmSKkaCJEmV5OW8nW6k6reAfTyEJEkVI0GSpMqxnjezHakWdDPBbo4gSVKFSJAkqVLk+DleTwNSbejjNJ8nRZKkipAgSVKleAVvZClSrWigiSPsRpKkipAgSVJlWMJ7GCQi1Y5ecvwzp5EkqQIkSJJUCQJv45V0INWShHbO8mUkSaoACZIkzb7Iet7DWqRa00oLX+MoKZIkzbIESZJmXwM/zy00IdWaSBtwP5NIkjTLIpIkzbY8V/EyupBqURcv4yrySJI0yyKSJM22OfwsC5Bq1QJ+hjlIkjTLIpIkza4GruJOWpFqVSt3cjUNSJI0qyKSJM2u+dxDO1Ita+fnWIAkSbMqIknSbGphM7soINWyArvYTAuSJM2iiCRJs2kpb6UZqdY187MsRZKkWRSRJGn2dLCdzUSkWhfZzHY6kCRp1kQkSZo9q3k1jUj1oIlXsRpJkmZNRJKk2dLOjWxGqhdbuIFWJEmaJRFJkmbLtbyMRqR60ciLuApJkmZJRJKk2dHMdrYi1ZOb2EELkiTNiogkSbPjRgbJI9WTVm5jC5IkzYqIJEmzIcetbEaqNzdwC3kkSZoFEUmSZsNNbKYRqd40sYWtSJI0CyKSJM2Gu7gGqR5dw50EJEkqu4gkSeW3letpQ6pHbdzAjUiSVHYRSZLKLfAqViPVq9X8GAFJksosIklSeUVWsIUupHrVxRZWEJEkqawikiSVV46X04dUz/p4KQmSJJVVRJKkcor0cidzkepZDy+jl4gkSWUUkSSpnBrYyQpySPWswFp20oAkSWUUkSSpnNp4De1I9a6d19KGJEllFJEkqXwKrOJGGpHqXSM3spoCkiSVTUSSpPLp5DU0IwmaeTWdSJJUNhFJkspnAXdRQBIUuIsFSJJUNhFJksqllzuYR0QSROZxGz1IklQmEUmSymUBLyGHpO/KcRcLkSSpTCKSJJVHjhVcTUTSd0U2spIckiSVRUSSpPJYxBaakfQ/NLOFRUiSVBYRSZLKYxm3IukH3coyJEkqi4gkSeXQwDquRNIPWscaCkiSVAYRSZLKYQ03EZH0gxI2sxJJksogIklSOWxgK5J+1DauQpKkMohIklR67axnMZJ+1ABXMwdJkkouIklS6V3LRiQ9t41cgyRJJReRJKn0NrIBSc9tAxuRJKnkIpIklVoH65iLpOc2l9W0IklSiUUkSSq1jaxA0vO7gquQJKnEIpIkldoNLEfS81vBViRJKrGIJEml1cB6FiDp+S3iKhqQJKmkIpIkldZaBghIen6BAdYiSVJJRSRJKqXAThYj6eIWs5OAJEklFJEkqZRybGU+ki5uPlvJIUlSCUUkSSqdyHKWU0DSxRVYxjIikiSVTESSpNJJuJluJL2wLraRIElSyUQkSSqdhO10IumFdXMLCZIklUxEkqRSCTSzjhYkvbAWrqSFgCRJJRKRJKlUcmygE0mXppP15JAkqUQikiSVSgNbaUbSpWlmKw1IklQiEUmSSqXAFpqQdGma2EwBSZJKJCJJUmkEulhHA5IuTQPr6CIgSVJJRCRJKo0m1tNFQNKlCXRzJY1IklQSEUmSSqOFG8kj6dLluI4WJEkqiYgkSaXRymbySLp0eTbTiiRJJRGRJKk05rCOBEmXLsc1dCBJUklEJEkqhRbW0EJA0qULtLCGFiRJKoGIJEml0MFVRCRdnsha2pEkqQQikiSVQjvriUi6PJF1tCNJUglEJEkqhXbWEJB0eQLraEeSpBKISJJUCr0sIiDp8gT66EaSpBKISJKUvQ6WUUDS5WtkOe1IkpS5iCRJ2ethFZKmZx29SJKUuYgkSdnrZhWSpmcV3UiSlLmIJEnZ62ElkqZnJT1IkpS5iCRJ2ZvLYiRNz2LmIklS5iKSJGWtm6VImr6ldCNJUsYikiRlrZuFSJq+hXQjSVLGIpIkZW0ui5E0fYuZiyRJGYtIkpS1XpYgafqW0IskSRmLSJKUtR4WIWn6FtGDJEkZi0iSlLUuOpA0fR10IUlSxiKSJGWrlR4kzUwPrUiSlKmIJEnZWsQCJM3MAhYhSVKmIpIkZWsh85E0M/NZiCRJmYpIkpStRSxA0szMpRdJkjIVkSQpW73MRdLM9NCLJEmZikiSlK1uOpE0M3OZhyRJmYpIkpStOeSQNDN5OpAkKVMRSZKyNId2JM1cO3OQJClDEUmSsjSXNiTNXBtzkSQpQxFJkrLUQxuSZq6NHiRJylBEkqQszaUNSTPXxlwkScpQRJKkLPXQhqSZa6MHSZIyFJEkKUtzaUPSzLUxF0mSMhSRJClLc2lD0sy1MRdJkjIUkSQpSz20I2nm2ulBkqQMRSRJylI7AUkzF2hHkqQMRSRJyk4TDUjKRgNNSJKUmYgkSdlpJY+kbORpRZKkzEQkScpOC3kkZSNPC5IkZSYiSVJ22skjKRt5WpEkKTMRSZKy00kjkrKRowVJkjITkSQpO500ICkbBdqQJCkzEUmSstNCHknZaKATSZIyE5EkKSuBVvJIykYDnQQkScpIRJKk7LSQR1I2CrQiSVJmIpIkZaeVPJKykacVSZIyE5EkKTsNJEjKRkIDkiRlJiJJUnYiAUnZCEQkScpMRJKk7CQEJGUjkCBJUmYikiRlp0BEUjYiBSRJykxEkqTsFEiQlI1IDkmSMhORJCk7eSKSshEISJKUmYgkSdkpkCApG5ECkiRlJiJJUnYKRCRlI5JHkqTMRCRJyk6BBEnZSCggSVJmIpIkZScgKSuRApIkZSYiSZKkShSISJKUmYgkSZIqUcokkiRlJiJJUnamSJGUjSnGkSQpMxFJkrIzzhSSspEyhSRJmYlIkpSdSVIkSZJUgSKSJGUnJUVSNlJSJEnKTESSpOyMU0RSNoqMI0lSZiKSJGXnPBNIysYE55EkKTMRSZKyM8YUkrIxxRiSJGUmIklSdiYoIikbRSaQJCkzEUmSsnOBSSRlY5ILSJKUmYgkSdk5zwSSsjHGaSRJykxEkqTsnGYcSdkY4yQpkiRlJCJJUlZSTjKKpGyMcRpJkjITkSQpOycZQ1I2JjiLJEmZiUiSlJ0TjCIpG6OcRJKkzEQkScrOKcaQlI0xTiBJUmYikiRl5xwTSMrGGCeRJCkzEUmSsnOWESRl4wIjSJKUmYgkSdkpcg5J2RhBkqQMRSRJytJ5xpA0cyOcQZKkDEUkScrSWUaQNHMXOIUkSRmKSJKUpVOMIGnmLnAaSZIyFJEkKUunuYCkmbvAKSRJylAOSSWwjWfl0lwuF/LFHLmQI0+OJI3EEIiENBJCJEJaDMW0SDEU0yJTpKGYFkMxnaJIMUylE2E8TCQTTME/IFWB01xA0syNcAZJkjKUQ9KM3MazwmSOJM2RkCMhR0Ke5rQj7aAj7Qid6Rzm0MUcWmikQJ48BfIUyNNIYIxRRsMYo4wxwjijjDLKGGNhhLMc5zjHpk4Uj4aJwSmmmEqnmGIyTDEVp85MPZB2cxypgpzkApJmboxzSJKUoRySLtsrORWKCZEkTSZimotz6KWXXubRyzx66aWX5hBDIBAIAQKBACHwXSHwrMCzQiMNYQ4pBEh5VkghpHxHGlLSNCVlijMc5xjHOMZxjnGM4+mxpiPbzibjaTGdKk6dKSY8iDTrjnIGSTN3hqNIkpShHJIuwdt4gEJIQhpCIBygqZM+lrGUpSyjP20nISGSEEmIJEQCly4AgYsK0Mo8ihRDkSJTFCmmU/FIeIoneYonw57WA4XJHSlpSEkn00HehzQrDnIKSTN3ioNIkpShHJIuwTfJNbCIfgboZ2ljf9pNMwUaQgMNoUCgHAI5fkjoZjk7wmgYYzSeZpg9PM0e9uQOfGEEaXYc5hSSZu4Uh5AkKUM5JF3EIDSl/axmVVjDFbSHFlpoppmEypDQRBP/IqSsD+c4z3nOc4rhwUd5jMfZ+9kUqZwmOMYkOSTNxBiHmUSSpAzlkPQjdkCBxSxjGctYEnrpoYcumqlsgSaamMt3necoRznCocE9PBmeSJ4YPnc7f4hUBkc5QS+SZuIYh5EkKVM5JH2fHdDJFawMq1jBQhawkGYC1aiFFgaAIsd4Jn1mcv/CfQ/t3bG3+PT9+yIpUgkd5BC9SJqJoxxBkqRM5ZDEVgihLVnEEpZwRVjNGgZooDZEeullI3CBA+yJT+58fPvTYYghzpN+FqkEDnIESTNzjCNIkpSpHFJdG4Q83cwvLgyrWM8GVoVWalRo5gquYBdjPMXX+Vr6RDiw83A4no7dh5SpoxxF0swc4wiSJGUqh1SnXsKZ5tCRdtIXrmdL2BQ6iNSHhrCWtdzNMb6RfiV9gD2Dpzh9+uxECg8jZeAwx5A0M0c4jCRJmcoh1ZXbCEwlk800n5kT1odtYRtraSAE6k/o4VZuZSx9OnyRL7Z/ncPx3M4LFO9DmqHjHEPSzBzmOJIkZSqHVCdW8Tg74kSexrCQQXbGG8JcciRE6ltDWMlyfjKcTb+Y/u3UfRweHE8nKX4OaQaOM0ojkqbrLMeRJCljOaQ6sANCEjbF5oXcnN7B5tBGIwUi+o5IJE9DeDGD8Xj4Ip/gixwahCLP+izSNJzgMP1Imq5DnECSpIzlkOpDb3Fry4vYxLzQTjMB/bBAAw1hDvO4JTyT/hOf5IucRZqeExykH0nTdYgTSJKUsRxSDRuEQAs3pjeHa+gP85iDLi7QSivzwwpuSYfDV9LP3vrP3xy5nT9FuixH2Y+k6TvECSRJylgOqUYNQo4BdrGFlWE5HSToUiV00hlWcnW4ffKpdV/b96Xtj4Vzn0O6ZMc5iKTp288xJEnKWA6pBg3CHNazmevYRD8Jmo4cC1jAFraHF4UvpZ/d/lA49TmkS3KEYSRN314OI0lSxnJINWYQFqfruTbcxCa60EwF+unn+rAt3M8D2x4J+0nvR3oBI+xnlEYkTccoBxlHkqSM5ZBqxM08q6HYn64I28OLWUMOZaeL29jOt+Mnw/08sW1ozsQXOIV0Ecd4inVImo4nOIokSZnLIdWAQQjFRhazgZfxIuahUmhgfViXvjF8Iv7l2d1XHwjnSe9Deh7H2M06JE3HIxxBkqTM5ZCq3CAEGpjLRn46vTU0B1RCMfTyRl4X7uO/Fv+JQ9suhMn7kZ7Dcb6NpOnZzXEkScpcDqmKDUIgTxc38gYGaQo5VHohNHN7eiuP8Bfhr8LuGydCCl9E+gHH+TaSpucJjiNJUuZySFVpK88KaQjd7OJurqeFBlQ+uZBjAyvDHemH48eT48WpLUS+iPQ9IwxxhnYkXZ6UU+xnHEmSMpdDqlppZ3gFr2Y9XTSi8svRyrVhafLq8J/5WPFsSJG+30keYxMRSZcjZTenkCSpBHJIVecmiiFpj3elr+AqFtKAZk+B+aGb/nhH40f49I6zn0P6ntM8wnVIujwpj3IGSZJKIIdUZXbAnGQXL2FTuIICmn15loc+ruCW8Jc3fyU9fR/SvzjDo6RIujwpj3IGSZJKIIdURQahk03sYpCrSVDlyHMVq9IN6Wf4/3Z+PR35LBJneIgpcki6HOM8xBkkSSqBgFQldkBbujbsDHewmTyqTGf5cvqJ8IXRR8MYfBnVudX8LQNEJF2qKXbzCr6NJEklkCBVvEEGGGgKa8Id3BPu5goSVKkaWB6upy8hOZucHUiHUV1rYC2ryCHpUk3w93yKs0iSVAIJUoXbAZGFYSe/yJvDWgqo0jWzNtxEEyfSc30TA+kwqluRLm6mgKRLNcaf8ABjSJJUAglSBRtkaUxbiyvDPeGXuZoGVC1awya2hTPhRLxw51Q7e1BdmiLltTQj6VKd5QMMU0SSpBJIkCrUdpYQcswLrwz/IdxGOwFVkyT0cBsrw+Ejx8YmVqZ7UB0qMsnLmEtE0qWY5An+d84iSVJJJEgV6Sc5TWwOg+G3eFNYSIGAqk0I+bCU29J5PHP/0e2hj72o7uRYzVoakHQpzvNJPs0YkiSVRIJUkboIG+IvhJ9nPW1EVK1ytIe1YXN/29RQOLcX1Z1IOzfTgqRLcZr/xENMIklSSeSQKs420u701eHVXE0Xqn7t4bp0SXJT+C/X/PXEODyE6sg4X2UESZfmHP/EOJIklUgOqaLsgMAWfoIXhX5yqDbkwiJezEDb1ekfp0Pbpj6P6sYUBxhmETkkvZBxnuIAU0iSVCIJUsW4jVUU29LXhbeEO8MCIqoleeaHK8OCMBYODowPo7oRWMFampH0Qk7yCf6RKSRJKpEEqUIMUixMrkrvDveyiSZUewJNrAv9hPRQ49kV7Ed1IZBjB91IeiHP8H/yJCmSJJVIglQBBhmAdm7izbyD+URUqyL94VqaWk/lTw9MDKE6kHKaO+hH0gv5Fr/PBSRJKpkEadbdTMini3g5/46XkEe1ri1sDYs5mx7tu7CMIVTzLrCRlTQh6WKO8yn+ihRJkkomQZplg6SN6XreyS8wgOrFCrbQGJ8KI0unljKEalwz19KLpIvZw5/yKJIklVCCNGu2sIQlYbIhd2f6G7w8NBBQ/WgP13JlGC4eTSeXMcAQqmFnuIXlSLqYb/AfOYMkSSWUIM2S7STEkM4pvDu8O2wICQHVk0CBpelNFHi0OPrb7GYfqllnuYH15JH0fM7xaf4cSZJKKkGaJf0Qw7Lkd8KPs5gE1aMkdIb1rEu/+clTMd2HalgPa+lF0vN5nP/Kw0iSVFIJ0qwYJDSErfxmuJ1uIqpXkdYwENYmQ+HwwNQwqlkXuJbVSHo+X+L/4SSSJJVUgjQLBqGT1/KusINmVN8CDWGAFfFU8szA2BCqUSe5lhuISHou4/wt/40USZJKKkEqs5vpIbect4Q3cS05JEjCQLo0nUoPDJwdRjVqPuvoQdJzeZQ/5yEkSSqxBKmstjGVa9gY7gk/TR8B6V+FRVwRGjg8cGwY1aQRruAqJD2XT/FfOIkkSSWWIJXRzeSa2cK7wt20IP2A0MP60FHc13NkSbqIZ1CNOUE/O8gj6YeN8Gd8CkmSSi5BKpsdpHPSW/i34aVEpB/VzNrQX9iTO5ab7GcY1Zg2VtGHpB/2Vf6cPUiSVHIJUlkMMkDo4Mf5lXA90vPJh+VsDE/FI8nEAEOopoyxmBuR9MM+yt9wFkmSSi5BKrlbWMdonOhOfim8PSxHupgY5nNTOJjuGx9bzR5UQ87SxS4akPT9zvJ/8WUkSSqDBKnEBmlkLAlL4gfCq5lHQLq4GOakW4lh95xzbRxANaSJK1iBpO/3Gf4bB5AkqQwSpBIbYDKfXsX/Em6lg4D0wkJoCVfG5tFvF04PoRoySge7kPT9/g8+wyiSJJVBglRSg9CS3sL7wo20EJAuTaCFFcxjaODIEKoZIzSyi1YCkr4jZQ8fYjeSJJVFglRCO4nN6a7wK2ELeaTL08Iyunlm4MAQqhkJ/awjIuk7ivwFn+AUkiSVRYJUMjsJ7cWX8G5uJCBdvkaW0p0eHNg3jGrEKCkvJY+k7xjl9/gGk0iSVBYJUokMQkd6J/eyBWm6GlhGLwfj/r50HodR1ZtglBtZQETSJA/yIY4gSVKZJEglsQO6eGW4l+uQZqIQltI/50DDM41T/exFVS8lzw4KSBrhf+PLjCJJUpkkSJkbZCCEbl7Lu8N6pJnKhf6wNjwZD+UmBxhCVW6ck9xJBwGpvhXZz//MQVIkSSqTBCljgxDo5I3hPWE5UhYi87iOx4pHJiYG2IuqWsoEfaylAam+neNj/DWjSJJUNglSpgYhMId3cC+LkbISQxdbGYr7R8dWMIyqWpHT3MEcpPp2mN/kaYpIklQ2CVKGBnlWB2/iXuYTkLITwxxuDEP54TC+mL2oihU5yRb6ySPVrxG+yIcYQZKkMopI2ergtbybeQSkbCVhSfj33DKSR9VuhI9zBKmeHeIjjCBJUlklSJnZAXO4i18OfUSk7AW6WZo8c+Cp1el+VMVSDnILAwSk+jTFV/kAF5AkqawSpIwMEtrCS8IvhTUEpBIJC8OCOYdPPnktT6IqdoFO1tCBVJ+G+RM+hyRJZZZDysQgoSm9nXvZgFRKke2M9Yynn0HVLOXj7KQfqT49wl8hSVLZJUgZ2EFaYFd4FzchlVqkj+6p4YH9Q6iKnWY+a+hAqj/DfIRPI0lS2SVIM3YzuVw6yHvCTqRyyIU+5vL4wJEBhlDVOs5q1iHVn3/gQ5xAkqSyS5Bm5EaWMJGL1/Or4VakcsmzhPnpNzg1kA6jKnWC+WygHam+HOTP+BSSJM2CBGkGbqNAkoS1/Ha4mYhUPg30MW/qgclz/ek+VKXO08d6pPryN3yYo0iSNAsSpGkbJDAVWRLeH3bSiFReDWEgNuceTM8tYwhVpaP0sJkWpPpxnD/mU0iSNCsSpGlbwVhgbvofwi7akMqvgZVciLu50M8wqkrjzGcDUv34Cz7CESRJmhURadomCV28N+yiHWk2BDrTe9NdaRuqVo/w95xCqhdn+DseQZKkWZIgTdMg9ISfCT9NNxFpdoTQysr06cmh/qm9qAqlTLGA9Uj14S/4KIeRJGmWJEjTMgidvIJ3s5CINHtCmBcWJcPtexYxhKrQaQK30kBAqm0pp/kAX2IKSZJmSYI0DdsoNofb+IWwhoA02/roGN3bsu8AE6jqTDHKfNYTkWpbkY/xEY4iSdKsSZAu201M5Ao7eGfYilQJAgM0jz+18PAwqkLnOcvNtBKQaleRg7yPbzGFJEmzJkG6TLeQkr8mvCu8BKlS5EI/hfCtgTPDqOpMcY65XE0OqXaN8Z/5c84gSdIsSpAuUx9hQXgHP06CVDkaw4JQjA8snVjKEKoyYxxgF50EpNpUZIhfZYgikiTNogTpsgwSC+k94afoRKos7cwLQ+keigMMoapS5DwdbKAJqTad4o/5G0aRJGlWJUiXbCdLiTG9M7yFVUiVp4sBPl88WUg7OIiqyiR72MU8AlLtKfI4/45jpEiSNKsSpEt0C5E0sDL9tXAjAanyRDrThek/HhppYT+qKikjNLCedqTas58/5H4mkSRpliVIl2gZhNBVfF+4lUakylQI8yKt38iNDaEqU2QPNzFARKot43yB3+IckiTNugTpEvWTNqe/xGvoRqpcTSxjD3sHxodQlTnPJOuYi1RbHuaDfBNJkipAgnRJdkBzuIN3sYiAVLkCbWlf+vWxQwPpXlRl9rGElTQh1Y4TfJz/xASSJFWABOkSDBJzrEt/Pawlh1TZYlhMLnkkOTGEqswYx1nJCqTa8Vn+gL1IklQREqQXdB3NTC7ibdwVCkiVL4QVHOWJgfPDqMocoI21dCLVhqf4v/kEkiRViATpBa2g2BHu4j2hhYBUDQphURgaf3xZOoyqzGG62UgOqfqN8WE+zFkkSaoQCdILGCRGtoVfCUsJSNVibprGJ5JDC9iPqsoZRlnGUqTq9zn+iIeRJKliJEgXtZ2EdA1v5g6kqhKu4PzUA8noMKoyzwA7aESqbif5IH9LEUmSKkaCdFHLmezg9dwT8kjVJRd6w9l5D/QyhKpKkfO0ci0BqXoV+SM+ynEkSaogCdJFrGApF14X7g3zkKpPd2i9sDc3tJA+9qIqcoLTXEsvAak6FXmY3+NbSJJUURKki9jAhc3hLWxGqk7zaRr7XBiBvaiqnOQUuyggVafzvJfPMY4kSRUlQXpeO4lzi+8Md9KAVJ1ydCdp/FJMh1BVGecEHVxJDqn6jPInfJijSJJUYRKk59VP+kbuDvORqlcLc9On2DtQHEZVZYT9bGQeCVJ1Gefr/CZ7KCJJUoVJkJ7TDgYC1/GucDUBqXoF2kJXvC+eH2AIVZEiJznDjcxBqi4H+C0+zziSJFWcBOk5bCMNtIZ/G26hGam65ZnPM+ljjA+hqjLJ0yxgJU1I1eMEH+FDjCBJUgWKSM8hEvPhFu6gE6n6tfIWVpIMoiozwod4gAmkajHOV/mPjCBJUkVKkH7EICGGRbw/rCaHVP0iXYzxUPHsSvagKpJynJRVzEOqDg/xB3yeFEmSKlJE+iG3UoR2XhuuoQGpNuR5Q7g21zCJqs5H+UsOI1WDw/wVH0OSpIqVIP2QAZKE9fwucwlItSHQQGf6EIcGGEJVpchuFrGBiFTZJvkoH+QskiRVrATpB2wH0n5+kRvJIdWOwADDPM7IGp5EVeUcx5jPKqTK9gn+gMeRJKmCJUg/oJ9iS9gV3kMzAamWJCxm99i3m3kCVZmDjLGMhUiV6wH+kM+QIklSBUuQfsAA4Sp+JawiINWaHs7ndk8cH0JVJmU/KTfQjFSZDvK/8peMIklSRUuQvs9OQg+vCq8nQao9gfnpvqsfSHkGVZlxDpNjEwlS5Zng9/kzjiNJUoVLkL5nNT1MbA/vYDFSbWpn4tDu/KFhVHVOc5Ae1hKRKssUH+UPGUKSpIqXIH3POiYWhrvDK5FqVugOZ8KXBopDqOqc4iBX0UtEqhyTPMj7eJgikiRVvATpX93CCPm7wpuYi1S7Wkh4jH1DqOoUOcFpNtFOQKoMRZ7hd/gco0iSVAUSpH81QL6fn+EWpNrWQZH7BiYHGEJVZpyn6WIVLUiV4Rh/yh9xDkmSqkKC9C8GedabeC0dSLWtkQYeYi8MoaozwYNcQT+NSLPvNJ/8/9mD8zg/78Kw85/v8/zm0H3blixLM7JkWz45Aylg5EDCUUqgR7Kb7qbdvPaPttvtdtscu1tIyrYNr2whgZJmAwGaBpYQHBIX30aWR7Jsy4dsWZYsWxpJvxnd52hGc/2u57tyiINtfGhmfpLm9zyf95vPMogkSS0iRforXXAd/wvvQsq/WbEj3Ee9izJqORWeYi0raUO6tMZ4kF/jOBFJklpEisQ6ujjnX/AJZiPlX0eYzR72k3VRRi0mcpZdrOFqAtKlE3mQf0MvGZIktYwUiS4I3Mw/Zy1SMcxgIXczDmXUciInOUQXXUiXTg+f5ykyJElqIQnSS1L+PquRimIG7+R9dKLW1GAzf8QzSJfKk3yVR2ggSVJLSVHhrYOEbn6NNQSkomiLM1jPaB9qSQ0O0OAaFiJdfL38IX/BKJIktZgUFV4XdPIrfJzZSMWRhiVhSzjUVS+jljTOQeAGZiNdXMf4Gt/lJJIktZwUFdw6SFjBb9JNglQcgfYIjzPUh1rUWQ7SzvV0EpAujsggf8w3OYAkSS0oRQXXBbP5Bf4+M5GKJeHK8HDS15WVUYs6Qy+LWEM7AenCiwxzO7/LfiRJakkpKrR1nLOSz7GCBKlYQpjJADsZLKOWdYYdrGAFHQSkCytylnv5LcpIktSiUlRoXTCHn+NX6EAqnhAv57E5e5dwALWsIbayiqvoQLqwzvIAv0E/EUmSWlSKCuxWEljFr7OGBKmAwvxwtPpCaaiMWlbkLE9wPctpR7pwRtjIv+QgGZIktawUFdhK4kxu438N7UgFFS/judKLbZxCLStylq1cxwpKSBdGhYf415RpIElSC0tQgSUk3eHvhk6kwgprwt+qX74UtbQGvXyWDTSQLoQGD/EZemkgSVJLS1Fh/QzXc+KD/Es6kYqsjV72lFFLixynj+WsRmq2yH38NltpIElSi0tRYa3kxCp+kVuRim1JLFce7Wr0o5YWOcwB5rOGBKl5GvyAL/IYDSRJankpKqg1zCe7NfwzFiEVW4mR0u7kUB9qcRn9HGAua0iRmqPKHXyJR2ggSVIOpKigbiLO5x+ETyEVXpjLsYWbZ3EEtbjIAcosYA0lpKmrcAdf4HEikiTlQooKqptwa/gfWImk2QyPPtI+1Idy4DC7WcYK2ghIkxcZ5V7+Pc8gSVJupKiQ3s/pZOYv8Yu0IYmQhBPh6TLKheNsYwXL6SAgTU5kiPv5N+xCkqQcSVEhrWLmLfwSNyLpJfNiJdzdVe+ijHJggC10sZxOAtLERc5wH79GmYgkSTmSogK6jUj4Jf4uc5H0kiRk7GEfsYxyIHKWzSxjJTORJu40d/DrHCFDkqRcSVEBdZMsyf5JeC+SXtZJxj2NrIs+lAORUbYwi1XMRpqYY3ybz3GCDEmSciZFBdRF/HD4NEuR9LLOGOKdYYTYh3IhMsI2BuliMdL5281/4g84TkSSpNxJUQF1wT/lNjqR9DdCI+wNu0KjjHJjhF6OspTlSOfnUb7I9zmBJEm5lKKC+SBdgavCP+U6JL1SGgN3U+1DOTJGH4dZyNVIb+0Bvsx9DCBJUk6lqGC6CWn4BJ9kIZJeqT10cg+nu2IfypEK/fQxgzWkSG+sxl/wZXoYQZKk3CqhQvl52hlI6x/hCiS91qJwG/0Mo3wZpYcBxvkE8wlIPykyyJ38HttpIElSjqWoUJYxmsRu/neuRNJrBdrDfY3ht/EiypXIUZ5lFsuYTYL0ag0Oczuf5wUyJEnKtRQVShd08At8lNlIeq0SC8NdbUcrcT/KnQEepZ3LmU+K9GNV9vBtfpsjSJKUeykqkJ+hTjKH32AtJST9pITD2c44WkY5VOFRDrCSyygh/cg4T/If+AajSJJUACkqkG7SEtfEXw0LkPR6AjP4ISevoh/lUMZenuQyVtJOQEUXGeYufoPHqCFJUiEkqEAyslnxZ8MsJL2+NL4jrqymKK/q7ORX+X2OIR3iS/wqu6ghSVJBpKhAumAh/xtrKCHpdYU0lNMXkrNllFORszzLAZZxJSqyJ/gd/oTjZEiSVBgpKoxbaaThWv51mEtA0htJeZTDZZRjo+xjD+3ciIrqu/wu6zmDJEmFkqLC6CaZHz4ePkkJSW8kxEWsn/PCZfSjHKtwiD2cZQ0zCahIIif5Q77Kk4wiSVLBlFCRLOA2UiS9iTAr3nh2c3oS5ds4z3CMQ/x33EIHKooq2/gut3OYDEmSCidFBbGOSLiGf8U8ApLeRBgO28PhMsq5yBDbOEEHV9KJimCQ+/gq3+E0EUmSCihFBdFFmMWt8X8MAUlvblZ8srTzSvpR7tV5kR20cQVzSFCe1enjdr7Aw9SQJKmgUlQQXbCKXw63EJD0puJcnm88nVT6UAFETvAwNa5gHm0or0bYzlf5IoeISJJUWCkqhHWccwv/nIVIeguBcCbsCofLqCCqbGEvi1hOGwHlTcZZ7uU/cDtVJEkqtBQVQhehLa7jHwUknYc2drB9Lb2oMMo8wQhr6SBFeVLjKF/ki+wkIklSwSWoIOLycHNA0nm5mtVjRFQgGWW+xC9zL1UiyodIlfv4Ff5fDpEhSVLhlVBRLON6JJ2vFTOWjR9GRZIxyEb6eIB/xjWUUKurs5s/YD1lKkiSpHNKqCiWsRZJ56ubtRxGRVOllxNs5xf5RRajVnaK7/FdnmOQDEmS9FdSVADroMRH+XtIOl8JvTxeRoUTGecgu9nDHC6nDbWiUTbzu3yPbYwRkSRJf62EimEF1yDp/C2PayLr6EEFlLGHfnr5eT7BGtRqdnEPd7KFCpIk6VVKqBiu5loknb+E5cnlHENFVWEje9nJJ3kHy1GrOMST3MEDHEGSJP2EFOXeL3CW8GE+zVwknbcwyC72llGBDbGNpxmlg9l0EtB0FjnD03yXL/MQZ5EkSa8jRbl3BTNLtX/AR5E0MQd4pIwK7hRbeJI25jKTNgKajiKj9HI3n+MOTiBJkt5AinJvJbU1/D2uR9JEzOQkf9lFF2VUaBnH2MB2ZjOPGaRouqlyhAf5Lb7JYTIkSdIbKqEiuIblSJqYEsu5gqNEpAqbeZIP8094L7NJCWg6iDQYZgtf4wHGaSBJkt5UCRXBKpYhaaLms5ZjRCSoU+d+nuAD/DLrmElAl1pklB6+xSYGGEeSJL2lEsq9WYx0cQWSJmoe19OD9LJxjnAXT/Ju/iE/Rye6lMZ5gO/wBMcZQZIknZcSyrkPcnZeciXtSJqoeawlIL3SKPs5xk5u55N8jNnoUhjhXv4b29jHKJIk6byVUM4FwiqWIGni5sRr623Vxrt5EukVRtlJLzt4gI/xIeahi2mQDdzDU+yigiRJmpASyr/rWYKkiUu5onRFqZ8M6bUqbGM729jMrfw0l6OL4RiPsYnNbCVDkiRNWAnl3/VchqRJCLO4nkNkSK8n4ym20sNH+GluYAVt6EKp08cOHuOHPENEkiRNSgnl2IeBUjK+mgVImoyZ3MgGakhvJPIM21jNh/kA17GCBSSomTIGOMALPMz97EWSJE1BCeVYBqG6JC4LJSRNxkxuJEV6c5E97OFb/BSf4P1cyWLaUTNUOMlhNnM3jzOMJEmaohLKsQwC14V5SJqcGVxPOyPr6EF6C8M8xCaW8kk+xXXMZwYpmqwGYwywk7/kXo7QICJJkqashPItsJa5SJqclKVcxiAZ0luL1DnEH/Et3smn+VlWUKJEgiaiQZ06B/ghf8FTVKmTIUmSmqKE8i2wkplImqx21tDHONL5yahS5RGe5ku8nU/yIS4nIUFvLRJpsIf13MvzDDFKFUmS1EQllG+B1cxG0mS1cS2bGEeaiCpVhjjKFpbyPj7KB5iF3lydg/yQH7KLkwxQQZIkNV0J5dgtbA3pijADSZNVopsS0sRFRhnlCPvYQDfv5cNczyz0eg7wMJvZzhGOME5EkiRdECWUW7fyTJIsCXORNHklumhDmqyM05zmObZyP9dxM+9kLXPRyw7wNE+wk730M4QkSbqgSii3Eki4mg4kTV6JVaG9zr/js0hTcIhDPMqVrOVaruV6rmMRKcXV4CQ72M4OdvAig0iSpIughPIs5Vo6kTR5KVcw9yM8hDRlNcqUuZ9FvJ1buJ5uuriCDopliEMcpp/neYqnGEaSJF00JZRnKVfTiaSp6IhXru+lgtQcGSd4gAeYzc28h7fTzWIWM58SeRYZ4hSnOEovz7GdFxhBkiRdZCWUZyldtCNpKhK6eZwKUnMN8yiPUmIl7+Kd3MyVzGUOcyiRJw3GGOIsJ9nJ0zzNiwwhSZIukRLKqY8wRpKykg4kTUXCNcxkEOlCqLOXfXyPdlbybn6Kd3Els2ing3YCratBlXHGOc52nuApdjBGBkQkSdIlU0I5lbGE07Ozq0IJSVORsJoZSBdOBCr0sp/vk7CSW3gb72At80lJSUlpHQ0a1GlwmG1s4XF2M0qDBhkRSZJ0iZVQTtU4lbIgtCFpagLLaEe60DIyasBuytxLG3O5mlu4mbfTTScQCEBg+olAJALj7GMrz7KVPoapUqGGJEmaNkoov0pcQYqkqQksog3pYmkwxhhwikNsZSazWMxqVrOCFXSxjHamlyqH6aOPfnrp5STDjDJMnYgkSZpmSii/SiwjRdLUBJbQAevoQbqIIhUqnAZ28yxzmMUsZjGHy1nOcpaznKUsoIOLr8ppjnCQgxziIMcYYpRhRjjLCBFJkjRtlVB+lVhKgqSpCcxgAYGIdGlEhhnmRwJtzGMe85nHHOawgEUsYTGLWcJiFtJO81U5zUlOcpITnOQkA5zlLIOcYZBBakQkSVJLKKH8KrGMFElTFbicGYwiXXqRKic4wctKzGE+85nPAuYzn7nMYiYzmclMZjKTmcykkzZKpJRISUlJ+bEGDRo0qNOgTpUKI4wxwiijjDLKKKOc5QwDnOEMA5zhLHUkSVJLKqH8KrGUFElTdwUzGUWafuoMMMArtTOb2cxmNrOYzWxm00k7bZQokVKiRIkOUqBBhTp16jSoU6dGlTGGGWaYEYYZYZhhqkiSpJwoofwqsYwUSVMVuJwZSK2hymlOI0mS9BMSlEvrOKeNpaRImrrLmIEkSZLU0hKUX50sIkHS1C2gA0mSJKmlJSivSlxGCUnNsJAOJEmSpJaWoLwqMYeApKkLXMVsJEmSpJaWoLwqsZCApGaYQxuSJElSS0tQXpWYQ0BSM8ymDUmSJKmlJSivSsxBUnO00Q7rkCRJklpXgvIqZTYBSc0xA0mSJKmlJSivUmYjqVlm0Y4kSZLUwhKUVyXmEZDUHDNpR5IkSWphCcqrNhYRkNQcs2hHkiRJamEJyqs2FhCQ1Byz6ECSJElqYQnKq5TZBCQ1xzxmIEmSJLWwBOVVQjuSmmUm7UiSJEktLEF5ldCBpGbpoIQkSZLUwhKUV4F2ApKao40USZIkqYUlKK8S2pHULG2UkCRJklpYgvIqoQNJzdJOiiRJktTCEpRXgRRJzZKQIEmSJLWwBOVXgqRmSZAkSZJaWoLyKqGdgKTmaKOEJEmS1MISlEPrOCehDUnN0k6KJEmS1MISlFftSGqeNlIkSZKkFpagvGpDUvO0kSJJkiS1sATl1RiSmmeMGpIkSVILS1AO9XBOnTqSmqVKHUmSJKmFJSivGowQkdQcNRpIkiRJLSxBeZUxhqRmqdFAkiRJamEJyquMKpKaZZwakiRJUgtLUF5lVIlIao4xakiSJEktLEF5FakiqVlqNJAkSZJaWILyKqOKpGap0UCSJElqYQnKq4wqEUnNUaWOJEmS1MISlFeRCpKapUYDSZIkqYUlKK8yqkhqlhoNJEmSpBaWoLzKqBKR1Bw1GkiSJEktLEF5FakiqVlqNJAkSZJaWAnlUoRGGEFSs4zHGpIkSVILS1Be1eMgEUnNcTarRCRJkqTWlaBcCoRaGCAiqTnOzBtNkCRJklpXgvKqxkkikpqhwdlhJEmSpFaWoLyqcJSIpGY4ySiSJElSS0tQXtU4RURSMwxQgR4kSZKk1pWgvKpxmoikqYucpoIkSZLU0hKUV5FBqkhqhgEqSJIkSS0tQbnUwzk1zpAhaeoGqCBJkiS1tATlV4OjNJA0dccZQ5IkSWppCcqvOsfJkDR1JxlHkiRJamkJyq8Gp8iQNFWRASpIkiRJLS1B+dXgBA0kTd1JxpEkSZJaWoLyq85RMiRNVeQEFSRJkqSWlqD8anCSBpKmJjLGMJIkSVKLK6GcilDjQGggaWpiPEQFNiJJkiS1shLKqUCshTJVJE1NFg5SQZIkSWpxCcqtEBniBA0kTUWkj3EkSZKkFpegnOrhnDr9VJE0FRm9jCFJkiS1uATlWYNeKkiaiga7GUWSJElqcSWUZw32UkHSFMQY942PtSNJkiS1tgTlWUYfFSRNXmQwnJoRNyNJkiS1thLKswb7qSBp8uphHzUkSZKklpegPMs4wDCSJq/GbmpIkiRJLS9BeRYZ4whVJE1Wjd1UkSRJklpegnKrh3Mi/YwiabIalKkhSZIktbwE5Vukl2EkTVaNMnUkSZKklpegfIv0MoykyRqt922pDSNJkiS1ugTlW6SPUSRNTo0jpdH38hSSJElSq0tQ3vVxFkmTU2EvDSRJkqQcSFC+RQY4QAVJkzHKczSQJEmSciBBOdZDD+fs5ASSJmOEp6gjSZIk5UCC8m8Hx5A0GUM8TwNJkiQpBxKUfzs5jqSJq3GQU8QeJEmSpNaXoNwb3x+PI2nizrCTiCRJkpQLCcq9TkI/Z5A0UWd4logkSZKUCwnKuR7O2c1BJE3UANuISJIkSbmQoCJ4kQNImqB4dKh3NI4iSZIk5UEJ5V4g7G4cCEiakIGwZ261B0mSJCkfEpR7KZXB0Mc4kibiKDuQJEmSciNBubeeNijTh6SJOMYOJEmSpNxIUDH0sw9JExCPNHZnSJIkSXmRoGIosxdJ52+cA+nQJiRJkqS8SFABlBg6GHdHJJ23g2EvkiRJUo4kqBDmEvrDHiSdr91sQ5IkScqRBBXAes7Zz1NIOi+RuKf+XIYkSZKUHwkqijJbkXRewvHwYttYRJIkScqPBBXFELsZQtL5eJHeyMNIkiRJ+ZGgQujhnKM8h6Tz8Ty9SJIkSbmSoOI4ymNEJL2VLO6q9mdIkiRJeZKggshoHI+PU0fSW9nLvrbGJiRJkqQ8SVBBbGJGhT2UyZD05p4I5YAkSZKULwkqjCrhDI/SQNKb2xr7I5IkSVK+JKhIBnmcBpLeRBzIds0YPIQkSZKULwkqjBpjQ9nWOEJE0huJYWtybJx2JEmSpHxJUIHMzJIDYSMVJL2RyHoOwvNIkiRJ+ZKgwniECEPczTiSXl9kND629EQdSZIkKW8SVCAN6mPZQ/E4EUmvp8Fj4fBRNiNJkiTlTYIK5GFKWXIibGYYSa+nzj2cikiSJEn5k6CiqXIfg0j6STGejpsagxmSJElS/iSoUCKxHh+Lx5D0kyps4WCSbUKSJEnKnwQVykbIOMpWBpH0WqPhv4WRgCRJkpRHCSqYQMjCvRxB0qvFeDx7uDGWIUmSJOVRggqmTj3WNscDSHq1s+GR5HiabUKSJEnKowQVT2w/GZ7gOJJeaYC7qSJJkiTlVIIKZjObifAQ+5D0SofTjaV6CUmSJCmfElRMj7EHST92gofjUFssIUmSJOVTgopplK30I+llR7g/y8a4D0mSJCmfElRAPUTiA/EpJP3IONt5nAxJkiQptxJUSBknX+AJBpH0kn08wEgPPUiSJEl5laBCepglMTzKY0iCyDbWI0mSJOVagorraTZSRdJ+NnOkB0mSJCnPElRQPTDCU2xD0pNsQJIkScq5BBXZDu5DKrg4FJ/oeHEMSZIkKd8SVGRHeYRDSIUWHglPVEiQJEmS8i1BxbaXu4hIRbYp3ZrwGJIkSVK+JaiweqhT6c/ujmNIxfUMz9THkCRJknIvQQVWYWYtvBDWU0cqpEi8J26HDUiSJEl5l6ACe5IG4TDfoYZUSGEfD887giRJklQACSq6EZ5kOzWk4oncE14cYiOSJElS/iWo0Ho45wR/wihS0USOcg+HkSRJkgohQQXXoDYcf8BOakjFUuMHPEe1B0mSJKkIElRwD9MWw0m+xQmkIsk4Er/TOJ4hSZIkFUOCCi8lraR/znNUkYpjlO+H59LqJiRJkqRiSJBYHxsD/Cn9SEUROco3GEKSJEkqjAQV3oN8mLSR3sE2akjFcJq/oI8GkiRJUmEkSCQkdA3yXZ5HKoRYbny9MdagB0mSJKkoUiT2sY8FpH2Nm8LNpEh5dzh8q3F3tZFxCEmSJKkoUqS/sp+rahDWsBwp5+KT8fPJqRKPIkmSJBVHgvTXAklP3EgVKd/K3Llp7/F4HEmSJKlIUqS/VmZllTRczQqkPFuffLl78ClOIkmSJBVJgvQ3AuEx7mYUKb/28mDsfwhJkiSpaBKkv9EDQ2xgA1Je1VnPPUiSJEkFlCC9QkZta/zjeBQpn57mLvp7kCRJkoonQXqVtkZ4KvwpdaT8Gef7SU9AkiRJKqIE6RU2UaKnL3yPXjKkvLmT9dkwkiRJUiGlSK9yM5cRhhnlQ7Qh5ckRfmfGphg3IEmSJBVRgvQqdxAYP8P9PEgFKT8yvs6Wkca/QpIkSSqmBOk1NtIJh/hKHEDKiwZPcydHE/42kiRJUjElSK8jq/A4P2AIKR/G+Tq7iT1IkiRJRZUg/YQeUsJI8kfsJkNqfeM8yL1xEEmSJKnAUqTXUaYr4xjzuIG5SK0tcoD/m52h3oMkSZJUXAnSG8n4Fk9QRWptg9zJRsZ7kCRJkoosRXpdZcp0DRO4liuQWleDbeEz4XiIZSRJkqQiS5DeUIPaHfEeTiO1rv18O+4lQ5IkSSq4FOkNraCzHstxGbcEpJY0xB0j/0+jWmMzkiRJUrGlSG+on5VkA0k1rGAlUiu6j9/uOrKeI2RIkiRJxZYivYkyV1HtT0vh3cxGajWP85/ZfJZ9ZEiSJElFlyK9qX6ubnCMDt4bEqRWcphv8mdUe5AkSZIEKdJbWMbaoVMDYSnXEpBaReRb8Rsc34gkSZKkl6RIb+EgcwkDDPEe5hGQWsMGfr9j+xCHkSRJkvSSFOktlemqc5oS76KdgDT9HeQ/sqFRfxRJkiRJP5IinYelrBgdLLMmrKKENN2N8lW+z+keJEmSJL0sRToPB1lEGA374q1hEQnSdFbn4ey35+7fxRCSJEmSXpYinZcuyDgdGryNuUjTV0Yfvxp21Bo1TiBJkiTpZSnSeSmzmEojPl9aSzedSNPVSf4j9zECTyJJkiTpx1Kk83SY1aS1uD2sDd2kSNPRGb7L7zMAPUiSJEl6pRTpvF1OnbEzHf2sCV1I088YD8Xfikdi3IgkSZKkV0uRztthDrOaxtFklO6wDGl6iXEL/5YdIW5CkiRJ0mulSBPST3cW+5OUa1mANI3EZ/nC0A+JDQ4iSZIk6bVSpAnqo7vCodDJTXQiTRe9fDX7bkftEQ4iSZIk6SelSBPWR/cQx1nADaRI08Ep/mv4L8mZjUiSJEl6fSnSJFzH2ePtR1hNFwHpUhvne3yd/T1IkiRJeiMp0iT0sgZOcIh3s4iAdCk14kN8iac3IkmSJOmNpUiT0kVohBMcj+8PswhIl0rGC8m/XbCpwT4kSZIkvbEUaVLKdFOvJocDvJ0ZSJdG5CT/R3hwtJqwD0mSJElvLEWapDKrCOO8GK8Kq+hAugTiKJ8Ld9bOlNiAJEmSpDeTIk1amZUwynNhBSvpQLrI4hBf4NscT+hBkiRJ0ptLkaagj+4YBtjNVaykDeliOs3X+RqHiRuRJEmS9FZSpCkpU6brGAfistBFCeliOcXt4SuhL2QbkSRJkvTWUqQpK3PNwcaxsIxuEqSLYYA7+TIvEnuQJEmSdD5KSE2QcvKhJR10sI4E6UI7y/38Z3b0IEmSJOl8pUhN0MtqDu6de5Krw5UEpAtpjAf4Co/1IEmSJOn8pUhNcZAbqZXTI9wULiMgXShVHoq/x8aNSJIkSZqIFKlJVtCZJQc4GN8X5hCQLoQGj/L55KF29iJJkiRpIlKkJumni0Y9HAmHeB8zCUjN1ojP89l0Q4wNykiSJEmaiBSpacp0Q4WDHOOnmYXUXA32hd9IeqhBD5IkSZImJkVqojJdME6ZQ9zCfKTmqcfnw6+Hh0ZHZ7MeSZIkSROVIjVVmW7CeNjPEa5jMVJzVOPW8BkeYqyN9UiSJEmauBSpycp0wTj74omwiiuQpm6ETfwOD1LdSBlJkiRJk5EiNV2ZMldWG3uSobCSpUhTc5b1/G54MDQ2IkmSJGmyUqQL4gAr643dYYCrwjIC0mSd4b74FTZupIwkSZKkyUuRLpB+uuvxRY7TFa4gQZqM09zJV8KjG5EkSZI0NSnSBdPHVY1Kb6mPa8LlpEgTFE/zp+FLbOtBkiRJ0lSlSBfQCtKs1pfuZG1YTBsB6XxFBsN/Cl9hL5SRJEmSNFUp0gV0gKtIs9qR5JGwLKygA+n8ZAzx7/ljDkEPkiRJkqYuRbqgDtDOmmxwINkSQriOmUhvLeMEvxn/LDkGPUiSJElqhhTpAhtgF1fHMMwOTnBtWID05urs4v+Md8VTxI1IkiRJao4U6SLoY2VkJPaG/nAVVyK9sTEejr8ZNoShEDciSZIkqVlSpIuijz5WjSX7Yj8LwkpSpNdzmh+EL4SNodpDGUmSJEnNkyJdNGWW1s7u7ewLM1hBJ9Jr9fGnfJUneigjSZIkqblSpIvoILfGU/3te2hjKfOQXmk33+QbvNCDJEmSpOZLkS6q5znEyuM8RyMsYyEB6SW1uIMvhT/haA+SJEmSLoQU6aLro3soPMPBuDIspERAxRYZ44nwufADhnuQJEmSdGGkSJdAF2mVPWELq7iMDgIqrshZHsx+ffCxkdpMykiSJEm6MFKkS6BMF2mjcaqxIZnHSmYRUDFFTvOd5DNp76PZf+URJEmSJF0oKdIlUWYulSwOp1uSo3RxOSqijBfiZ8I349GY/U8cQpIkSdKFkyJdIkc5ymFWjdEbd4UFrCagYjnDHeGzcRNniBuRJEmSdGGlSJdUmasq8VDYwVC4inmoOJ6LX+Fr7dvTSsoGJEmSJF1oKdIl1s/s+tqjZ3ZxJMxhJQHl33D8AV/hTg5siPvYhyRJkqQLL0W65E6wna6z9NIX6lxFJwHlV2RP/Fb8g8ZmhjchSZIk6WJJkaaFPlZUsjLbqIW5LKKE8mk8PhK+Eb4Z9j6c9SNJkiTp4kmRpol++mP3mfAoJ5jLYjoJKF8aHOb+5PPJPQz2IEmSJOniSpGmkTIrGnFXfJzOsITZpCg/RnmeP+Fz9MZ6D5IkSZIuthRpWlnJOWeSh+LRcBmLSUlQ66txIt4XfpPbGeWcMpIkSZIutoA07awjEEvZleEX+J9DNyUCal0ZdR6Pf1i7q32UOvQgSZIk6VIISNPS+wlJY2bphuQf8Q+ZQ0CtKcb9fCP+OQc+NfYl+pEkSZJ0qQSkaeuD0MYV4b38C36KdtRqIkPx/4t/Hp9tnEmyzUiSJEm6lALSNLaOc2ZwMx+J/zisJEEtI46Hnvjt+Fg8GKqbkCRJknSpBaRpbh0kXJa9L/kUP8dlqBXUYi9/Fn7IVio9SJIkSZoOAlJLWAc3cxu38VMsRdPb0fhgvDP7IQPEzUiSJEmaHgJSi3gPj3PrzeGT4UPcxCI0PR2N23mQu3h+I5IkSZKmkxSpRRwClh+rbUm2E0MHs2gnoOnkdHyO2+PvLfzL4ye2IEmSJGl6CUgt5jbo5F3xV3gfy5lBQJdeZCQeDg/E/zK2vVR/FEmSJEnTT4rUYrqhzgHuZyfzmEs7KQFdOpEqx3gg/F98u9GfZSkHkCRJkjT9BKQWtI5z2iod7R8I/5h1LCQloIsvknGah/kaWxihDj1IkiRJmp4CUsv6IHSEufHt4b/nEywioIttOG7iG3FzMkgFepAkSZI0fQWklvZB6AyLuYFP8WkuI6CLJNbDxvjtbFNyjJGNSJIkSZruAlLL+yB0sCzcxMfjp8ISEnRhZfFoWB838GzYz2APkiRJklpBQMqFD0KJVbwz/DTrWEMnuiBiJbzAxrglPMt+xnqQJEmS1CoCUm6sg8AK3sl7eA83sgg11xm2xSd4PDzBERo9SJIkSWolASln1sE83sHP8G6uZSUBTV3kYHyep9iQPM4IPIQkSZKkVhOQcuhDJKX61fFj8UNhDVcxg4AmJzLOobibnnD3nl1XxS1IkiRJak0BKadu4jn+1rz2j8VPh+tZwnw60EREKgxwOr4Q7sjuX3BiG31IkiRJal0BKafeyQBLaUtiGlbzs/Hj3BDm0Ukbems1xjjDjnh3vDccDrUsvjNuYiuSJEmSWldAyrV1nJOGUqUjvTb5CB8LN9NOiQS9vgb1OMaOcBfreTHWYo0MNiFJkiSp1QWkQrgV2pgR5oXVfJyPcg1tQEA/FoEaz/AA62NvGGaMWg+SJEmS8iIgFcY6zmljEYu5Or6P93NjmIN+pEpvXB/Ws5cTDFLtQZIkSVK+BKSCWcc57fFyLufKcFN8D29jeaDAjvMsW3mOvniQw7VaOz1IkiRJyp+AVFA/z9/h24tjN11cHW7kJtbSRpFU2c2OuJPe0Bf7O4/GBjyAJEmSpLwKSAW3DjpZHa8Nq7mabq5mKZ3kV51xhuiNvewNe+KL2T6GH0aSJElS/gUknfNBCFwWruEmrqOLZSzjchLyY4STHOc4hznOQNze2MFxGpuRJEmSVBQBSa/wdo6HVcuSd/C2cDNXMp95zKeThNZUZ5AznOE0ZV4Iu+LzY4fS+qNIkiRJKp6ApNdxG5Tozm4IN3ADV7OQGcxkJh20gioVxhllmMPs5Lnw3Njz/aML4w4kSZIkFVdA0uu4jXNCFkKAxqx0Vbg53hRvYnWYQxslSpQoEZguMhrUqFOjTj3uo5c97GB7OAjEECtxiA62IkmSJKm4ApLe1AeIoZSENJZiwox4HVcnq1gVV4WVzCeQEEhICAQupkgkI5KRETkd94VeeuOeZH/sixUyGjRokG1EkiRJkl4SkHSe3g8htIW2pI222EZHWMKq2B26YxdLuTzMo8RLAj8SaJbIj0VeUo9nwsl4NOyPe+O+8GI4FeuhRi1Wkxp1eAhJkiRJerWApEm5jZBmndmMpDN20kEbM8JClrCExSxmCYtZyLw4P3QQmIoqp+MpBjgdTnOa0+F0NsCJcCY2Qi1Ww3g2FsfiOI3NSJIkSdKbCUhqip+BEp2xM3Yyg0466aA9tocO5jCXuXEuc8McZtAR20KJNkqxLZRooxSTMM4oY3GEMcbCGKOMxrEwymgcYyyMMR7HqTIeKlRCJVTq4yPVJHsSSZIkSZqIgKQL6GchbXQ0OmMnM5JO2mKJNKSkJDElDSlJDKFGNdaoUqVGNVSpZtWkFqqxRtaDJEmSJEmSJEmSJEmSJEmSJEmSJEmSJEmSJEmSJEmSJEmSJEmSJEmSJEmSJEmSJEmSJEmSJEmSJEmSJEmSJEmSJEmSJEmSJEmSJEmSJEmSJEmSJEmSJEmSJEmSJEmSJEmSJEmSJEmSJEmSJEmSJEmSJEmSJEmSJEmSJEmSJEmSJEmSJEmSJEmSJEmSJEmSJEmSJEmSJEmSJEmSJEmSJEmSJEmSJEmSJEmSJEmSJEmSJEmSJEmSJEmSJEmSJEmSJEmSJEmSJEmSJEmSJEmSJEmSJEmSJEmSJEmSJEmSJEmSJEmSJEmSJEmSJEmSJEmSJEmSJEmSJEmSJEmSJEmSJEmSJEmSJEmSJEmSJEmSJEmSJEmSJEmSJEmSJEmSJEmSJEmSJEmSJEmSJEmSJEmSJEmSJEmSJEmSJEmSJEmSJEmSJEmSJEmSJEmSJEmSJEmSJEmSJEmSJEmSJEmSJEmSJEmSJEmSJEmSJEmSJEmSJEmSJEmSJEmSJEmSJEmSJEmSJEmSJEmSJEmSJEmSJEmSJEmSJEmSJEmSJEmSJEmSJEmSJEmSJEmSJEmSJEmSJEmSJEmSJEmSJEmSJEmSJEmSJEmSJEmSJEmSJEmSJEmSJEmSJEmSJEmSJEmSJEmSJEmSJEmSJEmSJEmSJEmSJEmSJEmSJEmSJEmSJEmSJEmSJEnS/88enIB5fd+HnX9/vv9jDoYZYBiG+xAIkIQAichCyIJBt21ZtnxLju/bsR13kyZt090+OZ5uk3TTp7GzzTbp7mbTTdZJs3Eut5u4Noqv2I7jO+aShNAJSCDuOf7/33fBjqITBDO/ud+vlyRJkiRJkiRJkiRJkiRJkiRJkiRJkiRJkiRJkiRJkiRJkiRJkiRJkiRJkiRJkiRJkiRJkiRJkiRJkiRJkiRJkiRJkiRJkiRJkiRJkiRJkiRJkiRJkiRJkiRJkiRJkiRJkiRJkiRJkiRJkiRJkiRJkiRJkiRJkiRJkiRJkiRJkiRJkiRJkiRJkiRJkiRJkiRJkiRJkiRJkiRJkiRJkiRJkiRJkiRJkiRJkiRJkiRJkiRJkiRJkiRJkiRJkiRJkiRJkiRJkiRJkiRJkiRJkiRJkiRJkiRJkiRJkiRJkiRJkiRJkiRJkiRJkiRJkiRJkiRJkiRJkiRJkiRJkiRJkiRJkiRJkiRJkiRJkiRJkiRJkiRJkiRJkiRJkiRJkiRJkiRJkiRJkiRJkiRJkiRJkiRJkiRJkiRJkiRJkiRJkiRJkiRJkiRJkiRJkiRJkiRJkiRJkiRJkiRJkiRJkiRJkiRJkiRJkiRJkiRJkiRJkjR5BRont3JWkwLIFAQEZwSZ4KxMkIHghTIQZH4kMgRnDdEg+AqSJEmSNFyP0sJhGgRnRACZswLIBGdlgmdknhZAJsgEkIkMAQSJxFkr0PioonHSCkTlRAdddOZOOumkk066mEkbNWpUqVGjSo0arSQyz8gc5ghP8RSDDHCUoxzjKEc5lo8Onqw0kSRJkqRh6yVxpIOFzKeXTlqpUadOnTp16tSpU6dOnRpttAAF/QzRYIghGgzRYIh+TnCUoxznGMc4xjGOVY8ziMZNoDFzA8xkbpoXPXkePTEv98RMWqlTp06dOnXq1KlToUIiEVQIEsELNRlggAEKmgwwyCADDDLIIAP5OEfiMIc5wuF8hMP5cH6KoS8gSZIkSS/mfqJSzCzm5XnFvJhHLz1000U77bRTp0KFRIVEhQqJCokKiQqJ4GmZTEFBQUFBQZNBBhlkkEEGGWSQQQYZyAc4yKF4gkMcioPVI7mxEo2NQKNkO1FtzmROdDMnd8cc5uTZMYtOZtLJTDrppINgNBT0c4KTnOQEJznJiXySI/FYfoRH4pGBRweHEl9HkiRJ0nS1CxKz6WYO3bmbbuYwO7ropJNOOumkkxaC0ZDp5zjHOM5xjnGcY/kpDnOYwzzJ4XyYIw+euo1AoyFQqW4hKGqDc6Mnz4ulrGRxzGY2s5nNbFoJxssQh3mMx3iMRznAwXyAgxyMp2juQJIkSdLUdz8zONIZc/NcuqOHBSxkDrOZw+w8h65oYZzkZhzlCE9xhCP5EPvivvxYOpSe4Ch5FSpToFLcAC3RHd3RzVwW5MUsYTFL6I02JppMP4+wn/3s5yEezU/wRDzJMfIOJEmSJE01uyExt+hhHotZEotZyEIW5t6oMvHk/BQPxcM8xMP5kTjIwXyIA5xei8oQaNhugKClMpNOOunKi1kTq1nNKmYQTA5DHMg72RW7Ym9+Mh/lGMfSqZx3IEmSJGkyO0hX7G8rZjErz0rz82X5Ci5nVcxg0sg5HuYHfJ/v8QCHOZqPdh6rNmEeGq5AF62PiKJOBzNyV1wSa7mCy/MquoJJbIh9+e/5fnyPvRzKp+JU41RRBF9CkiRJ0mSxmyBXac/ttMUcLs0b2ZCviMUEk9lRdvIdvp2+VzzOyXwqnaoNFsVKdLECXaB1QEFvrahHnU7W5OvjWq6mi0QQJCa7TKYAjvKD/Lfxt8W308E8EIMx2N4c4i+RJEmSNFHtIVKu5lqu0xpL2ZCv5mpWMRNIBMFkV5DJNHiYb+dvpm+ys3gyDcXgsUYF2IguTKCX9OPcRz1FJVeG2urr8ua4jvXMo0KNKsFUk2kyRCMPxH357+Lr8XX2F/3RHGoGX0SSJEnSRHKQCocrzUhzWcfV+WrWM58aVapUCKaaggYNGjycvxF/k77e2JUGcpGaqchcil5KoPO4noJOfo33tdcui5fla9kY3bTTRguJqW+IfvpzP/fzhfirxjcqp8hVWmjwl0iSJEkaT3sJCpqkmN3y1IZia+5jXXTQSgsVpr4m/ZzmVD4Qf5e/nr4We2r9/QSwBp1boPPYQqPetobtvDwup4suZpCYfgY5ypN5P1/h3tpXt5z6Fn+KJEmSpPF0Hyk1ZjWvjeu4hiXMYTatTD8FxznK0fx97uVzlfuK5hp0boFexGYgt7ZcmTbnq7k0FtFLG9Ndgyd4mH357/gK3+TovUiSJEkaDzthFldxfVzDEhbSTZXp7hSP5YfZGX/DV9i1Br24QM+xgd1s7KhvjA35Ci6NlSykBT0j8yj3sZtv8TV+wIkdSJIkSRoru2AOl+dNXBmrWcV8Aj3jJPvZxd/nv+Ob7KexFj1XoH/UB7W8iKvZFFezjvlU0bk8wt/xrfzt+B57KHYgSZIkafRkgv2V02vzlbGRjWxgPjqXAb7Pt/kW30nf+cbh7fSipwX6oW0wN1ZwGS9jK1eiCzGY98UX+Aq7uI9DNHYgSZIkqWx7oZp7ilWxNr88b43FVNFLyZzk69ybvxW7Kw9xYhU6K5jm+iBozfNjCddyG5uYhS5KHoqv8d/5m/xAPN5yrFl8FkmSJEll2MUA9Q4WxMq4Lt/CNVTRRciwP+6Nz/Pd/GjlYGpkVjK9BdPYdkjMyD1syHfE7Swg0HA9xZf5c76SH4pjDO1AkiRJ0kjsIerNTubnTfFqtjMHDdcge/nz+G/F7nw495MvZ/oKpqmt5Epqid7Ynn+ca2khEWj4Mpkme/OfxJ/mXZyu9X82v54/QpIkSdLF2MkZiVba0uX5VdzFKjKJQMOXKTiZP81/4ZvpcAzQvJTpKZh2NnGIS9KJStsl6a54A2tooYbK0WSII/nr/GH6K54qhlKR2YEkSZKkC/EDiEjU6OEVvD420EWNCipDZpABvh+fTn9Wve90s71ZsILpJphGbgUyDQ6knk3xZm5hCTOponJlBjiaH+a/8odpZx6sUfDfkSRJknQ+O4GCmBmbuIsbo5dO6gQq1xAneCx/Mf6w9UunT7eRgCVMH8E08moSA/X+Pt7ANSxlFgmNloIneZR74/9p+Xqj8VkkSZIknc9Oclu6nru5nnnMRqMnc5xH+A5/1PGZ2qmce5k+gmniNXyfpZ3NW+MVbGA1M9FYeJK9fJk/jy/T/3kkSZIkvZid5M60jVfxMi6hC42Ffvbm78b/l/5b7VCzWMn0EEwDi9nOg73pRrZxDeuoo7H0FN/LX43Pxb2cIn8eSZIkSU/bCcGsuIk+rmUNM9FYarArfyu+wGeLfdFcy9QXTHGv5C+4cUW+luvZxpVofJzim/nz8WW+UnuqweeRJEmS9Pecpr0rtrA9buYyWtH4uC9/gb+Mv+aRNUx1wZTVxxkVVrKePm5jFRpXuRF/m/+Me/kux+5FkiRJmt52QRfruSHfwTVRReNrJ38S/634Hk+sZSoLpqg+SCxhPXdyB/PRhJAzO/j9/IXYz6l7kSRJkqanXTCTZWzlbl6OJoYG3+E/x2e5n1Pk1UxNwRS0DSq5k1Xp7dxNN5pYTvGX+Xf4m8rhPPh5JEmSpOllJ8zIc9NW3s5W6mgiOc1X+U2+Wnm8PtDMK5h6gimmD4I6i/Pr+GAsoYYmnswTfIb/yPc4SRN2IEmSJE19uzmjQmdxE++PzXQQaKIpOMln47f5RvNwNMhrmVqCKeR6hmhNaTa38RHW00ZCE1NmKD8af8R/zPsbA9/Ml/ENJEmSpKnrURZwXzRbWZk/Hq+khwqBJqLMUD7BX/Hb8TVOFEWwlqkjmEI2Ua22bo/30scs6mhiKzieH+T/bv7nhx7rzN3sQJIkSZqadtLLrLhvYeOdcQ9LaSehie0Uh/k8/0fxhf5GnbOuYCoIpoytcFV6O7ewjA40ORQ8nr/Lf4q/4qkdSJIkSVPTTpgbr+RtrGMeCU0Ox3mQe/m9r315KbCNqSCYAm6CyF3Nu+O1XMNsNLkMsZe/zp869aXa4JeRJEmSppa9pPrQFt7CjVxCBU0uR/kmf1r73XiSvILJL5j0+qCVzbye21lGDU1Gx/kW/5XP8O0dSJIkSVPHLriSO3gFG+hEk1GDh/lL/ogvcHoNk10wqd1ArlSW8Mp4DX3U0WR2gB3FX8S9PExxL5IkSdLkthOCntjOndxEL5rMBvkSf5r/PO+Lxloms2AS2waz2cSd8SbmEWiyy/mh+BR/3PxG5+Au9iJJkiRNTgfpYV/b4FXcwo9zCQlNdjkfjv+S/1++zpG1TF7BJLWN3JIWc3t+G9cGmjL6+UL+Tb6YnsjFDiRJkqTJZw9Rzb15a34fW2hBU8dX+T8rnykeiealTE7BpLQNOrmaD8QddKCpJeeD8Wt8utgXg/ciSZIkTS67oCXW8Kb8IWYTaGo5wh/Eb7GTk6uZjIJJZitnVPOsdHd8kMsINPVkGvxJ/o381db+Rv4ckiRJ0uSwh0i5rejjn9BHItDUU/CN+PX4s3wiN2ENk0swqdzBU1RaWMvPxXbmkNBUNcQD/Gb63YEnK/mvkSRJkia6zBfpSZWFxTt5D4upoqmq4HH+gl9mP0OwhskkmDRu5HPcyZGuypv5MJfSRqCprMkRPlN8Iv9thbN2IEmSJE1M9wMVvsulN+efiO3MJKGprOBE/l78Mp/l1GoOMY/JIpg0bqKShtblj3Ezi6mg6eAE3+L3+G2GYAeSJEnSxLQPIncMvC/ewjra0HTQ4L78B9Xf+uxD76KFySKYJPpgLq/gnWyik0DTxRAP8On4D/EQzc8hSZIkTTx7iGpeW3yIV7CEKpouMo/zpfS/Vb9Y9K9kcggmhT64gjfzOq5A003mSP4M/xdf4tS9SJIkSRPLTpjJbXEPNzMTTTdDfI3fjz9j/2omg2DC28Lp6NwS7+ZV9KJpKQ/FF/Knik+3HHyQPUiSJEkTw/20x7Gl+Q28mauooulpb/wpn5r9tce5kokumND6OKMjb4ufoI82NH1lHsr/O3+Y9uShHUiSJEnjbyd5RqznLdwT3QSavk7w2fwfql/mBKxiIgsmsD5IzMu38NNxJYGmudwff8Dv5G9w9F4kSZKk8bULuujLH+T2QNNeM38n/h1/xUGKNUxcwYTVBxWWcHf+yehF+pG/5Tcqf5KPfA5JkiRpvDxIL/tn59fxYa5G+qF8IP49v89DubmGYGIKJqQbqNJfq61JP8tr6UB6xgP89sD/2nY0ZfgskiRJ0tjayRmV6OFjvI3FSM84wafjV6u76gNDrGAiCiagG6jSaE3Xx89zNa0E0jMyB/MfV34+HyqawQ4kSZKksbOboKjllfx83MIsAukZmX6+H/+quiOdGuJSJp5gwtlOg2JG9bXxc6ykjvR8mafYwb9gD03YgSRJkjQ2dhHQwtb8P3I17QTS8w1xX/xS+nQ+CZcy0VSYcFaQetO74p+ymirSCwVtLM0b4gEO0NiHJEmSNDY+Ch28hl/gKloJpBeq0M0Gcrqfk59goqkwwWylWBEf4gOsIJDOpR5LuIxjPLy8fx+SJEnS6NsJc3lz/BRXUEU6l2AOl+eZ+eGPPvFJJpYKE8o2YlN8OO5mMdL5JRazkoKHlp/YhyRJkjS6dhGL4+3xAa4gIZ1fF6vo5omPPvxJJpIqE8ZWSHlbvDduZw7SSwuuYgYz8+/17duBJEmSNHp2wXLezrtYjnQhenkjXdR2fZFiDRNFhQmhj8Wk1rg1fiZuoRPpQnWzNio8sPypfUiSJEmjYydcGu/nXSxFulCtLM+L4wAPfbT4JBNDMAHcwN+wZWbcxC9wGVWki3OQ3+c3Htw7K38TSZIkqVz3U4/Tq4qPczezkS7OIN9I/1PlS8dPr6SD8ReMuz5mcWQWt8Yvs5SEdPGO5z/J/5rdNOGvkSRJksqxlzOqxaXFz8WdzES6eA2+F/88feHkyU5WMN4qjLOtPEGazZ38SiwmIQ1HS1waq/kmR2ku40EkSZKkkdtDkOv5ivyr8QpmIA1Hoodr8v31h/9i6Df494yvCuPqBmq0zo57+MWYT0IarhqL2ch3eaKluYj9SJIkSSOzhypFS96Qf4PraEUarsTsfC0HLruvPvR+Psl4qjCOtpFpzk3vj5+JXhLSSNRiPpv43tCBaC5jP5IkSdLw7SRRtOWt+d+xgRakkUgxK29snhrcxeDH+ATjJzGu0oLqT8bHmE8gjVRrXBW/kq7LLUiSJEkj1Oxsvjb/KhtoQRqpFJfET8cHK7MYVxXGTR+xLH6Sd7AAqRyVWMgl8WDx8LLmfiRJkqTh2QkdvIJ/GeuoIJUhmM2lRTV992P9n2C8BONiK0ReUvk499CLVKacP5d/tfH5NPhFJEmSpIu3k9yRXsn/wLVIpcr7+O3ab3GIvJLxUGEc3AAp5qePxDvoRSpXxCXMSwea+5c19yNJkiRdnF2k1ngl/4TNSCWLWazJpJ1x+mP51xl7FcbcjVQjenhPfIQepFEQK5mXHi8eWtbcjyRJknThdhGtxa3xcV6ONAqiM6/LJ4s9+dRH+CRjrcIYu4HTVOby5vg55iCNkljJgnio8ujyxj4kSZKkC7OXSr24iZ+NG5BGSbTnjRyO+ztPf4hfZ2wFY2ordQbnxGv5lZhDII2enL8cP9/4fG7Al5AkSZLOby9n1Ivrin8dW5BGU86H42fjjwcOt7CasVRhDN1AlUZn3MG/iR4CaTRFLGJl/jpPNoulPIQkSZJ0brvJ5FreWPxqXEtCGk0RbflaHqzuqwx8mE8ydhJj5joqDLXGHfxSzCOQRluFTenfxiW1aoObkCRJks5lJwlqeW3xv8QmKkijLWIev5DvGGoLfsDYSYyRTcCBlF7Hv4ylJKSx0BbXVf5tdemsBNcjSZIkvZgfAEOVvJJfix+jBWksJJbyc3HXYAUeYqwkxsg36KD3rvTxWEsgjZUZbC9+qX95G00kSZKkF5P5A2IV/zNbaEMaK4m1+eO1u44wg7FSYYz0UWzno7ychDR2glosi1mDf189sg9JkiTp+XaSWLc2fo47aCeQxk5Eb/S0HTy595OMjcSY6IONvJ8bqCCNraCTN+X35mXbkCRJkl4oX5Lfy13MIJDGVpUt8QE272RsVBl1fRAs40Pcygyk8TAr3pGP8jvbHr8XSZIk6Rm7oIfXcQ8dSOOhje1xLJ7YfR95NaOtwijrg6AnfyjuoQdpvMyMJfFk7Fw+tA9JkiTpR3aS2+P1fIhLkMZLKwtJ8R1OfzR/gtGVGFV9BHTmN/M+epHG0xrenm8cqmxFkiRJOms3tUrazju5Amk89eR35jflzoJdjK7EKNpOJs9gG/8sepDG28v5UGXDCa5HkiRJuo8Omuv5MDcgjbPo4Z/RV2kfJDOaEqMoQ51N/JvoJZDGXdwU/7Rj4VBczuVIkiRp+spkOuLEwvwz3IQ0/oJ5/CKXd1XuZzQlRs1G5lJcnn+RVVSQJoKWuCX981r7rJiFJEmSpq+DHIxme/EvuIUWpImgyurmz55aNcguRk+FUbKdVk6tSh+JV1NHmijamV8pKt+oNJezD0mSJE1HuzlNf8vAT8TbWIA0UVRieTRiN0c/xicYHYlRk+ZwJ/fQgjSRLOLdvIJWJEmSNG2l1vSKeDeLkCaSdt7FXambUZMYFX3kevEq3k8X0sRSYWX+adak6nYkSZI0/eykqBXrip9mJRWkiWUuHyhuO1H5e0ZHYlQE3Mj7WYM08dTjx/jJYkHBjUiSJGl6uZ81pOXxU3ENdaSJZy3vnrGtwuhIjIKtNNfzLq5DmpjqvDHfzbwmkiRJml6G2LM4v5e7qCNNTC/nx+PS3YyGROn6SL3p3dxMBWliCmbEB7g5d2xFkiRJ08cumJtfz3tpQZqoWri9eEees4vyJUp1IzeS2riHO5mDNHEFl8QH0uZK9CFJkqTpYTf1Ctv5MHOQJrIF8UZeX6nvZS/lSpToNXyKqBQvz+9mBdIEl7fmt+S1DW5BkiRJU99++hlaz+tZjTTRrc4fLK6pVVZSUKYKJVrEH6W8sPi1uIoK0gQXxGWcqH6z2t/OQSRJkjSVZQ7RNqv5gfyeqCBNeDGbJflzR08eyb9OeRKl6aOgObP4qdhIHWkyaOOtxdu+HjORJEnS1PYIX2Xwbt4YNaTJoJWXNT422DHAbsqTKEkfZ7RzG29kFtJksYLXrb+pTh+SJEmauvZykmtu5k2sRJos5sRb0y3VdthJWRKlqURekX+aXgJp8tic30kvkiRJmsKCak9+B5uRJo9gfvEzxZpmhdIkStNcEj8RG6giTSat0ce7CSRJkjQlNWgwp9p4f2ynFWkyqcbG+HhaGpQlUYpt5Dm8ijdQQ5psFvKGvG1bdRuSJEmaeh7ggeoTN/JGFiJNNjXu5NXRvZtyJEqwnVo1NvMeegikySZYzQdibkQfkiRJmlruo5JiQfEBVhFIk00wi/ewubNyH2VIlCDTXMtb8iakyamDW7mLdiRJkjSlZAZozijezHZmIE1O6/Mbjq5pUIbEiN1IpS3fyp2BNFlFFx8p1jVqNyBJkqSpYy/1er46f5gupMnrtdxWa9vDyCVGqI+C5jbupAtp8qqwMr2/uijRhyRJkqaG+zhAc2nxEywiIU1es3jN4LYmOxmpxMgt5A1sRZrc6vnN9KXOzAeRJEnS5HeIIebPjlvi1dSRJrW8lTeyiBFLjEgfZ7ydVxBIk1tEOz/Jun72IUmSpMmvnzXkTfmnaEGa5CLiVt7aZDcjkxi2G7mRM7ZwOwuRJr9gXX592/J++pAkSdLktodT7F5dvJEVBNLktzheWdsCP+AHDF9iJKLSmd/HJqSpoco9vJyEJEmSJr2OxHW8gYQ0NVxdvLvRlskMX2LYCopK863RRwfSVDGfN3MtkiRJmuQKTlzLG5iDNFXMjG2VN1QqFYYvMUx9UGENP85ipKmkj1cyuw9JkiRNXrtgNq+kD2kqWco707JK2stwJYYpk9vyW7mMKtJU0sGruAX6kCRJ0uSUOQ238Co6kKaSOhuLtzXbmgxXYli2U6mn9byeLqSp5ipexwokSZI0Se1lxgpex1VIU82s/Dauor6L4UkMw/UEze78nlhCQpp6rufuRu0GJEmSNPk8wJxovpnrkaaeFIv4IPNb2MlwJIahSrOFjfl1tCJNRYu5o7IuBZIkSZp0GnF4ddzOYqSpqJXX8vL+DoYlcdG2A7Ei3hMdBNLUtDreFrU++pAkSdLksZOdNOvFB1iHNFW18r64JNjFxUsMQ+pkK6+kijRVdXMLV1FBkiRJk0amSVS5jtvoRpqqKlzPDcxiGBIXqY9MvpL30IY0lS3lvdShD0mSJE0Omb+mpTU+zDKkqayW78lrMzu5WImL18vNXI00tXWynWupI0mSpEliLze3Dt7KZmYgTWlxTWxlNhctcVHewSB5c34jVaSpbkF+d+7ISJIkaTL4AYlidn4/85Cmulp+Pddw0RIXZT8tC6IvrkCa+triprgutW1HkiRJE1+i2cFNXEsL0pQXV8eN1Z49XJzERegjk7dxM9J0EPTwrtyT6UOSJEkT236axHzeSQfSdFDl9mbfIJmLkbg4PdzIOqTpocqtXE0rkiRJmuAGqHWwmS1UkaaHDfmWWs8eLkbigvVxxq1sRpoughm8KS8LViNJkqSJ6yEGyKvy22hBmjZic3HraTIXLnExZnI7VyBNHym/iiuHqvORJEnSxNVP2wyu4SYS0vRxBbd3dO7lwiUuyM3cTD14FRtJSNNIdMarq6srbEaSJEkT0z6GGFpXvI4K0nSSYuPQKxbwCI9wYRIXJJOj2ckbWI00zeQ78tWzqCBJkqSJqaCznq6Jm5Cmm9W8/on2QQa5MIkLcDNNmpXma9hIHWmaiTlx05HLa1yHJEmSJp4HGeTEtfkOakjTTT3W9982UBngIS5E4gIE9ajM4G4WI01D+ba8pU4DSZIkTTyJbxMv4wak6WgJb623zqfKhUhcgCEG683trKMFaRqKBbF1cPUMJEmSNPGc5qr1XEc70nTUHlc3thyqn+BCJC5MK/cwB2m6uiHfXOMyJEmSNLH0c4riZrYgTVc9+e5ma8GFSLykPqixhutoR5qulnPD4OJ5SJIkaWJ5iI7FsZkFSNPVDPrS2kptDy8tcSE6uYvZSNNYbORWJEmSNMEUNG/jSqTpK+gtXtfobPLSEi+hjzMWcietSNPZSrY3229AkiRJE8f91LvyzaxCms5aeE0sqcduXkripc2mj1VUkKazWqyrXl8JJEmSNGEMxeBNsZ4q0nRWiZX55sE5BS8lcV7bybCEt1BFmu6W8Zpc3cpWJEmSNP72sIeocSdLkaa7Cm9haWYP55d4CZU2rszXkJCmu9n5+nwJCUmSJE0MlVjHJjqQprsU69OVtXZeQuI8biJTXMIdUUMSsSDdlWqJ65AkSdL4eoiColrcSS+SoFa8srGiyaOcT+I8goNwWb4VSWd159cMdR2LAkmSJI2vxLyodeXbmYOks26JVSepcT6J82gwbwmbYw6SzqrGJbXtna1tSJIkaXyd5FBrY3usoIKkM2IO13YueIrzSZzfOvqQ9LSZ+Y25PSNJkqTxlckz8lvoRNLTbi7WF5xP4py20WxhPVci6WmtbGZprmxDkiRJ42cP1Vqs5jpakPS0DVzV0rKXc0ucU1C5gpdRR9LTImZHX+oMJEmSNH4KGl35VjoJJD2tzjWDVxScW+IcbqGAa7kGSc9W51XMKbgDSZIkjY+9FNDN7dSQ9Gw/lq/pp59zSZxDg2oXm1iCpGercG0sa62cQpIkSeOjSbXOpXkjVSQ921LW9bYd4FwS55Ap+rgSSc8VtOUbB3sLJEmSND4yzfn5lqgh6fmuOHrNAOeSeFHr6SL3sQ5Jz5e4lYWwHUmSJI29vQSxMG4hkPR8a4vrC3bz4hIvag5HL43LaUfS80XeyPrUjiRJksbFkojFrCGQ9HwLYlOazTkkzuV6liHpRUSNbcXyjCRJksZeg/1L8stISHoxl+TrMy8u8QLzmMcOeDmLkPSicl9eVWEpkiRJGmtBrOAGJL24ZXl75sUlXuAyLottK7icDiS9qFjK2kb7CiRJkjS2drMaVrEeSS9uTmys9u6NvbxQ4gWCSLGFXiSdU2yIlYEkSZLGVmb3UjbQjqRzWdK8rpmavFDiBSrkCtvoRtK5bcqXIUmSpLG3ni1IOreefEuuZF4o8TxbGUx5Lj9GF5LO7VIu/TwvR5IkSWNnL/1wOVci6dxmxeZqVz3u4/kSz5Oo1NJ19CLpfFKs2X5JFUmSJI2dJq3zWUkdSefTW2xu1Jo8X+I5NhJQp48OJJ3fWtYjSZKksbWetUg6v5nFLbmlQea5Es/RynKKDrYyA0nnt5r1baxDkiRJY+MBMlzJGiSd34zYVu/4XY7xXInnaOWB1rSJRVSQdH5drDu9aC6SJEkaKzNbuIxeJJ1fhUWDm97R+hjPlXi+GVxHK5Je2gquRpIkSWNkiFPrWY6kl9Yam1J74rkSz9fOFupIemnLeBmSJEkaIwXNLVyCpJdWy9fl9sxzJZ6ljzN6uIIqkl5aD5fT1ockSZJG34N01eLHWIKkl1ZjfXR/mz08W+K5OriCLgJJF2IBKwkkSZI06gbjxBpWUkXSSwu6WXdVR+bZEs81h+tJSLowc7kaSZIkjYFMvpYeJF2YlLfk2TxH4lkSeQ5bSEi6MHN5GYEkSZJGXY58FXORdGESL8uzM3t4RuIfXcenyAvyZSQkXZjZrG+0bWELkiRJGj33cz/VFjYwC0kXJnE58/+CZ0v8oxbeOC9tjCqSLty86rp6pY4kSZJGT4NGpbmGbiRduPZY9+puniXxbL1sQtLF6GQzFSRJkjSKMrmSN9OJpIuQryzmFjwj8WzzuRpJF6OTzVSRJEnSKMrkSt5MJ5IuQr4y92SekfgHN3EEevMyJF2MGXkDHRF9SJIkaXTsYYBoiQ10IOkixGXRW7CPpyX+QZM53ayMhKSLErO5PNeQJEnSqGmvppX0EEi6GO2xoqVjiKcl/lFezFokXawWNlJHkiRJoySTW/LLaEPSxbq8WJJ5WuIZC1mNpItV50rqSJIkaZRkcmu+nlYkXaS8vlieeVrih/o4Yz4rkHSx6lxJDUmSJI2KAzSIFjbSgqSLtYbFTQ7yI4mnVVjEbCRdrFq+pNm1g81IkiSpfCeZlaKb+VSQdLE6WNBdPcGPJJ62jOVIGoZoqVzW19aKJEmSytfkVGteTQuShmPZsaUNfiTxtCUsRdJwVLmKGUiSJGkUZHIba6ggaTiWFEsyP1Llh4K8lKVIGo4KV9KOJEmSRkGGdtZRQdJwLGQh/yDxQ+2wguVIGo4K62hHkiRJoyCT2/M6KkgajiV5SeZHEmds41gr82lB0nAkFtND9CFJkqRyPcIgqSOWk5A0HJ2xaEFlH2clzggqvXQjabhaWM4MJEmSVLLTzGhlBW0EkoZnwYGlg5yV+JEldCNp+FYxE0mSJJWsoDkrX0Egabjm5RWZsxI/spQeJA1XsIqZSJIkqWSZ3MlqAknD1c0ifijxI0vpQdJwBSvoQJIkSeXrYAWBpOHqZhE/lGA9dVhCN5KGbwntmf+EJEmSStbOEiQNX3deXJCBBDN4sp7nU0fScAW90TXIp5AkSVJ5HuQ0dOVeAknDVY95a+MRIEELMxfFTCSNRC0vaZkxiCRJksrTT1s7i6OGpJHo3L3oJJA4awmdSBqZ5cxGkiRJ5epiEZJGposVnJE4awVdSBqZRXQhSZKkcnWxCEkj08kSzkicdQmzkDQyi+hCkiRJ5ZrNciSNzEwWc0birB7akTQyy5iNJEmSyjWLxUgamZks5ozEWT20I2lkepmJJEmSSpMpyJ0sRNLIdLCAM1IfVJlDFUkjM4MZ0IckSZLK8SiniU46kDQyVea01vaRCObSgaSRm0UNSZIkleQ03TU6kTRyM4ZmNyIRLKMNSSPXzSwkSZJUkoKBWXQjaeRaiwVFJBJLaEPSyHXThSRJkkqSyV10I2nkWvKCHIlgAa1IGrluupAkSVJJMrmLbiSNXDtLiUQwnxYkjVw3XUiSJKk8XXQjaeTaWEqqEsynBUkjN4cuJEmSVJKALuYgaeTqeS5UCXpoQdLIddOFJEmSytNFN5JGrhZziAT00oKkketmFpIkSSrPLLqRNHJ15hCJGh1IKkMrHdCHJEmSRu4JjhKdtCJp5Kp5Vksl0U4VSeVoQ5IkSaXo55pEG5JKETOiPdFJQlI5WmlDkiRJJehnX0uuI6kc1aHuxCwqSCpHGzOQJElSCQqGZtCGpHJUi3mJHipIKkcHnUiSJKkEQXTSgaRyVPLcKnOpIKkcM5iJJEmSSlDATGYgqRyJmYkuKkgqRyttSJIkqQRBtNGKpHJUorPKTBKSytFKG5IkSSpBhjZakVSOlDsTc6kgqRyttCNJkqQSBNFOK5LKkWJmlVlUkFSO1tyGJEmSSpChjVYklaOSO6u0k5BUjtZoQ5IkSSXIMCPakFSORGeihUBSOeq0IEmSpHLUqSOpHIkZVapIKkuFKpIkSSpBQIWEpHIEbYlEIKkcVWpIkiSpBJlco4qkcqTcnmghkFSOKlUkSZJUjipVJJUlEi0EkiRJkiRp6opoqdJCIKkcVapIkiSpBAFVqkgqR9CSaCGQVI4qNSRJklSOGlUklSOIRCCpPIEkSZJKkMk1qkgqRyYnqgSSylGhgiRJkspRzVUklSNyLdFKQlI5qtSQJElSOVIEksqRaE1IkiRJ0kRU5AJJpUn0UyCpHA2GkCRJUjmGooGkchQMVGmQkVSOBg0kSZJUgoAmTSSVI8dAIiOpLA2GkCRJUjkyksqSGUgMkJFUjgZDSJIkqRxDNJBUjpwHEgNkJJWjSQNJkiSVIJMbNJBUjsxAYoCMpHI0GEKSJEnlGKKBpHLkGKgyQEZSOTKSJEkqRUCDBpLKkcmJATKSytGkgSRJksoxRANJZRlKDFAgqRwNGkiSJKkcDRpIKkfBQGKAjKRyNBhCkiRJpchDNJBUjsxAYoCMpHI0GEKSJEmliCEaSCpHZiBxmoykcgwxiCRJkkoQxCBDSCpHjtNVjtJEUjn6OY0kSZJKkOE0/UgqRzMfTRyiiaRynOAYkiRJKkEQxziBpHI041CVQzSQVI4THEOSJEklyHCME0gqRyMfSjxBE0nlOMlxJEmSVIJEOs5JJJWjGU9UOUoTSeU4wTEkSZJUggynOI2kcjTyocSTNJFUjhMcQ5IkSSVI1I5zEknlaHIwcZghJJXjNBlJkiSVoMqJQU4iqRxD6URigONkJI1cwWnYgSRJkkZuOXU4SYGkkcucKBoJeJIhJI3cUU4gSZKkkmTyCY4iaeSG8pOZROYphpA0csc4iSRJkkoSxClOIGnkBuNw5ETmOA0kjdxxTiJJkqSSZHI/p5A0ckMcJleBJxhE0sgd5xSSJEkqScAJjiJp5IZ4ipwo2M9pJI3cIY4gSZKk8jzJ40gauX4eIScy+zmFpJE7wJNIkiSpPE9yAEkjd4r95CqZxxhA0sg9wVEkSZJUkoCj+QkkjdxAPEZOZB6jH0kj9yRPIUmSpJIkWp7iSSSN3On6I/VcJXOEY0gaqcxhhpAkSVJJqhwfqh0mE0gamcNzjzRy2gFDPM5pJI3MQZ6CHUiSJKkcy6nBUxxE0sicygcebs4icdYjnEDSyDzGMSRJklSiTD7GY0gamZMc5IwqZx3kFJJG5gAnkCRJUokCTnAISSNzMh7njMRZBziJpJF5hKNIkiSpXCc4gKSROc5DnJE46yGOI2lkHuUokiRJKtdRHkHSyBznEc6octbDHEfSyBzkBJIkSSpRwLH8CJJG5mQc4IwEg5x+nBNIGpF84GsnBpEkSVJ5gq7jHEDSyJxMjweQYIjZp3mMISQN3xNx6Lo8xP/PHnzA6V3fB57//P7P88yMugBJ1CDUBRivHWNj7NjIiVM2TuLEKZt2t8mWZDcXJ05ee0lu13fZ2731bXYTnwuOHTfi4AI22LjQTJsRSAiQBAih3rtmVGZG0sxT/98DOwoYI6EZTXtmPu+3JEmShtLxiK44gqTBq8XBaj8vyOApyrCHI0garGAHvQ2eQpIkSUNnEYnUm3YQSBqsI2lPgUVAxvft5DCSBivYRA+SJEkactHDJgJJg3U4dvI9Gd+3jUNIGqxgAz1IkiRpyKUeNhBIGqxDaRvfU+QFATvTYSQNVrA5epEkSdIQK5D11jdHIGmwDhd3Bi/KeEGZ1mPRiaTBiTiV7ylVykiSJGloTeJEhb30E0ganMM9xybxoowXPEGVdJCjSBqMPG3NTtR5AkmSJA2ty2klPxm7yJE0GIfZN4XLeVHGaXvZi6TBaLCePiRJkjQMEqkvraeBpMHYE3uC78s4bQ97kDQYDbZQRpIkScMgkfrSehpIGoyD2cGM7yty2gEOIGkwGmyhH0mSJA2DBP2xmQaSBuNAOsA/yjjtAPuQNBhVNtOPJEmShkGitZ/NVJE0GLsmHeAfZZyWs5cuJA1Une0cJZAkSdIwaOFUxNHYTh1JA7WH3ady/lHG97Tzgv1sQdJAVXiaMrQjSZKkoXcliSjzNBUkDdSm2AuL+L6Ml+xjE5IGqsxqqkiSJGmYZGTVbDVlJA3URvYFpxV5yQE2IWmgKqylgiRJkoZJIlVibZSRNFBbSgdzTst4yQl20o+kAYme2NFfR5IkScOkxKfrbOcIgaSBOMaeenURp2X8o3ZecJQdSBqI/rQ5VSbRjiRJkobHVfxr8iob6UPSQDxHJy+T8XJH2YikgTjBGhpIkiRpeNVZRS+SBiCeiyPBSzJe7jBrkTQQvTxBA0mSJA2jjKyRreUEkgYgPZd1Zbwk458UeHdnWksfks7d4epTlUYFSZIkDauc5+hC0rk7xZbqiSIvyfgns3iAOMgGciSdmx6er/U+Ho8jSZKkYRVxgufpQdK5yVnHkRLzeUnGP7mdBMd5khxJ5+YIq6cEkiRJGlaLWAR5Ws0RJJ2bnFXpeOLlMn7QcVZGjqRzEp2xKpAkSdLwC+JJupB0bhppVXY88XIZP+DIyVhPJzmSXluwt29zNZAkSdKwa0R9SxxA0rnIOZI2bu9r4eUyXqadWaQjaS01JL22zrRhSvVxJEmSNPyuodDPBrqQ9NpqrMqPXsVcXi7jlU6xkhqSXtte1iJJkqQRkpE9yW4kvbYK98WJ4AdlvFIfq+hD0mvbxVokSZI0QhLZWnYh6bWdKCyfeqqVH5TxA44wqdp4PrZRQ9LZVdjWtv8IkiRJGhlT6NsfWykj6ezKPNvoOpnzChk/YD39FMqpnZNIOrsNrC2zHkmSJI2MS2mB9WxF0tmdooNKYh4/KOOHVWnnJJLO7nnWIkmSpBGTeME6NiPp7E7STpUfkvEKdeq1xtrYQwNJZxZs/uD2OpIkSRo5QX0zm5F0No3Yw2Ya/JCMV3iMYhR60yq6kXRmG9n0//AYkiRJGjm9tNTYwl4knVl3epI+YgmvlPFqcjo4iqQze4rnkSRJ0oi6gYANPIWkMzuadaQ88cMyfkgQeTzFfiSd2bP5jkCSJEkjK4iNrCJH0pl0pqeyPOOHZfyQDjqCQ7GO40h6dbvZllU6kCRJ0shaSjrFc2xB0qvriXX1QwtjIT8s41UlUjt7kPTqOtiOJEmSRsc2HkbSq9uR7km8uoxXlZO3xzYkvYqoRXtjZ44kSZJGXpDvZiUNJL2a7S2PFnl1GWeQdac1HETSK0V6Jj1X6EeSJEmjIquxnS0Ekl7pYKwt93IGGa9qOS9YwSYkvVLOdzkAy5EkSdLIW0oQB+IBAkmvtD61Zyzg1WWcQUbpSZ5H0g8K+tPDLYczJEmSNDoyCofSg1FD0g8K1l3xZBtnknEGk6mUWcNWJL1cgydid7kxGUmSJI2OIrUqW9Mz1JH0chtj7d7GXM4k4wy+QwareAJJL1flbo5lfAdJkiSNjvkU4Aj3UUPSy61OqxNnlnE2W3iaCpJOy+NItOe9gSRJkkZPInVzH90Ekk7r4+mW7RlnlnFG7ZCznmeQdFqZDnanRgeSJEkaPYvJ67EtVlFB0mlrWFdtLOLMMs4iiOd4CEmn9XIbp5AkSdIoS6RT6XZ6kXRae2F9xtlknMVxphzMH48DSHpRPXbWVnZUjiNJkqTRldMo54/EThpIekF0s7ancwZnk3EWJfrItqR7kPSio+lbLf3LKCFJkqTRVoisJ93HMSS9ID3M9qnUOZuMs1hDTmNn3Bc1JBEH82/ktZw1SJIkaXRdTUZWz77FYSRBNd3ZsrXAZZxNxmso1NLWtJocaaI7nlakHeRIkiRpbGjEetZwEmmia7Ay1pXLibPLOKvlvGA/d1JHmuj2ck+qL2c5kiRJGn2LWETUuIOdSBNdI92W7S2wgLPLeA0N+o7Fw7GfHGkiC7byGIEkSZLGjCyy9lhPHWkia7CNx77Sk3gtGa/hUSYF+9K9VJAmsq3cT287kiRJGjsWkZ9M97MFaSIrc2cc/Bcs4rVknIue+GocR5rAYm3cG0iSJGlsKVC6j6fIkSaqiE6+kXoTry3jNXXSWs2f5VFOIU1Uu3i0ZV8nkiRJGlsWUjscy9mGNFGd5KHYntcX89oyXtNGqhT60hfoRJqoVqQHa2xEkiRJY01GoYOVSBNVZ+HWQn+Bc5FxDk5xvFpbHk/TjzQRHWNl65ZTSJIkaeyZSu/2WBmHkCai/ng2e+Lx2kLORcY5KHIBpXL6GvuRJqKHWFWhiCRJksaeOlNJT6SHkCai/elr9foNnJuMc/A4DRp5477YRANpojnFd3kGHkeSJEljz4/QwvPruC+OIU00jdjUcl9L3kLiXGSckyCi0ZPuYjvSRPMQz5AjSZKkMaqFq4m1fAdpotme7mrpKUSBc5NxTh7jMYqRfys2IE0oUcnvqD7XoB1JkiSNTZdTZNKW9O3oRZpIgrXprlNxJVdybjLOWY1JXXyHTUgTR57uSWsmVY4hSZKksWshJ+vxHHeTI00cz6ZvNo4WOHcZ5+xxKqRvswJpogi6uTXtbPA8kiRJGrsSJbLd6XaOEUgTQ86K4n0lFnDuMgagHTp5kPVIE0ONe3mK/nYkSZI0ti2iXk5ruI8a0sSwNh6sdi9kIDIGJJHauY860vgXHOHWdCQhSZKksS5RIjuSvsgRAmn8K3NvWp4YmIwBeYT8UDwYzyCNf/08xFNRfgRJkiSNfYuol/On4gH6kMa/J+LhOLaEgckYoERak+6ihjTeHeLznESSJEnN4wSfYT+BNL5V0jdLawsMVMbAHeFh1iCNb7108ARVJEmS1DxqrIl76UYa12JF/litlwHLGKB2XrCRW6kijWfb0ydSNdGOJEmSmsNSChSqhU+zG2k8K2dfKG0osIiByhiMbtq5nwbSeLWfr/McDSRJktREEilnK/fTiTRe1XkgnqqeSgxcxoC184LtfDJOEEjjUqyPf8irj/AIkiRJah4LWUijHrewAWl8ijgen4gdiYUMXMagRIWn022UkcajrXyzY08dSZIkNZ88KlvT3exGGo/605fTM4VKg8HIGIR2MrKj6XOxnQbSeBOsKtz1LlYgSZKk5nMNk3Lu4HGk8acRO7N/KB1NXMtgZAzKIzRq+Qb+nuNI4826uLtx8BEkSZLUnCqkXXyDp5HGm+PplnxTrb6QwckYvDJf5VmqSOPJSe5ODyUkSZLUrK4jhwe4hz6k8aTME4XbSuUig5UxSB2kPB3gC+xBGk/a+Q5H2pEkSVLzWkIcj++yAmk82cHnG4dq+QIGK+N8NLiTDk4gjReHuH3qExmSJElqbon0BHdwDGm8OM5DP/LtyxqXMXgZ56ePz7MGaXxo8GUeO5kjSZKk5lehna+RI40Pq/n8nlo//QxexqC1084LVvINdiI1v4jn+fqpXW08jCRJkprbEhK1LdzGVgKp+e2J+/JnEnOYw+BlnJd2EtmXuJ9Aam4RfXwkf66Nq5AkSVLzyygSz/JRKkjN72FuTyzh/GScp4zaUe5iOVJzq6bbeaStN/EpJEmS1PwWAjOP8910J1Wk5vYk3yzu57xlnKeHKFFcztfpRGpeeezPP9PY389yJEmSND4spYe0J/6W/eRIzesYtxceCJZyvjLO28PU+vO7485AalbRzYfTc4Xao0iSJGn8WELUWMcn6UFqUkHcxjcbpxZx/jKGQM7c7dyVnkVqTie4J76W9wWSJEkaX4K8L27jEU4hNaXUzm1t23OGQsYQeJQ9sCY+RxeB1GxyNvLJdDSL5UiSJGl8WUohzw6mT7KFQGo2wb702cLTFa5mKGQMiQ44yl3xNWpIzWYPX0mPdzQ6kCRJ0vizmMX1eIivsh+p2VT4Eo/kJxczNDKGSIO+ffHJeJY6UjPpiburt9QCSZIkjVtZFD4b93MSqZnU4snsc39/YApDJWOIJKZEtiP9NYcJpObRkT7T0pOQJEnSeJYfyT5FB1LzyNmXfSj2/g4NhkrGEHmUF/RxP1+jG6lZPMcdPAuPIUmSpPFrEZCv5naeQ2oWR9LnWEkZ5jJUMoZMOxmFE9nfxNNUkZpBL7dzJ7QjSZKk8W0xRVru5PboRWoG5Xgq/0ycDBYzdDKG0DQezNPB9FexBWnMC+JWvhJ9SJIkaQJo42Qft/HFQBr74vnsv3NkSnyVoVRgCG2mgwgOpAKLuQBpTEv38am+Z0t0IEmSpPHvw3yAqd3VXi5NC5HGti3p5tI9hXqDX2QoZQypdtqhny/zTY4ijV3Bdj6XVk+hA0mSJE0MSzgRsTp9hg0E0tjVyTeyO+uV+cxnaGUMuXbicHw+HqSBNDYFJ/k7OuhvR5IkSRPHUgr9qSN9km4CaWzq4+709/nRxQy9AsNgN/M6OclVaS7SWFTlq9zMQdiFJEmSJpKPcbSfvVzIdZSQxqLv8nHWLmE4ZAyLnPrD6TNsRhp7qrE6PhoHgnYkSZI0sSQSWWf6GA9TRhp71vG5g4+VGB4Zw2I5xWp+D5+hB2lsabAt/XXalOodSJIkaeJZDI20M/srNtNAGlPiMJ/MHrqM+QyPjGGTHeWbfJl+pLFkD5/iHspIkiRpwopqPJE+yW6ksaSPz8XdjV6GTcYw6aCbK7fln+C7VJHGisNx54nPdFe7aUeSJEkT0yImMana+oX4Fl1IY0Ul7uEf2AuLGS4Fhs0hZpAfS1t4a5pFAWn09cad9f9S6H2KQ0iSJGni+jDT6aqzJq5Ki2hBGn21WJf9xaQNxGKGT8Yw2klrI55Pf8EucqTRVuOb/I9PHDmBJEmSJrZEosjJI4X/yb3kSKMt6Mz+z+z5nsZ8hlPGMNpLztRyrIj/HPuQRll8Oz46f/uf8BySJEnSPC7igk3pI9yDNNo6+X/TigXlaSSGU4FhtYuLyeuxO6tybZqONGriofhY/8qeWI4kSZL0oo/we1E4FMe4jHlIo+cAH49bo/soCxleBYbZHuaTVdnGBWkBU5BGx2o+Fg+Vqo8iSZIknfYx/rc8HYgyS5mNNDo6uS0+QSexlOGWMew66IjUlT7Lt+lGGnnBJv42PVjoW44kSZL0covJT/FdPs0+Amnk9XBP/B0Hl8ZShl+BEbGLq45wkNnMp4Q0knIO8RHu5Fg7kiRJ0ivdzB+dSvso8jomkZBGUh/3xSd4Zikjo8AI2cVVBzjK5cwjQxopwXFu4bN0tSNJkiS9mo/ReaKwhYtZQCsJaaTUeYiPpseWMlKKjKC8PbUxM91AAWlk9Ma3+HB0ZUiSJElnUqR0oPZfYxrvYRrSyMh5Kn28q/0GgsTIyBhBOZUH+FCsJ0caCSdojw82juZIkiRJZ5JIlCMO8B9ZST/SSMhja/z39MA0CiRGSsaIaSdneiN7KP0le8mRhtsJ7ml8ID/cl+e0I0mSJJ3JIjIajbQ3+3PW0EAabjl70wfjoUajhcTIKTCC9rKAar14kP3cxCQS0vApx93xwfKuag5PIkmSJJ3NzfwpWZ6OxQ6u4XKk4RRxLP15urflRIOljKSMEfVdWriml3v5vzhMIA2XctwVH1q+rS9fy1okSZKk17KABUQtW5n+UzyMNHyCQ/wF91zRk7OUkVVghO1kMpTZQRevZwbScKjHnfE3y59+G2uRJEmSztXHeH892xv74+K0AGl47OW/8bXo7mUxI63AiNvFfFKZLfSzhAuQhlo97oqPznhyFiuRJEmSBuLjvD8v7skPMZsFJKShFbEtfTRujV7iakZegVGwk3mkSno+cuZxEdJQqvFtPlxZVWMFkiRJ0kB9nD/MC3vzfcxmAQlpKG1MN+d/zwm4mtFQZFQ8DLzrZPbpvM6/42qkoVLhgfRX01aX4kEkSZKkwVjEpmreXqhQ4l0UkYbKRj457bO1ylxGS4FRs4t51cKzeY1FXEhCOn/9dKQPFp+p5A8hSZIkDdbNvD/iQNrEIi6liHT+Iramj0/9XLVyFaMnY1Tl5eIt/E+200A6X308nv5Dtq7RQJIkSTpPLfWW1dkfxUr6kM5XxM7015NvqZSD0VRgFO1kHl31woa0l+vShWRIg9fPqvT+tCWvJx5GkiRJOh8388fUIjuWnsivTpfSgjR4eexL/7nl9mpfxnxGU4FRtZP5zK2f2JFt4TpmkSENToXl6U/SllRLPIwkSZJ0vj7Gn5Ll0c1K5vEjtCANTiMOpL8ofuv4ySnMZ3QVGGX7mE1Wz/bzPFdzMQWkgavxQPqP2YZUh4eRJEmShsJH+QBZnnWzJmYzn1akgavH0+lPswcXnKhxFaMtMSa8C1q5If6St9GGNDA93JE+UtwYjQeRJEmShtZJbuZXFjY+wG9wIdLAlGM5H8qe6C+/nsToS4wRy6DEjfwZy5iCdO72xJe5hS3tJCRJkqThsAUWxO/wvzAX6dz1cG98nKeoLWVsSIwZyyCLt6d/xz/nAqRzs4EvxG3s6UCSJEkaPpvgyvTL/K+8AencdPKN9FnWki9mrEiMKcvgev4lv8TlSK8lWM3n+QaH25EkSZKG12a4iJ/j93krCem17OYr8Q9sXMpYUmBM2cVVB9gYVa5IFyGdTT1WxN/k3+RYB5IkSdJwu5k/7I/t7EtXcCkFpLOIbXw6/V3atZSxpcAYs4sru+PpdJx56UIKSK8mOMFj6YOpI+vrQJIkSRoJN/OBamF32hhXMIdWEtKrabA5fTj+nqNLGWsKjDlzyavV9YWdLEgXUUJ6pZwu7k7/IduQ6sEuJEmSpJHxRxQa2YFsRX4plzKZhPRKZTbwXwpfy04FNzPWFBhzdnMlR3J2tKxJc7iSFhLSS3J28fnGX6bOQh48giRJkjRSPs4fQ6TewsN5ibnMICG9JDhFB/97PLKoeowljD2JMen13MDGQvEK/g1/wAUkpNOe5CN8q9yXBzyJJEmSNLIOAY10cjI/zwe4Aem04Hh8Kn22sGdqo5uljEWJMWsZZMyJn07/iYUkJKjz9fh4WktfO5IkSdLo2QyT+dF4P+9LRSSI2Jb913gg70z5UsaqxBj2DkhpenYjf8bbaEUTXWfcErfGVqqPIkmSJI2uTURLtojf4V9xIZro+nmMD2cr0wliIWNXgTFsD4spVLLd+WbauILJaOIKVsdHG7c+uv3ixuNIkiRJo+1m/o/GvK7jm+MIlzGHhCauLr7GX09eUewvMo+xLNEElsF1/Aa/ykI0MVW5my/yED3tSJIkSWPHZriAn+G3+ClKaGLawO3cwYYljH0FmsAurupkCz1cwMUU0MQSHI2vpY/wGKfakSRJksaSm/mjcraNHdGWrqQNTTQNVvC32W3sWkIzSDSJd8CU9I70b9LbuISEJooaO+Ib8Yk4kPLlSJIkSWPPZigwN/4w/QJzKaKJIjjMqri58WiqXkNzSDSNd9Egu5Lf45dZQAlNBCd5mi9VbokqrEKSJEkamw4BMan39/h1rmMKmghqbOfrxb97dM9vUaJZJJrGMiBgEj/On6XXM50MjWc1jnIvn+LJOgGsQJIkSRqb9gIF7ufGt/Pv+al0IQU0nuX0si77HzxM/0K6mEOzSDSVm8iol+Kywp+m93EpBTQ+BdV4Lj6Zf72lN8/bkSRJksa64EGuzPILst/k37OAFjReNTgYXy98mAPUYBHNJNFkbgRSVpqafpo/5gYKJDTe5JzgC9zS2FCpFWMlkiRJUnPYSD1Nbm28MX6fX6ONhMafejyZPhr3FU5mOSyguSSa0jKYks9Nv51+mx9B40s9VvP/8VjWGfV2JEmSpOayGUpczk/wJyylgMaXrvhK+hzbObWEZpRoUm9mX1o0J1vG7/AzaPw4yhfyrzaeW9H3Zp5CkiRJaj4byVNxWvpn8S/it9JMNE4E6bF0C/cXDub5IppTooktg6m8jl/kN7mChJrdSVZxK4+yh0Y7kiRJUvPaAkWuimX8a95AG2p2QQ9f4Y5sTfQspnklmtoyUopLeA+/yLtpRc1sK9/gO5XHow6rkCRJkprbfiBa+26KX+DnmIuaWYV27s2+U9yVNxbQzBJNbxm0cj2/xrtZQCtqRkd5iju4m0PtSJIkSePHJrgqvYdf4XqmomZUZjMPp7t4kvJiml1iHFgGiWm8j/fyFi6mgJpJzua4ny9dvLqTdiRJkqTx5QCXZlt+LH47vYNFFFAzyTnEivj6pG8X+yKuoPklxo13wdz4dX6Bq7kANYcGB2NzfDruTz3LkSRJksanLXABPxP/itcxhww1h142pbsKt8a+hYwXBcaNeVzZs2DF/tUk5qQWWtDY1uB4bOAT/N/x1ORKnd1IkiRJ49P7ubB8xfPdD+WVdBltlEhobKvEYe5K/+0vbq/2LuZjjBeJceX32JJV20pvSv+W9zCVEgmNRTmV2Jm+mN9KZ1bLI6MdSZIkafw6wKVsT422tDD+kPdwMQUSGpty+nkifSw90jh5V/7nJMaPxDjzVrq5uMiFcX36t/xEmkKGxpaA2MFt6cvsafQ18sQKJEmSpPFvKy8o5NPSjfEHvJNpJDTWBDX2po/Ft9P+llojFjC+JMaht5GnUmt2Sbqe3+WdTEVjyQG+wVdjfdZD4xEkSZKkiWULTMpm5W+NX+fdTEdjSTU2ZV/gAfZwgnwx409inFoGiUnM5UZ+nRuZisaCY/FN7srWpk6qDyNJkiRNTJthSnZZXB/vi59O09BYUIv16fb0ELs4Rr6Y8Skxri2DabEk/Vj8QrqRNjSK4lS6j2/FE/luyo8iSZIkTWybYUos4E3pp+Jn0gwSGj0N1vKd6GAjnUsZzxLj3k0wM16f3pHeyQ1MJ6ERFyfTyvhu6mA95XYkSZIkvWgztHI1b+PHWMbFZGjk5azhYTpYQ+cSxrvEhHATTOUN6Sd4K2/iIjI0cjp5Jp7kIR6l0YEkSZKkl9sCGdfEu3gnb+EKMjRyaqxLq+JBlnNsCRNBYsK4CVq4jp9Pb+ca5lBEw63OfjbxeNzT8dRsupAkSZL06rbAkvjn/Div5woKaLjl9LCN9enu7P5TJ19PYmJITCg3QWIp70vvZgkX0YKGR1DhcGzi3vSt7p0/y4eQJEmSdHZbYC7vjZ9jCZfQgoZLlePsiieyuwrL5zcOcwkTR2JCuYkXZcSV8Yu8Ly1lKpNJaCjlnOI46+KrjXtnHWnwLh7gXiRJkiSdTfBFJrOf98xu/Fz8Jku4gMlkaGiVOcGmuLtw17c3v4eMFy1i4khMQMsgRSHN5M38WvxkuoBWCuj8BXUqcSjdH3emNdHXaEyPe5AkSZJ0boJ7WZrqhZicrs9/I72bi2mhgIZCUKGflelLtDe6ivnB/B0kJprEBLUMUio1psTc7JfSrzKPFjI0eEHQG09xR3qEzuinRnQgSZIkaaC2QKKUTy5cmf88v8rVFEkkNHhBzinuyL4Uz0dPoRr5IiamxAR2Fb/MykLLzGx2flP6ZW5gOhqk2Mp96R42RHd2kvwRJEmSJJ2P7aRCbXp2SX497+VdXIgGq8o2vpPuiy3FrrZaPeYycSUmvHdCYkZ2GQt4Oz/D6yigcxfRnZZzf6xjD12UO5AkSZI0NIIv8papcWmaz43xk+ktFNEABGkvHTyS1sXBwuGsHixgYkvoe5ZBgUtjUbqWt8bbuCol9Bqih7WsjKezHfm26sliPIYkSZKkobaFVMxnxaJsabw9bkpXUESvJTjFajp4mi353nRyKXpRQi/zLtLkfEG8njek63kT09CrO8XWWM3TbMg30kk8iiRJkqThEyT2FPqXxnXpDbwh/lm6BJ1Jhed5lmfSc9mz64/dyMXotIRe4SfJUn1a/Yb0ZhYwjwVcQgv6vqCHXWyLzTzDk+zpQJIkSdLI2QwXxDVcn65jMQu5hIRecpLdbGZTPM1a9lBfin5QQmfwDpievS7dwBtYwKVcwmQmsgbdHGBfPJ+ebKzqO1BqrEKSJEnSaNhKmpG/Md7Om7iKS5hNkYmuj0PsiQ3p8bSKbYvRq0vorH6c1JYvjHdyI9dwIRcyhQITS51ejrI/1qbltZX50ZSvRJIkSdLo2kiD4tT0Dt4Sb0xXcgEzmEqJiSbnBD10s4Hl2YNXbj+aX4bOLKGz+nESOZPoKabLi++IZVyfLmYykygx3uX000c/+1iV319/ckZ3P3UCWIEkSZKk0bWJFyVIM6N3Ubw53sqPMpc2JjGJjPGuQYV+TsXh9HQ8ma1IO1sqVaZQYy46s4TOwdsJslQsRKExs/Cm9OO8MxamVkoUSYw3QZ0alTjM4zyWr2B/oZo36nmKFUiSJEkaa7ZCFlmeFSfFvPixuCHekmbTSpEiGeNNgwY1GrE/rU1P8ET+XMojzxpZHixCryWhAbiRSC0tWUuaEvNZFsu4Pk0mIyORSDS3IMiB4zzLch6vbSj0pUqj2tmYxhokSZIkjWU7yagV85ZoibZ0ddyQ3sqbuZggI5FodjlBUGNvPJuezB5nV+NUVqVKfTE6dwkN2C9xP28t5dNiGlOy6bGUa+LadC2XU6RpRbAvrWMNa9PO6OYkp6hAO5IkSZKayWZe0BqT05R0AYu4Pt4Y16YrSDSz3ticnk3r0rr8UJxMp0qn5tVOMg0NVELnYRkvmMb0mM70NIf5sZQlLOaSVKBZVONAWhfrWM++dCyOc5xKB5IkSZKa3VZSW35hzIyZ2SVxdVzDtSxMU2gaEWkfm3ie9eyMY6kn65nSU2zAHDRYCQ2JZVCIacxiFhcxm6uYl+axgDkUGXOixv60hz3siQMcpTsdzg/XO7fW57IaSZIkSePLFsiYlc9mDnPSXOZyGZdxeVycioxB0c2etI997I+d6ShH6KSTviVoKCQ0xN4BiQuzS9KlXMrFzGI2s5jFLGbFjFRgVEQ99dBFF0fooiu66EyH6cw7K8ez2uNIkiRJmgi2wbR8dn4Rs9KsuCjNYTZzmM2FcUGaQSujJBqpl6Mc5BCH4hCddNFFVzpCN7EEDaWEhs0y6qS2dEmaneYwO+YwO13ITGYyk5nMZDpFhk+dE3RznG6ORzdH6aKTTg6nTrqoQjuSJEmSJqqNREothYvzi5nDLC5kVrqQKcxgOlOZyhQmM5lWMoZeUOYEvZzgBL2c4ER0czQdif0cjP2NnlS/Fg2XhEbMMpic5sSlcSmXpku5lBlktDKZVkqUKFKiSIkSRQoUKFAgI6NA4vuCnAZ1GtRpUKdBnURQpkKFCmUq1Agg51Qc4AAH2R8H4yCVR5EkSZKkV7eNVIhpMSfmxCwuYiYzYyYz0zTaaKOFEi2UKFGiRIkSBTIKZBTISJwWBDk5OTk5OQ2qVKlSpUqVKlWq1CjHYbroSl100ZU6W7qjNg+NjIRG0TKYwaw0M6bmU9KUNJkpTI0pTE6ttNJKiZYo0UIpTaIQNcqUU5lylCmnMmXK0U8h1TkW3RyL7vx45Vh/uRDPIkmSJEnnZzMUmRkXMCObGlPTtJgSU9NUpjGZVlpoiZbUQolJtAJ5lKlRp0Yt1alFPdWinE7SSy+99Kbe1Jt6C72tJ6jAZWh0FNHo6qGH0xIDlvie4HuKTCYhSZIkSUOgzhGOcFpicIIXBImghiRJkiRJkiRJkiRJkiRJkiRJkiRJkiRJkiRJkiRJkiRJkiRJkiRJkiRJkiRJkiRJkiRJkiRJkiRJkiRJkiRJkiRJkiRJkiRJkiRJkiRJkiRJkiRJkiRJkiRJkiRJkiRJkiRJkiRJkiRJkiRJkiRJkiRJkiRJkiRJkiRJkiRJkiRJkiRJkiRJkiRJkiRJkiRJkiRJkiRJkiRJkiRJkiRJkiRJkiRJkiRJkiRJkiRJkiRJkiRJkiRJkiRJkiRJkiRJkiRJkiRJkiRJkiRJkiRJkiRJkiRJkiRJkiRJkiRJkiRJkiRJkiRJkiRJkiRJkiRJkiRJkiRJkiRJkiRJkiRJkiRJkiRJkiRJkiRJkiRJkiRJkiRJkiRJkiRJkiRJkiRJkiRJkiRJkiRJkiRJkiRJkiRJkiRJkiRJkiRJkiRJkiRJkiRJkiRJkiRJkiRJkiRJkiRJkiRJkiRJkiRJkiRJkiRJkiRJkiRJkiRJkiRJkiRJkiRJkiRJkiRJkiRJkiRJkiRJkiRJkiRJkiRJkiRJkiRJkiRJkiRJkiRJkiRJkiRJkiRJkiRJkiRJkiRJkiRJkiRJkiRJkiRJkiRJkiRJkiRJkiRJkiRJkiRJkiRJkiRJkiRJkiRJkiRJkiRJkiRJkiRJkiRJkiRJkiRJkiRJkiRJkiRJkiRJkiRJkiRJkiRJkiRJkiRJkiRJkiRJkiRJkiRJkiRJkiRJkiRJkiRJkiRJkiRJkiRJkiRJkiRJkiRJkiRJkiRJkiRJkiRJkiRJkiRJkiRJkiRJkiRJkiRJkiRJkiRJkiRJkiRJkiRJkiRJkiRJkiRJkiRJkiRJkiRJkiRJkiRJkiRJkiRJkiRJkiRJkiRJkiRJkiRJkiRJkiRJkiRJkiRJkiRJkiRJkiRJkiRJkiRJkiRJkiRJkiRJkiRJkiRJkiRJkiRJkiRJkiRJkiRJkiRJkiRJkiRJkiRJkiRJkiRJkiRJkiRJkiRJkiRJkiRJkiRJkiRJkiRJkiRJkiRJkiRJkiRJkiRJkiRJkiRJkiRJkiRJkiRJkiRJkiRJkiRJkiRJkiRJkiRJkiRJkiRJkiRJkiRJkiRJkiRJkiRJkiRJkiRJkiRJkiRJkiRJkiRJkiRJkiRJkiRJkiRJkiRJkiRJkiRJkiRJkiRJkiRJkiRJmngSkobRH5AK9dZGW2pLk2ijRJFCFCiQUUgFCpGlFDl16tSpU0916tRppDr1qEc9q6R+qp9CkiRpbPsuKau31CdFW2qjLVpTIQoUKFAgSwUKFMjIo0Ej5TRo0IgGjdRItbxKNatRzaupNqkajZ9E0vBISBoS/5IotrZlbdHGpGijLbVGS2qhlWnMYBrTmME0JtFKiWKUKKYSRUpRTFnUqVClQjVVqFCjQoUqFapUOMVxuqOfMpVUiQqVKFPJKlSoEPBpJEmSRtYdUGhpzSZFW7SltmijldbUQonpaXpMZzrTmM4UWqJIiSKlVKJIiSJFGlGjnmrUqVGLWqpRpUwf/fTTRz/9qS/66Y8++imnMuXop0z/BZU84CYknZ+EpAH6IDPZXsxb8hItlGihlFoo5ZO4MJvNbGYxK2YzK10YM9JMWkmcr4gKxziajnMsjnGMY+k4xzgW3amf/ijTn/eVq4X4ByRJkobWvVCollJLVoqWKKWWaEmlKDErzWYWs5jNrJjFBVyQZjCZjKGRx1E6OZK66KIrulIXXdGd+ilHf/RHf15L8UtIGriEpHPyXrbzo2lSKUpRSlPTJXE5l8QcZjOHOWkOc5hBkRclvi8xtIKXBBBRTrvZHjvYznb2pO6oUUvVVGvUjuTTuBVJkqTB+SaRUjErpVJhUuPi/PJ0SZoTs2NOmhNz0uyYlUq8KHFaYqgFpwWQx8m0kx2xgx3sSPvooRblVMuqqQE/i6Rzk5B0Vr9LpGKWFSjkpZhRnB/zYz7z0wLmMpNEIpHISCRGXk5OTk5Q5lBsY1vanrbl2ziWauQ0yBuNE3kO3IEkSdLZ3UOiXqBAgSymMT/NT/NiYcxPS5hGIpFIJDISIy/IyQlycsoc4vl4Km1L22I/tWiQp0bWKOXBTyPpzBKSfsiv8jV+l1IikRK1Kdn87Dqui+tYnKZSokiRIkUSY0mDOjXq1KlzhJ1sYzvb8+3lvW3ViDwSn0eSJOmV7gEiRcoTqVDK5/I6ruM6ljCLIkWKlCiSGEuCnBoV6tSiJ+2KbWxN27Mt2b56hcgiBfwskn5YQtKr+D0oMZ9ruIZrWcCFTGIyk2ijOeRUKFPhZOxOT/B04+l8T6p9HkmSpFe6h1TKL4lr82u5Ji3hIqYwiSm0ktEMgiplylQ4FpvTWp4pPJu6Iv9ZJP2whKSX+R3Kaeql6Q28Mb2eK5nJdGbSRkazqtLNcY5xMDbxXFrHLvo+jSRJEnwL5qTr4o28Ps1nBjOYwVQymlXQz3GOczR2pw08n9YVD+T1n0XSSxKSXvD7kJgTi7mOpVzFJVzOHIqMHzlHOcQhDnCIrljXWE8njc8jSZImmvtJqTGldk26Nq5O87mcy5hDG+NJhS4OcZi9bI/NaXPrzqwG70ZSQprQfoXdXDOttCgtYH5awDwWcCltjF85VY6xjW1sZ2tsZgcnP4MkSZoI7oEp+dxYyALmsYD5zGUS41mNI+xmD7vZEhtiY3SneC/SRJaQJqjf5RhzZjGP+SzldVzN4lRiIqmyhfXxPNvYnXZXDmU53IIkSRqPvg0XxhXMS0t5HVezkOkkJo4GB1nHs7GJ7Wl7vTPL34v0/7MHJ/B21/WB9z/f3/+cc9fse0ISshEIJJANJMiqQQTCYkUFFxCS4FKd2tFuM63OzKvTPoWx80xnnpmB6bQz04pjV0lEq1Va91rBHUXWiKwStoQk995z/r8H6zgqsiT3niTn/s/n/e5OgdRlrgCiUZvFLOaxkpPiBI6gmz3C1/hy/lrclx8pHy6fjvK/I0mSqmEbFMxgdp4dx7Eur4+FFHSvnXydz/HVvCMeqj8Sw/AKpO4SSF1jK89oMJXpeQmn8FKOiwnon+ShuCN/kS/kW3ggnmDkeiRJ0ni2Dep5EtNjASezIZ8Yk9GP7M7fiE/H5/Lt+VGepHUBUvcIpK6wBerRxySWci7ncBR1INBPZGCEr/A35Se4K+3Oe2lejyRJGm+2E0WrLwZYzFn5HNZFgyDQT2Tgab6QP8rfcX88nffRugCpGwRSpW3hGUXURnqK5ekcXsHxNKiR0HNr0cxP89XYnj/J3THSHCnL4I+QJEmdbhvPiFyPeswvz+JC1sQEahTouWRaNHmSz7Mtf4b7o8UIGTYhVVkgVdQVlNSiCAqWxsZ8LsfGJHqpoxeTGWEfj+dvxUeaH437a81W3pkH+V9IkqRO9CF+m39NpCiYkTfG+axhGn3UCfTCMkPs46H8D7GNz+adUTbLp+jjNUjVVEOqqEwumM3ZnB3HMSMm04P2T9CgwYSYxerirXFL/ls+ecdDKzOSJKkj7eM6Hpwep7GRk2ImU+glof0R9NLLxJjHWfkBPsfH+fztu45FqqpAqqDLGan1LU7nx0aWMpc+Ao1OZjcPc2f+FNuXfuf7+Q+QJEmdZTvMz2dzNquYzSQCjU6LJ3gg7+CL8an4Rt69Cal6AqliriYmtNbyctbG0Swk0NiV3M9tfJlPjnyJp+GPkCRJh9s2npFYx1ms51gW0ova4f58N5+Lm5pfid0XIVVLIFXGFggWxDrWcxKrmIra63G+xpfyP+TP50co/xBJknS43ESkcnJ5IidyEuuYidprJ1/ji3wxf5mHyBcgVUUgVcJWqLGENWzgDJbSiw6Oofzt+CT/UH4972DfHyJJkg61G8m1mMXaOInTWUMfOjj2cBuf4gvxDXbQPB+pCgJp3NsMPXleHJfO40JmkNDBVXJf/gSfim+yg6euQ5IkHSp/Ta6lmbEqzswXxFEkdHA1+T4f4W/4Bg8wvAlpvAukcW0z9ObpcVxcyMUxk0CHyi4+m/+i/Gy6jz3XI0mSDra/hnoxNR/FefFqlqBDJecH4i/jRm7LOxnahDSeBdK4tRl6WxOK1XEZ58U0Ah1qu/Pf89/Lz6YnGYLrkSRJB8OHeUY9TchHxat5FYvQoZbzw2xLHyy+1tzN0Cak8SqQxp1/zQ2cyXB9qK/npXFFnM5UCgIdepmSx/hMvo4v5qfLZvCHSJKkdrqJoCzK/rwi3sT5zKEgoUMv0+IH+VPpf/R+Yc/e3IILkcafQBpnrqJJf9A3cna8OdYyjR4CHT6ZYR7Nf5//I1+r7dlLwX9HkiS1w00UPE1vX15ZbuXlzKCXhA6fzBAP55vz/xdfSyNkOB9pfKkhjTtF78i6uDKdxlx6CXR4BT3MjQtiHX/T+qPyG6mJJElqi6AoGitaV3Auc5lAoMMr6GV+vDrW8wn+OL6dh5HGmUAaR7aQG7GK18fpLGECgTrJTu7KHy8/NOUb93MDkiRpbD7J3mPyJfkVcRTTUScpeTzfySfyDc3vFOVFSONHII0Tl/EBNq+KC+JlrGQa6kwP8RX+lpv4znVIkqTRuhGWxTlsZB1zUGd6iK/ycbanO77JryKND4E0LmyFY/IZbIyTmY062/18Kt8UH+dx8nVIkqQDsR0SC8vT4yxOZwHqbN/jM/kT8Wnu2YQ0HgRSh9sCiZlxKufyCuag8WCEO/nf+RPcwtD1SJKk/fPnPM2kCemUOI9NHEGBxoN72BYf48s8Sj4fqbMFUge7hD/jzX21VfEKrmAhCY0f+/Lf8Sd8ge8zfD2SJOnFbINelubTeXOsoo7GjxG+y5/yd3FbPEU+D6lzBVLH2gr1PIeTeGecSAONN5mn+JPyz/PXe59olv8VSZL0fG4kF2kqJ/EmLqSBxp8Rvsr13Fx+L4YvQOpUgdSRtpJT0Z+Py5dzGRMIND7lfE/8IX+e72vtrXEdkiTp2f6GSTzaVy7iMjbHTAKNT5l9+c/Sf6t9pbWH8jykThRIHef1DDG5lubxGjaziBqBxq+SJl/M/zW25z004XokSdKPbecZtZhQXpS3sjZqBBrPRriP/5w+2HpwoDXEuUidJpA6yhYgxe7evk1pCyfRT4HGvxF2cnP+D3y51WyS+GMkSdJfUVIj1eLU/HZOZSo1NP6V7Obv+S/FJ8omGc5H6iQ1pE4T5eKBd3Ae8+lB1VBnNhfG0fnP839uPUFGkiSRKSNP5q35NRxFH6qGxERezrLWR+M/cycZqaMEUgfZCg0uzJfHyUwhULW0eJDPxB/ErXnovyJJUnfbBj2s4R2cyhwKVC2Zx/MX+SNuZPgCpM4RSB1iM2VRzI8r2MSx9KBq2pe/yIf4Sx6+HkmSutc2mMUvcAkvoRdV0xDfzNvjj4v7ytb5SJ0hkDrCFpjIBl4Tm5hKQtWV+S4f5oaRb6bmHyJJUvf5a8pG/QRex3ksI1B1lTzGtvy/+QJPXYDUCQLpsHsHjzE4L5/HZfm0CFR9u/PH+EB8lh9chyRJ3WU7zMmncRkb6UPVl/l7PpQ+ct/3TuAlSIdbIB1mb4H+fHR+DZeyAHWPr/M/87bBO0Yy/EckSaq+7TwjsZRX5zdyNOoeD/En8Set78TQBUiHV4F0WG0hT+FMfpU3MAV1k1mcFHOb95VPlSPruAVJkqrtRnLk/ryGX+VyjkDdZJATmccjsfOyoRuQDqdAOkw284zEtHgjV8dRqBs1+VZcmz+edn6w9Sb+A5IkVdV2SEwuX8p7YxU11IXyN+M/pj+rPZFK2Ih0eATSYbGVoGwwP36Lc5lGoO5U8jgfit/P96xs/iP/E0mSqufDZCiKObG53BqzSKg7ZR7Of1X8bn6wHAk2IR0OgXTIXcJsSkb6OS3/yzieAQJ1r8yufHP5r/d9vWxO4DokSaqWGymhnlbHezmZyQTqXpld/CPv5Za0r8UFSIdegXTI3cZqRmbydn4tjqOPQN0saMSCtK7xYM/3aN6CJEnVcikxMS7m38Z6JhComwU9zMsnM5TvZt8NSIdegXSIXcWR0b86fjNeG0dSIAV15rCSffmetftuRZKk6thOHM3b+MVYQR0JajEjjo0JcddlT96AdKgVSIfUFmgMvJxfi1cynUD6kcSsfDR17lv7xK1IklQN2+AU3sFrYgGB9CPBVJYyN9//tgfP5i+QDqVAOoS2kAfTK3k7pxFIz7aDv8h/wleuR5Kk8e1vgZ70+MvibbyMCUjPtjt/LF9Xfib2XYR06BRIh8wWmJUu5p+xgUD6eZNZzvT8yJrvr+FWJEkarz5GSdm3dxP/nDMZQPp5jVjOkWl33H/pvhuQDpVAOiS2QDCP18bVLEN6fnvz5/g9Pp/25HwdkiSNPzdB5En5nPwbrKBAen7f4g/iwzxMPh/pUCiQDoEtkJjPW+PtLER6IfVYEGvjofxQ3rc234okSePLjbQSM7gg/zbLSEgvZCYnRKu8Oz99ab4B6eALpINsKyOkIhbEb8SrmYz04kp28q/yX+SHI1+PJEnjx3ZSas3Nr47fZAqB9OIey/+r+HfF/SPlJE5DOrgKpINqM3vorcVR8XtxAROR9kfQzynxJPfUdq/mViRJGg8yxzJMfRnv4N0xkUDaH32xIi8ov148eWf+Z/wvpIOpQDqItpKpNeIlcU2cTj+BtH+CHk6MZnkXT63lViRJ6nSZT/M4E9bm34jLYpBA2l8NFudj+NaCR1r5dfwp0sGTkA6qVCvOjN9jA/0E0v4LJud38KusQJKkcSB4ikkn86txIQNIByIYjDPL3398Y9lAOqgKpIPmaopGPp9/wToaSAcs+mJpzOTBtfffiiRJnW0bvIxf5mwGkA5cPeblY5s7R+68rPVBpIOlQDpI3kKqt17FeziRAml0+lgYM3hk7Y5bkSSpc90I58YvcSaDSKNTxFyOTLt67rps5E+RDo4C6aC4ilZfvIp3cSKBNHq9LGRWfmTNjjXciiRJnWcbl6U4P97FqfQjjUHMi4V5D3e9fvgDSAdDILXdZiBPSBfFu1iNNHZP81n+PZ9k5DokSeok/4WjebxRnBO/wjp6kMbum/y/6UM8BechtVuB1GZXkyJN4SJ+PVYitUODBSwvv9f8/unNfu5FkqTO8BnuYvIAZ/O+WE0DqR1m5qPZ2drRGnodH0RqrwKprTZTBtO4mPfGUqR2KZjNCenu5oPF8Bn8I5IkHX438z0WTSg35t+NFdSQ2iSm5dXxaPpe2ndZvgGpnQqkNtpMJqbFJfFvYh5SO6WYHidyZ+99MXIcX0WSpMPrrwn6+suN+fdjMQVSG8XkOIlHuYu9l3EDUvsUSG2zhZI0mfPj38YMAqm9EpPzSu4cvrderuKrSJJ0+NzM00S9fFn+7VhGQmq3ftZzLzti6HXcgNQuBVKbbAHSYJwbvxuzSUjtl2I6y9J9i+/cxQTuRZKkw+NmmtzEUa/gvXE8BVL7Bf15PbfnHbn5Bj6A1B4JqW1yb7wy3hdHkJAOjiLW8p67zpnCp5Ek6XCZyZO88pz8HtZSIB0cKY7gX/Hyeh2pbQqktngze2v1Tfx6rCSQDp4Uc5m555E1d9+KJEmHxzkUG+OXOI0G0sETMTMW5/t33fkmPojUDgVSG1zB3TFnU/rncRLSwVaLeTGZ76+971YkSTr0thOn8k5eRh/SwRXMzXPqD8+8cyN/jjR2BdKYXciFPHVO+mVOI5AOvjpzY2LcsfYHa7kFSZIOnRu5NPJa3sVGBpEOvoj5zHj6gb571/JxpLEqkMbkdI7kZL52erwnzqRAOjR6mcdA/g5PrM23IknSoXEjFBwd/5xzmYR0aKRYwAx2TPv+DUhjVSCNyUamxVMnxG/GWTSQDp1+FkfBbexem29FkqSDbxspMZdfjlczGenQqcV8ZnDbZT+4jBuQxqJAGoOtRIr5vDc20o90aPVxbDwVt9f3rOEWJEk6uG6kDGbwJt4Wk5EOrTpH5On1W9KuN+Q/RRq9AmnUtkIwI/9K/AKTkA69HtawI99b7lvPLUiSdPB8mAZ5Chfwr2IygXSo9cSCsj/fwp7L+ADSaBVIo7SFGnkaV8VbmYp0OAQ9nMh30vcYWcstSJJ0cGyjpByIjfF7MYOEdDj0sSz25G/37r2EG5BGp0AalasIyolsit9kBoF0eAQDrOT2fE+RF3EbkiS134dokApexu/EIhLS4dKXV/H95j0MXcYNSKORkEap1ZfP5L3MJJAOn8Ryfp0zZjCEJEkHQ5M+Wmfw67GchHT4RMzgX3BW9CONUkIaha0URe3U9C9jCQnp8Cp4Ce948JRZSJJ0MExgz0vTO+MkCqTDK8WS+A1Oo7YNaTQKpAN2CYvYdWr8GqcidYIi5kcf96596FYkSWqv7cQJvI3z6UXqBHOZyY5yxxv4ANKBKpAO2AZ2rYl3xvkkpM7QYD7BN9fuuhVJktrnRvI83sYlTELqFAupcXd++AakA1UgHaCrSXPiLXEZvUidoz9mxd7iK+ua6/gykiSN3Ud4PamHK3kjc5E6R2J+DNduu2z3B5AOTEI6IJsZ6cmXcAGDSJ1lEZeXZ5WpRJKkdigpU3kWl7MIqbNM5dWtS6LnI0gHpkDab1exBiKdGf+MVUidZypH8HkeX5tvQZKksbkREsvi37KGAqnTTM1T891D91zG6/gg0v4qkPbTW5nCvmBR/Js4lYTUeQqmMil/Pu9dy61IkjR620nBDH4rXk4/UgeKOXlm8fl4MrgBaX8lpP3U5LFgYvx6nEyB1JkmcRGvjomwBUmSRms7kCfF5XERE5E6UxEviV8bGJgcn0baXwXSfrmakujnF+P1zETqXH1xLF/j/miu5KtIknTg/ooCejkl/zYzCaRO1cfMkd1D3xhuvo4bkPZHQtpPRU86Ja5kDlInSyyI32L5BjKSJI1G5ijK5fm3mENC6mRz89vzaWUv0n5KSPvhSvak1qLy11lIQupsNdbxi59b2kCSpNGoc/uyeCfrKJA6WxFL+LW0aHL6G6T9kZD2Q42+OekdsYEGUudrxKs4j2lbkCTpQG2DaZzLxTSQOl8jTi5/8Yk5Q0j7IyG9qKuJiWzkNTSQxoepXJ43XM8VSJJ0IG5kGmzgcqYgjQ+NeE1sTBO3Ib24hPQitpJSXstmphNI40SsjtdtXllDkqQD8+hKXsdqpPEimJ43l6uXx01ILyYhvaAl1GgelS/LpyCNK3F+XFpOvwpJkvbXh8nTuZTzkcaXU+LV3108xKNIL6xAekGvojkhvZFfjDrS+NITM+KJ5lfX5VuRJOnF3UR/Grk0rmQe0rgSsIwfFN/6/tAHkF5IgfQCtlBGcVG8JeYjjT/Toy++seahQY7jW0iS9Py2cxkwckL+pTgJafzpY2Z+aM+3LucGpOeXkJ7XFdQoVsfrOAFpfNqQ3vmPE/rpR5KkF5Onlr8UpyCNTyfEL/SvyGxHen4J6XkFTw/GlbwCabzq58z6W+q1GluQJOn5bAdyLb81zqIfabw6hyuLHqQXkJCeV42eq3glfUjj13wuy6dSQ5KkF1KLU3kN85DGr4mcW74hIz2/hPSctrI1YkVcyCKk8SyxjLemwW28E0mSnsuXuID6YH4rSwik8ewoXsuKbbEN6bklpOfwbqZQr7OZVQTS+DYQp5YXbhrYiyRJz+URbhwYuZDTGEAa3wrWcNWE+rF8G+m5JKTn8CSP1YfP4jymIY1/09iaj2ylzUiS9GwfZiSVC8utTEUa/6Zx/u6zbqvfhfRcEtLPuZKRKGdwNUcgVUGdtfGaYnogSdKzBcU0Xsta6khVcER5dZ6ZYjvSz0tIP6egPpDO5wz6kSoh6ryZNbmxBUmSftqHyT2s58poIFVDP2dwfmsgI/28hPQsV9GssSLeGROQqiLFEfGmtKxgM5Ik/dg2MrGcK2MegVQRMcgvsoxiG9KzJaSfcTWJ+hGxhWUUSNUR/AKnNweRJOmnFFPYyMUEUnXUOIo3xZzMR5F+VkJ6lqKPl+TXUUeqlkZ+c2yArUiS9EM3ksmnclUkpGqp58vz2npPifSzEtJPuZpMuZJ3xACBVDGxNs5PC+EKJEm6iWcsj01xDFLVREzObx1Z0WIb0k9LSD8jpnI66wmk6gku5uweSiRJSpTEGZyLVEURZ8RpMQnpZySkn5LJ63gtdaRqOoKzh47vRZKkYdIqXs5cpGrq4Rc4AelnJKT/awvlTM5kNVJ1ncZ587kQSVJ3+xvOJTZxGlJ1nciZadp2pJ9ISD8lXprPISFV10zO2HH8DCRJ3W2Ym17Cy5mJVF09nF+e2iIj/VhC+j+uJs2OjXE8UrUdH6/tqb+VtyJJ6k4f5aM0enkdxyNV25r8ijR7O9KPJaR/8iYmkM/lDAKp2mZydnNtGSWSpO7UohUjGziTKUjVFnEG593Pp5B+JCH9kwaPz+c8jkaqvFiSrywHytiCJKn7bCNHHsxXxWKk6jua8+bP34v0IwmJq7maWkqXsg6pG0zmZZxMDUlSd6pxKicziNQN1rYupdjOdiRISD8UeQnnswCpO8zmrTEwzNVIkrrLR9gLA3kLs5G6wwI25SUE0jMS6npX8QS5yK+OJUjdoj9Oig29vUiSus5Ab2yIE+lD6hKxOP9CLjLbkBISg6k1h03MRuoeU8o3lBNKJEndpUVrQvkGpiB1j9lsYi4JiYS6XkHRKF7NEhJS9+iNM1hZNjYjSeoe24hGrIwz6EXqHoklvJoGEgl1uSsZinIWr2UKUjcJpnFpmhlIkrpHJs/MlzKNQOomU7ikmDI9Po66XUJdrqAxkM5hOXWk7lKP8ziqWWxGktQdtpFqcUycRx2pu9RZXp65s28YdbuEutqVXA+zeSMDSN0mmM3ZxZxAktQdMuURbGI2gdRtBsrLmfE4n0DdLaGultg8gQ2spY7UfYKL45g9bEWSVH3baATH5YsIpO7TYAPrp/YPo+6WUBfbShDzuJQaUnc6itMH5iBJ6gojC+LMmI/UlaI3v7E8YpiPo26WUHfriePidGpIXSngwrym5GokSdX2YQKO5zykblXLG1nV1zOCullCXesSnrEoX0QvUvc6jpOKyUiSKq85ibUsR+pa0ZsvGl7cYhvqXgl1rYKZsCxeSSB1rSBOK9eXXIUkqbq2E6T1nI7UzSLOiWWBullCXWsCDy3gdKYidbeT4sQvIEmqtgvgpHwSUnebxmksQF0soa4VpJXxSqRu18v6DasLJEnVVXLjCbE+epG6XH5FPi6j7pVQl9oKE1nL0UhaxxlIkiosiLNYj9T14phY15h4E+pWCXWv1byUhKR5vKQ55yokSdX0EdIcTmIukgpe2lxdom6VUFd6M5+OfFI+EUk/dFzt5QWSpGoqKV/OcUj6ofX5JfPio6g7JdSVCk45ivUxCUk/tJiNrb7NbEaSVC03ciO5L29kMZJ+aDLr71/eQt0poS70dkrSy2Mtkn6kl5VpfUQgSaqcYH2spBdJP7K6fNk+Po66UUJdqEljYpzCIiT92Py4ONdGuAJJUnVsI4haXMx8JP3Y4tgwMLGJulFCXaikdQrLkPQT0zgtz0gpIUmqlGAGpzENST+xeGR9E3WjhLrMFrYQxNksRdJPm1VsrNVqSJKqI4h6bGQWkn7aYs6EG7kRdZuEuk/k+axmMpJ+2hTOo4EkqUIyuZHPYwqSftrMWM80AnWdhLpP4gyOQNLP6mdtXpiLLUiSquEjFEUsZC39SPpZC+LUiEDdJqGushWIFK9kNpKebSpn0Y8kqSJKWv35LKYi6dnm5HNzyqjbJNRlomAJqxhA0rP1s4kBJEnVMcAF9CPp2SbF2jQvpe2ouyTUVTK5ns9mOpJ+Xp01sSTVtiJJGv9uolaLJaymgaSfNzufkesZdZeEushWMvRxDpOQ9PMiBnlZOSUjSRr/moxMyS9jEEnPZTLnRc8In0bdJKGukmqxOFbTi6TnUsvnMCNxBZKk8W0bz5iRz6GGpOfSz0uY11M8hbpJQt1lgHMYQNJzK2INi/bWEpKk8S7V4shYQ4Gk5zaxPLs1UKJuklDXuJJM7s8baCDp+dRZ0zOtQJI0vgVMZy11JD2f3tgYA8FNqHsk1EU2kaexjgaSnk/EyTE7eD2SpPHrw5SUc/LpBJKeTyOvZ9r5qJsk1DUKtk2KDTGRQNLzCU7K82eTkSSNZwnmcxKBpOcTMTHWf2RiibpHQt1kKhupIemFTOX4B2b0I0kavwqYEatiEEkvpCjPKqeUqHsk1CWuoIDpbKBA0guK9WlhQpI0fmXyQtYh6YXVOJ2ZTT6KukVCXaJOc4BjYjaBpBe2joV1ZiJJGp9+iUReyDokvbCII2JFz0ALdYuEukbM4aUEkl7MPJbt670QSdL4dBatPpYzD0kv7uQ8O6NukVBXuJyAIziNQNKLW1lblpAkjU9BHBOrkfTigpPz7MTvou6QUFdoUBYcyXIk7Y81+diMJGncWsEJSNofK1i4J1ag7pBQV0gUc+KYQNL+yMvzUYO8FknS+HMzu8hL8lIk7Y9aHN8/r0DdIaGuUFLOZxWS9ktELNg1ayKSpPFnD5NmxYJA0v7Jq8r5JeoOCXWBzQQxlxVI2l8LYlkgSRp/WrRWsAhJ+2sFc+FG1A0S6gojRV6UFyBpfy3Kx2YkSePSsSxG0v5awOJWDXWFhLpAUFvAskDSfjsyjhnil5EkjS8fJRPLOAJJ+29ZWoC6QkJdIIjFsQxJ+6/GgsbMXUiSxpeS+lwWUiBp/y2NRYG6QUJdIJMXswxJB2IOq5AkjTOZ8gTmIulALGUR6goJVd6bebJgMUcg6UDMS6sDSdL4ksnHMxdJB+IIjmzFNlR9CVVenUmLYhGSDswsVt7EG3kjkqTx4WZu5nw4hhlIOhDBotrCQNWXUBeI5SxA0oFp5IWvmN6IBpKk8WEf++Jj01lIA0kH5khWoC6QUOVl8lEcgaQDFFOKE4ookCSND02a0TyBKUg6UHPyooyqL6GKewsZFjEHSQdqUl6RIyNJGh8yOfIKJiHpQM1hMXwEVV1ClVefFHOpIelATeQYaPI+JEmdL7ObgGOYiKQD1cu8oh9VXkIV16K5jOlIOnCT4pjetIGJSJLGg0sZTLGCSUg6cDNaS0pUdTVUfUcxHUkHLpg+PPvL91MiSep4H4OU5zOdQNKBm56X8w1UcQlVXBDLmY6k0egvjy6LEklS52vSLForGEDSaExjOaq8hCrsjbyR68jLmIqk0ejnOAokSeNDwXH0I2k0pnMUqryEKqxBI66axlzqSBqNflZSIEkaH2qspA9Jo9ET8/snfJyPoypLqMISKdLRMRlJo9MXK8paP69EktTZ/oIBykY+mj4kjc7kfcuHYxhVWUIVFkTEciYgaXRqzM9Tf5BmIEnqbAVPFsxiDgWSRmdiPianjKosoQrL5MgLGUDSaDWKY/sbDSRJna2gVk9Loo6k0RrMS3NkVGUJVdb7aBIRSxlE0mjVWBT1QJLU8eosooak0RpkKVHwIVRdCVXWCMupp7yIASSNVp2jqCNJ6nCZXM9HUUfSaA1wZFk8TULVVUOVtZPHUp4Rk5E0ejUWUUeS1PkaHEUdSaMWUxrTex6gRJWVUGVlypQX0Iuk0atxJHUkSZ2vzmJqSBq93rwgp4yqK6HKyuQiL6UHSaNXxOw86XouR5LUuT7CHxATYzoJSaPXUy5tFS1UXQlVWcFyepE0Fn3Me3NPDUlSJ3tXTyyggaSx6GEJBaqwhKqsYAk9SBqLiIVFb0KS1LlKyv58FAlJY9HDQhKqsISqLLGQHiSNRWJx9CJJ6mCZsi8vJSFpLBp5UVkE/x5VVUIV9U6uI/Xl2dSQNBaJpfQhSepgQfTGfBKSxqLBgtR/BEtQVSVUUUO8pZbnRD+SxiaxgF4kSR0skxt5DoGkMYn+NPvBWoGqKqGKatGslXMokDQ2wRx6gjOQJHWmmwmiJ+YQSBqbopzTrLVQVSVUUUHUmEuBpLFJMSP3DlBDktSZMk2ilxkkJI1NkefmWkZVlVBFBVGLuRRIGqtGmra3WIIkqTMNMblgGg0kjVViOgWqrISqq8YcCiSNWZ7W7C2RJHWmFk/35VlIGrsipkURqKoSqqhMruW5FEgas5gSDSRJHaqk7GcWgaSxSnlWrmVUVQlVVy1mkpA0VsGM6AskSZ0poI/ZSBq7IuZGLVBVJVRRQRRMIyFp7GblPiRJHSv6mIWksSuYSw1VVkKVdAUFucEUEpLGLM+iPyNJ6lh9zEDS2KU8M/cEf4mqKaFKCh5NeRL9BJLGbhZ9SJI6Vw9TkTR2EX1M2hsJVVNClRQM1JhKIGnsIqZFTyBJ6li9TCOQNHYRk3vrBaqmhCopUTRiOoGkNsiTck9GktSZMrmRJyOpPSblWkbVlFAlBanOVAJJbRBToxFcgSSp89xMEPUYQFI7RAwWRYGqKaGqKpiApPYo6C2QJHWiYIjooUBSO0Se2qq3UDUlVElB1GICgaS2yH0fDSRJHWgPK4M+JLVH5GnUUUUlVEmZXDBIIKktYuBljRqSpM5TckcjDyCpPYKJ1FBFJVRVRR5EUrv0RyOQJHWeTO5lApLaZZACVVRCVVVjEoGk9hiIHiRJHSn6mYyk9oiYQA1VVA1VVZ1pBJLaoz81MpKkzhPQy0QktctgFKiiaqiSAupMJpDUHgNlD5KkDpShQR+S2iOYQIEqqoaqKmggqV0mRA+SpA4UUOQGktojmEgNVVQNVVWigaR26aWOJKkDlVBEHUntUiNQRdVQJWVINCKQ1B51CiRJHSigoI6kNskNEqqoGqquQFK7BJKkjpShiDqS2iOiQaCKqqGqCupIapdaLpAkdaCAGg0ktUlukFBF1VAlBSQaSGqTXKdAktSpAknt0iChikqoqhINAkntUadAktSBMjlRIKldCgJVVEJVFTSQ1CbRoECS1JkKGkhql4Qqq4aqKqghqV2KKJAkdaCAggJJ7RHRQ0IVlVAFXUFAIKl9AklS5woktUuNlLkZVVFClVSQ60hqnzoFkqTOVFBHUttEfR+qpoQqqUkMI6l9MpKkzpWR1DZ5uA9VU0IV9MdIarMmLSRJnalFE0ltdSaqooSqKjOCpHYZzq2MJKnzZHKLYSS1ywgZVVRCVVUyTEZSW+QRmkiSOlAQTUaQ1B45D+cyo2pKqLpKJLVLiSSpc5VIapdhSlRRCVVUzrSQ1C4lJZKkDpTJJSWS2iSGyKiiEqqkDGUeQlKbxDAtJEmdqcUwktqlFTlQNdVQVZUMI6ldRqKJJKkDBbRoIaldSjKqqBqqpIDMMJlAUjuM0EKS1KlKJLVHzsNkVFE1VFUlw0hql2FaSJI6UIaR2IekNolhSlRRNVRVJUNIapeR3EKS1IECRtiHpDbJQ5SoomqokjK02B0ZSe2xh2EkSR0oYDjvQVJ7ZB5jBFVUDVVSwAiPk5HUFvnJvBdJUgcKGOLpjKS2yOxkBFVUDVVShhF2RkZSW8QT7EGS1IFKGGYPktojs4sWqqiEKimIZjxJRlJb5N3DQyWSpM4TpH08haT2yOyiiSoqoapqsRtJ7fL0xcNNJEmdp87qPfEEktokdtNCFZVQJWVyK+8mI6ktYu/HCCRJnaeXf8jsRlJ7ZHZHK1A1JVRVzdiFpPYYYbjkj5EkdZ7TqZGHGUFSW8Su1AxUTQlVUiK1YhcZSW2Qd+eRjCSpM2XySH4aSe2Q2RXNQNWUUFWN8CQZSW0Qu2MkkCR1piCasQdJ7ZDZyQiqqIQqKUhNniAjaexyfiwPZSRJnSmT9+UfkJE0dpnH0giqqIQqaSdTms1HaCKpDeLh2BtIkjpTEHvjYSS1Q5Mnni7rqJoSqqSv8BixL++kRNLYPcweJEmdaw8PI2nsSnbmfXX6UDUlVEl30iJGeJAWksbu4bw3I0nqTJm8l4eRNHat/GAegVNRNdVQRQU0eYAWdSSNTc4P571IHW8Sn+OvGz2DaZCBcpCBGMyDMUgfDerUqFFQo5Zr0UMBtPJQNGnSpEWTJiMMszfvjt15d9rN0+XucnfeHSO/ijQO7OUhMoGksWnFA7kZqKpqqLqaPEgLSWMWD7EHqaO8nyhyf56QJzAhT4gJeUJMYMLHBnr76c/99Ec//QxEHwP00KBGQY2CgiIK/o+AFi1atGjSoskwQ/E0e+PpvIc9safYwx72XPs0u/Ku2MVT7C53pV35qb17i9a/QOocAft4FElj1+LBaKLKqqHqavIwJZLGKvNwa2+BdHh9nE8zo2hOLafGVKaUU5nMFCYzmckxmckxhclMoMaBKSh4MU12xRM8zhM8EU/wRDze90Q8ce1jPM7OeLz22A9ap3E20uGUyUPpcSSNXYsHaKLKqqGKylCyM0okjdVQ+cRg/jukw+FPmRi3DzKRCV+fMGnSyEyOjEUs4sg8L3o5NGpMYQqLeEbwQ0HeF/dzD/fme0bunfTI15+8dlfeFU8t3/1Ufj3SoddicGTv49EiIWlsyvwgTVRZNVRRAU0eoYWkscn5sRjey9eRDp3foYyilgaj/4HBh6azjKNZylKOZBL/R3A4RS9LWMKPPMm93MmdfOe7d+RHr9kde8pdI82CX0M6VC7mRtiVH48ZBJLGohUP0kSVVUMVFTCS76aJpLEpuZ8hpEPi/UQq67mHeh5kAetYxdq8mF4CiAg6UExiFSsDyHu5i1v5WnypcV/suWYoD/U2W/ldSAdfwD7uYRoFksaimR4qmiWqqhqqqD1Mb+56IIYCSWNSxn3sQzqIruUZiYKiTDGTY1nD2jiOmRTUKCjodEHwQwMcG0fzmmjlB/kq/xBfGrm93H1tSavRauQWb0c6iPZxH2sokDQWu2sPfLv1ClRVNVRRj9NPDMf9zKGGpNHL7GAfUtu9j5XcRQRkooclHM9qVucjmUAPPTRIjD8FBQ2IfubHRobKR/kGX+bL+Rv7nhour4G8g+m8D6ndMuxjR2QkjcUw3x8ZWczRqKpqqKK2s5VocgfHMYik0Su5I/Yitd37+D2YxtGsYiXHMIMJDDJInWD8K+ijD2ImiziTp4afjNvjq3yFr5/26IeQ2i9giB2USBqLYXbkVhCoqmqoykruYYhBJI1eGffEPqQ2ej9EzG2dyCkcwyymMpWJBFWUGGCA2QEr4nR25kd2fPekL77kS9zxbqQ228cOSiSNxRD3UqIKq6HKytCKHQwjaQzycNz/X4bejtQO7yeK1ozWibGGY1jKEibRLQYYYH7AyZzB3fmOa74WX+V2ht+N1A6ZvC/uZSj6kTR6w7GDFqqwGqqyMt8bQ0gavZIflE9t4T8hjc37qae9s5vHxoo4NlaxgkGCbjSB4ziO4biT2/JtfOea78RdPPVupLH5NGfk8nEeZSIFkkZrH3fSQhVWQ5UV0GIHw0gavWbsYARp1K7lGcHc1qJyaVqV18dxTKbrRYMVrADujK/wVW6/9t78PX7wHqTRupbTiRF2sJACSaM1FHdFmVF11VBl1Ymy+XDryUDSqDW5mxGkUdjMS3mozuw8O+azllNZxaRAPxGwlKVcwsN8Kb4QX7/2ER5sPjSn+Rn+G9IojHA3G2ggaZTyU/GDT5e/g6qrhirrP7EVhmIHx9GHpNEZ4buMIB2g3ydSc/CRmcVSXs7LWEEj0POaxSY25WG+xd8Wn3zkzmMe+fdP5/JdSAciwwjfjREkjdZevtfMGwhUXTVUbZk72U0fkkZnJG5nGGm/Za4hNZp9aTanxSVsoDcSgV5cgxNYxdvic/xZ6zPlQ9fsLYd/hUDaPwUMc3s5gqTR2hV3kFGl1VC1Ze5gNzOQNDojzTuawwnpxf0OEPHvavWe1jpelTeyMGrU0f4LihjgzHwqO+Lj+S8bt/y7od9t5gy/jvTiYri8gxEkjdZTcRsZVVoNVVhA5s68C0mjU+ZH45H+cg/SC3s/QWakyJM5v3lJrIyp9FGg0ahTZxlHxEXNb8T/5qbiiXrr98n8MtILGy6LR/KjMYuEpNF4qryNElVaDVVYCZk7YheSRmcv346RJv8D6cVEvVySXsUrODJm0ovGpmCQwZjJymJzfKz8y3Q3I0gv6Dy2wUjcxVL6kDQKeVfzjsio0mqowkrI+ZHa/TSpIenA7Y1v0kJ6QdfA5Nb61ivipFjEHBJql14WxBEsyee2/oGP/t6X48n3ID2/DCXfjdPoQ9KBa/LQml2fQ9VWQxX2h8DWFvfyJNOQdOD2xndoIT2va2BxvJQNHM9RTEXtl5jHPI5hQ/oKn73mc3zvPUjPq8Vt7EXSaDzJjm/welRtNVR9d7KTaUg6cHvLb9NCeg7XQGIpG+JUTmExdXQwTeNk1nBafCF//trPcRflu5GeLaDJ19iDpNHYGXeiyquh6ruNH3AUkg5U5pHhHc0ykH7WNVBnEas5i1cyj4QOhR6OYwXncFO+Ob5y7T2MvBvpWUruyg/HUgJJB+oHcRuqvBqquAzfiUeQdOB2cXvP3p58HdJPXAs9zMnHsYmLYjoJHUop5rOFi/krtudvXvMgQ+9B+rFNbMvsjdtZxUQkHaiHat8pUdXVUMUdw9d3Nh4iE0g6ME/m28hI/9e10JunxbG8Ki5mBoEOhxQz2crF8Zf5L/jm//N4DP0K0o9kyNwWTzIRSQdmON/32M5LUdXVUMU9RZ18dzzIXCQdmCe5jYz0T95P1Ef60/p4I69kOhDo8AlmcHVclG+MD8RXf39PHvllpH/y/7MHH3B2FWT+h7/vOfdOSe8NEghSRYr0jqCEkGQGF1FBRREW6+qCjf3o6rr+cRUyFEFdSUMQgVAUCGAKIUBoCemBJKT33jPtzr3nvP+wrqtigElyk8y55/c8zhy20RsR2T1rbWlbpPRlkBL3Y74E81lBL0Rk92wJZ7kjqXc74EFUFn7IrmEgPclgyIFmQHf7ovX3p31E/MZtTRbDDUi6ZcCZFW1BRHbXahaDIaUug5Q8g0W+GhHZPQVf0W7NdkdS7Wby1NEqQx++FFfbIVQQIC2FkeVg+0L8EZ5gqC+vL9xElhuR9DLwg9YsXWsxASKyO1YyH0mBDFLyArJvNS5FRHbPJlu41Ycg6eY8zWXd4s/ySTuSDoRISxPQiiP55/h8Hin//ZPrByBpdgkwym0eG+iOiOyO5eHCGCl9GaTkdWBDwRbZBroiIs23xmciKTcYul52MZdzIr0JkJYqpAud6GXnXfooY2o2fgdJM4cZtobuiEjzbWBxIapASl8GKXk/4zpYyDy6IiLN5qt9hiHpdQteyZl8ws7nGAKkpQs4hN4c7mf5Yze/ag3fQ1JsJqs5ERFpvrdsIfRDSl+ApIBhi5iPiDRfxLL8UkfS6Xqc4EPBV/mRfZFjCZBkCPiQfdF+FHw1OLYGSa94KcuIEJHmm8sCQ9Igg6RARLSibCEi0nyrbF55PARJn8FgHDz4jOBS+xjdkaSptPM5mhP8D4Mnsxb/LpI21YyKmMcq+iAizTU/Xm5IGmSQFBjOl3IsZjW9EJHmWexvIqlzK27Wmg/6x/ksfZCk6s5VnG2/sz8xp6bO/NtIuji8aYvpg4g0z0qWWqEKSYMASYuVvIGINNdin+tImjzCDwjKONQv9V/ybeuDJJnZB/i+/9Iv5VDP1iDpYthcFiMizTXTVziSDgGSCo6vYBYi0jx5FjetrkDSo4ZlYaeO8dn81IdyCmVI8pVxig/lJjsjaDc4rEHSI6RptS/yJkSkeWbaCkPSIUBSwShb6TM8QkSaYx5vVWBIOvyYc4iNo+MfxPfzCavEkNJgVsnl8f3Rd+0DefsYP0bSogybb28hIs3gsb/Zb3WApEOApESTs4w3EZHmmO3znLuQNLiVnpwa2MXcbF+xnpQhpaXMDrbruTW8+ISgJ7ciaTAAw+YxGxFpBnvDlo8hQNIhQFJhCDut4TUcEXkfjs9uWFBA0qK2R68f2C1cSGsMKT0Bbfio3dLjB7U9kJQIqVhgbyIi7895jTXGJUg6ZJCUcHxt8IpfZ4jI+1jJwra5DUjpq4HQL+Rqu5BuBEjpqrRj6epHc0/NBKLvIKWugq25zFI20wkReR/2crDWkbTIICkR0aqu6S1bTzcMEXkv01ha4FGktN1B1nId46u4jFNohZS6gB5cSi+ODB785daCX4+Usgt4El/ODLsQEXkvzmp/q7auA5IWAZIS95DHNjGDCBF5TzbVlhtS2gbTVFF/cnwj3+JsWiHp0Jpz+Hb8bw0nN1UMRkreEpuMiLy3yCf7hgr6IWkRIKnh+FZ/iQgReS9NzDt5fYiUshqsUzDAbuQG+hAi6ZHhMG6wG4NLrGMNUsqMcA2zaEJE3kvE82xBUiSDpIbj24JXqKMMQ0R2zZnHiqkMQUrVTayxuGfwcb7CcUgaZbmcI+juT965Ju/fRkpTFU/GLGWeHYchIrvm1Nlk2+5IegRIagwjbLK3mEMBEXl341mFlKzbaJM99Ijgm/wHxyHpdQI/tm/kjoyzg5FSZdgqG4+IvLuCz/EVcVSFpEeApEsdY2hERN6F5+Lnc2sKSGmqIa6ITrKfcgPdkHTrzre4iZO94hakNMVEa/0FcojIu2m0MVZnSJpkkBSJ8VobY1+3tojIrkT2pi2syOeRUnMzERVWUVH/T349JxEiUmb/xCF+W/DHO5pCd76JlJqgiYX+pp1IiIjsSq39iVokVQIkRZyKgi2yN8ghIrtS4Dk2OyOQ0nIbERkrdKz/CTfxYUJE3hby4eD/8X06xmbchpSWSwkINtlzFBCRXcn5m74kX0BSJUBSZDh5rIHn2I6I7EoTo22zIaWnVRD2Ce7g8xxCBpG/yNCX6wp3FPpEAVJyHN/MGJoQkV3Zbs/RkGEQkiYBkiqON/lotiIi/yjvM1mQbwqQ0lJDnC2c5IO5lK4EiPytkB5c6oMLJ8XZGqS0RIRNLGAOeUTkH20N/hQ2hUi6BEiqxMSRz/d55BCRd2rgWd8e8t9IKamBNn6R/4Rq2mGIvJPRjmr/iV9EmxqklHycCLbzHI2IyDs18EYwvzwqQ9IlQFJlOAHWyDjWISLv4Dt8dFwfI6VkMHEnqu1Gu4RyRN5NuV1iN1IddxqMlBLH6/xptiMi77SO0YVcPR9D0iVA0idmDMsQkb/XyEybE+SHI6VjMPSyT3M95yHyfs7jevs0vQYjpaMa8szyGTQiIn9veTgujEMkbTJIygwFv3f+y9M5nvaIyF9t4hFySMn4Omew/hC/iqv5ACLNcap1orP97nfLXuNXSMlo4lFO5CBE5K+2+vTCkmokfTJICr0M4ziHkxCR/+Oro9GeR0rCHeyUWXuYXc+n6IxIc32A673X2tsPX3x7BDcgJaGJMXyNgxCRv5rP00gqBUg6TWQeIvJXm5gYbowdKQE300A+Gx9rg/k8nRHZHZ35vA2Oj/SMcTtSEtw2MJFNiMhfza18MYukUYCk0zYmsggR+YvlwR+DqIJ7kKS7mRMJyvxD8e1cRGtEdldrLvK7OCrObqMGSbpqDGKeZiUi8heLeK0hZ0gaBUgKDcGJX2QmIvJnBebvmNTgDUjS3QxMz9pxwS85g0pE9kQrzozvjI9vk4UaJOlCwjjzCvMoICJ/NpMXjf5IGgVIKjVy/1ymUYeIvG0x49vk7+M+JPmiTHBScBsnU4nInmrFmX6rn2RZJPEGMIB8oz/LYkTkbfVMP21uFkmnAEml33GV+2SmIiJvm+N/ciT5fk5TJnt6cBNnUo7I3qi0s7gpPj3I1CDJFxCMZg4i8rYpTJrs/ZF0CpD0muITERFY55MqVhaQpPsZjWHF2fYDLiSLyN7K2gV8Pzo7DGuQpKtky0omsQ4RgYlMQVIrQFIqxLfwus9HJPV8Ks81cg+SbD+jMWx9nn2H/gSIFENo/fl24bwwvBVJto/SASYwFRGZz+tsQVIrQFLqN4DPZiwiKec5pkQzHEm2n5EP25xrNzAIQ6RYzAZxQ+Fcwhok2TJUTmcKOUTSbqzPdqqQtAqQ1Cowdwkvsg2RVLMZTA6bhiFJNphMWHmGfZdBiBSX2SC+62fG4WAkyS6hoYnJzEAk3bbZC8csySLpFSCp9VuOdZvLeByRNHshmBIgyXUnd1IWcrz9OxdjiBSb2cX8wI4vC+/kTiS5AsIpvIBImjnjfd48vwRJrwBJsZhoqY+iCZHU8uXxpLJ185CkugOnkCkczk1cQIjIvhByATcVDi+EMbcjSdWbunU+yZchkl5NjPKljqRZgKRaWMvrPo0IkbR6ymbleAFJptuIiDLeN77VzqcckX2l3M6Pa/zgOMxzG5JMx1EGs+xpRNIq8mn+OrVIqgVIig0jxldyL3lEUsnX+5ihCxuQZPoVThjEvePb7XxaI7IvtbbzvMZ7ZwPnV0gSGRmqFjKadYikU97utZVGNZJmAZJy67cxwWdTQCR9nD/aG9fxOySZsqwm7sPP7HzaILKvtaWf/9z7rCaLJNNAnoK5PI0jkj4Fn+0T2m1DUi5AUm0YPbC1NpJ6RNLG2eFPNqwoIEnVSI++8Q8YQGtE9j2jLQPiH/Tom0OSKiZa4U+yA0ckbeq4nzXbqELSLUBSzvE6f4plRIikS4Fng7mt8vcgyTSYxr58jctpgyGyPxhtuJyvNvQdjCTTW5TnbBbPUkAkXQq+wJ4O6gxJuwBJuaFYZCsYxTZE0qXW74/XOZJMNViv4DN2FR0wRPYXo4NdFVxpvWqQJPoeBVjH/dQiki5b7QlWe1yFpF2ApJ7jOR/JMhyR9MgxKX6tff1UJIkG4x24jKvpjsj+1oMv8nHa1SBJtIKK+vg1JpFDJE1WhI+FTSEiAZJ6Q7HI5jCWjYikxxZGhFt3MA1JnsFQxkCu4XBEDoTDuZpLKKtBkudr5Mhstd+yBZH02OBjCgsK0QBEAkSIiaP4t8xFJC0afUphTEXDEiR5bqcstLP5Zz6MyIFyKl/mnDgcjCRPWwY2BGN9Cg2IpMUbDCNCZKcMIm/zcF481j7AQYikwUruDhsa6IAky22AB4Vj+Z6dj8iB9BFytimefXMMNyJJEjOKuDa424/mcETSYIWPZhEi/yNAhGEMo0D8e5+CSBrs8Jd5ljw8giTJnXTAAj/Yf8L5GCIHknE+P7aDw6AvdyJJcgEGeZ5lIjsQSQGfmnkopJpqRCBA5H91WsozzEek9C3wIZ5zhiLJ4tQZHf2nfIRKRA60SvuI3RR2XGeOJMsgdsrZcBYiUvrm86dVywNE/ixA5H8MZxv2JC8gUuo28qxPwZHEaaKxTeF7XEx7RFqCDta/8L3GNk1IArm97s+zGZFS93zwRA8uQeTPAkT+V4bCWp5lFiKlbYY/EDQNYxiSLDVYG7vUrqAzIi1FZ7vCLrU2NUiyDGIQcZM97LMRKW3TGZtbV4bIXwSI/K9fk8Um8DQRIqVrlY9dN6uAJE0NluUE/ya9CBBpKQJ6+Tc5wbI1SNIEZKcymlWIlK6IZ/z5LBcj8hcBIv/nbuINPtZfRaRk+Yv+ZHe/B0mW/+JIoiP8a3YSGURakoyd5F+LjjiS/0KSZSBNef7Ii4iUrtd41jZVI/JXASJ/bzqPUI9ISfLFjM2+lUOSJsO8PvYFPkmISEsT8kn7wrw+GSRpKsi/xVgWI1Ka6nk4mG6I/K0Akb8xFLbxor+II1J63J7yCQXuQ5LlNrIdg0/YtZZFpAWyrF1rl4btapBk6UcZTOApHJHS4z7RX4y2DULkbwWI/B0nns+97MARKTXzGFu2bAWSLDXEmegSrqUzIi1VZ7sm7p/N3Ioky1ZsmY/1eYiUGvctNiL7VojI3wsQeYew3ibxJwqIlJaI39vrEW2RJLmFznAOn+dYRFqyE+3zhTM+wi1IkpRjhK8HDxAhUlry/MFfyzcg8g4BIn9nGDHRKv8N64kRKR3uL/u4aD08giTHYGDDIVxDP0Rauovja8cfAoOR5PgUEK338UzBESkd7htteHZ1yEBE/l6AyDvElDfxBvdQh0ipcK/3X8eznbuRhMkEX2MghkhLl7Eq+6plkEQZCPgb/muvwxEpFbU2wubnCwEi7xQg8g4jaMI3+71MpwmR0pDnXl7NNkRI0tinGUAnRJKgsw3g00jCxJTt4AW7jzwipaHJZ4S/rdhaziWIvFOIyD+YxslOLZs4z9ojknyRz+fHtsDjEUhy3MrFgR3PjZxMiEgydLL2Nrnfln4+FkmKh/g0VsdazqUTASLJt8L+w6cWCgMQ+UcBIrtQoJCPx/MEmxFJPN/Gr5hHYSiSHHdSYUHb+OucQhaRpMhyCl8L25bbL5DkqIIC8/i1b0Mk+Tbyh8z4snwWkV0JENmFe8h6WGvDmEoBkWSr5Rl7LKwLkCTJUV9RuJwq2iOSJJ34RHR5riKPJElEvi7+g42lFpFkKzAtHOF1kfdHZFdCRHZpKlM5eR0Bx9AVkeSKeZP/ZJHHQ5DkqMGy9iF+Yn0JEEmWSvowiY394rFIUjzEVQQ5W8dpdMcQSa63/DfxuEH8HpFdCxB5VwXyj/pYahFJrjX+GJMpDEWS4xdshx5cZx8kg0jSZDmW67xHBTcjyTEIL/jLPMIaRJKr1sdUPJJF5N0FiLyrEWTr7CEmIJJUjf6CDbHIkOQ4F6d9Oy70z1KBSBJV+Ge5sKFdgCRJSBhlhvICjYgk1QRGNtZfgsi7CxB5D62pf80f9QWIJNMkhsUbkUQZwEqLT+K71gqRhLJW9m074TvcjCRLbiPDmIxIMi2wx9a91heR9xIg8h46UYE9yf2eRyR5lvvj4QRjCEOQpLiNkO6H8ymOIUAkqQKO9Strjgi5GUmKAQwgpH6C/4k1iCRPnvvDJ7rxIUTeS4DIe/ghAb7VnrEnEUkYx0fZ7yOGIslSnrVz7EoCRJIssCs5N5dFEqWK1oT38xQiyfMYoxq3lmGIvJcAkfc0hJCyGTzgyxBJFBvPH+MNAZIsEU1n8Vk6IJJ0HfhM2VkBkiwZtq7kYcYjkizLGcmsDJcg8t4CRN7Hb8gV/GWGeAGR5FjjD/OycTeSJDVYNxvAOYiUADvHBli3GiRJ+tMOe9kfZjUiyVHgbnvVoipE3k+AyPsK2LaOx3maAiJJ8SBjaByKJMkT7ID+VFOOSCkop8r77+BhJEmqiBt8jD+II5IMBZ62x+esyyDy/gJE3tfdtIcl/JrZFBBp+ZxR/J5lAZIsC2h7PJdxNCKl4hi7tN2xK5BkiWm9zB7gKRyRlq/AbH7tS46hPyLvL0SkGaZxcoF11NvJtMMQackiZvL/gikW3Y0kSQ209m/YpbRCpHR0ohBP7tc0DkmOh/gkbGYtx9GNAJGWzFnDYB9NfTUizREg0ixDoZaH/FE2I9KSxazhTl6Pm+5GEudC608XREpJdwba+YYkSxWWs8l2F+uJEWnJNvMoD1ltNSLNEyDSTDFxQzzYn6MOkZZrK7/nCbYPQZLkDu6wTCeu5WhESs0R9rlMpzvsDiRJBuHb/QkeYzsiLVedP+c3e4Mj0lwBIs0X2zr/GVNwRFqmel7mdrYiiXIzAfls4TJOpAyRUtOKMwuXRdl1/BJJkoj81vhmJlKPSMvkPiX8abDeY0SaLUCkmYZjEPtMfsNMRFqiiFn8kE04kihGg3ln/yIHIVKKDvJrrEsPKyBJ4nSOg7X2I+bgiLREM/lNMNviDNWINFeISLNNYxqnOvPpyNG0RaSlmcuPeY08DEGS4+cEWGu71qppg0gpCqwyro1mxPmLGYskxUgux2I222qOpxsiLc0Shvl9caGKBxBpvgCR3TIEmhjBw9Qj0rIs8/sZTxMMQZLEyQXe275AR0RKVUf7vPWxAEmUQezUZM/6/SxDpGWp5zHuC3LViOyeAJHdt4YRPIZIS7KFx+1e6ocwBEmWLBWdgqvoS4hIqQrpy+fohCTMIAZBfXgvj7MFkZbkMe5lYxUiuytAZDcNYac3GMEYRFoKZwzDWTMESZrBxBmO5goqECllFVzBMUHmViRpBuJrbDhjcERaCB/DiOBNRPZAgMhuGwLOJEYwH5GW4UVGMBtJJOvln+YQAkRKWcAhfCru5Ujy9GXHbEbwIiItgs+xYeEkvAqR3RcgsgeG4A3+PEPYgCNyoM1lCC/CECRpaggydqJ9kgCRUhdwOSeSqUGS5lhaE73IEOYicqA5G4Ih9kLcMBCRPREgskeGYut5iJHU4ogcSOu4m7HkhiBJ5IdRRXcMkVJn9KCKw5AEqibMMZa7WYfIgeTUMtIf9Q2DENkzASJ7KM9nV3kN46lD5EBxtjCcx9g4BEmewfw3fJhqRNJikJ34He5CkqcKNvIYw9mCI3Kg1PtzXtN9VYzIngoR2UMnMYu4lql2HD3JIrL/ObX+AHew0piKJM2bzOfUY+wLnI1IWrRhS7+34s0n8jKSNJ+B7SygPcdQhiGy/9XzCjf4slqHhxDZMwEie2gEzobIlvAdn0wTIvtfvY+1WzqtzDAESZ6J7MDOpQqRNLmEsyvpiCRPFW04dWVmMGOoR2T/a/LJfMsW74jgUkT2VIjIHpvOR7DYt/ibfMj6ILJ/NfjzfqMvbYiHIMnzMBupOJarOB2RNGlPXeGtcMNZPI8kzb1ciNUyPT7SDiaLyH7lr/Hd4A0rVFCNyJ4LENkLQygQ5eNp/jOfhMj+1OgT/QcsJBqGJFEVDfhHuQCRtLnAL8yyFUmiAeSjaBH/zmSaENmfXuOnTI/zMYMQ2RshIntlOtM5OfaVttkO4SBE9o+YV+Mf5aaMj9exEUmizmSP8Gs4HZG0aUttPKP95rFIEvWnzis2BMs5koMIENkvfJLdFowlV82DiOydEJG9No1TCr7MaulNL0T2Peclfv7MhI7eg1eQZLoI/wKX0QGR9GnDZl4biyTR41wNnl+eXUNvDsEQ2ed8Knf5KOqrEdl7ISJFMI1Tm4JlXk9fuiOyr73it5U//QF/kPlIMt1G0Mf/hdMQSaMO5O3li7eNRZJoJCP5il+4cMFW600fRPYxn80vg8dtezUixRAiUhRT+XAjK6i3o+mEyL70OrfnH4/iYUhyXYR/nmo6IpJOZWxm8lgkqe7lVOIFwQ760guRfcjn2l32RzZXIVIcISJFMo2T61lOgx1DOwyRfWO631J4IswPR5Lqdvpb0CH+NzuJAJF0autB+Ez/XH/GIMn0IJ/zYKFv5Wi6IbJvxCy3Gh5hUxUixRIgUjRDsfX2O+5iHTEixec+338aPxnmhiPJlScf5i+wIwkRSauMHRV9pBAWkOQahOeCJ/kp83FEii9mrd/pj/rmKkSKJ0CkqOJNfo/fzXockeKKWMkP4zHWiCTYrWQJKu1KeiCSZt3tE1bpDEaSzOuCUfzQVxIhUlzOOn5p9wSbECmqAJEiGoLhW+xO7mQNIsVUYEl8QzyaWhiGJFmctRPtNFojkmZtOMdPsCySYIOAulofzbd9JREixbSGu/hvtjrViBRTiEhRTeMUyPEGDRxDe0SKo8A8/ybPx7XGcCS5bsOhLd/gTMoRSbfQCjbRch/lWSSpHuAqrIkVzOUU64ghUhzL/XYbxja8CpHiChApsiHgbOVefu7zECmGgk+Lr49fKtTiw5FkKwush19Ca0TSrrVfEvdsCpBEqyb2eIeP5wZmEiFSDPPs59zrW92rECm2EJGim8pUTm5gMVusNz0R2TuN/jw/aZpYyMXchyTbx4ja+yetmnJE0s6snOXhXGschyTZQ3yOIG8rWMxhHESAyN6Zzi/sUdtcxYOIFF+IyD4xlZMaWMJm68XBiOy5Okb7LR1fzBYqGYok26/JYQfxI+tDgIgE1jEc3bDlX3gYSbIH+DReiJeGK+lBH0JE9twk7uRxtlQhsm9kENlHhnLtVn8i08Q3OBuRPbOdp/ll8MpgpBTUEbTmNDueDCICGU7wk1uvWVqPJNylwMTCOaNHReTsY1Qgsmde5874Kdtejci+EiKyz0zntFyw1Nf6wdYbQ2R3bfQn/C6fNBQpDf3gUPsaxxEgIm8LyPtUNo9Fku8ejqHd4sJq60JvyhDZXRGvcHv8J9tejci+EyKyD03lxHy8zJbQ17qTQWR3bPCR3GEzhyGl4RYqiU7kBtpiiMjbjK6ML19yAeOQ5HuUr7J5WdkSunAQFYjsjgZesh9nxlt9FSL7UoDIPjWMTGP4QvAtJrANR6R5nPV+LzXMHYqUCqOhk59ETwwR+TOjp5/U0MmQ0nAWecon+494hA04Is3jbGdC8K3MS54biMi+FSCyz+XzPp2vMopNOCLvL2a9/4IaliEl4x4gOMwuRET+jl0YHAYjkNKQJYS3/Ed+J+uIEXl/zlYfbf9ibxQKiOxzASL72N2EZKJoReEGH8oqRN5PxFL/Dv9t62EoUip2kIPDOQcR+Tt+Nh9ooA4pDZ/iQiBeZ7+yG1lKhMj72egP8a8sz0QBAxDZ10JE9rmpvM4pHtQzlU18wLoi8u4KPt2/zbNsdx+GlI4LyfSxyzkfEfk7Vs7S7Jxox1ikVDzI57AcS2wWR9OdAJF3t4KhfnOwIYhjBiKy74WI7BfTmMbJjSy0JfTgUER2rYGx/v14ktc7w5FS0g/O5YvWExF5pwxzWDgWKR0P8BloYhUz6E5vsojskk+ym3nANlbxAA8gsj+EiOw30zgtZ8t9IZUcRYDIO23ykXZL/TTyMb9FSkkNYcg/2RUEiMg7dWVe9NrF8TikdDzAlVBgNXO8zA6lFSL/wB+nhmfZUo3I/pNBZD/6DdfWxy9lt7ORK+iEyN+a5yP9IZ/3e6T0ONHRdiIZROQflXFicDRvICWlip3iUTPtdtZxJUcg8re28wjDmEZTNSL7U4jIfjWd0+KGNeFbNFpXumCI/A+fzN32gC0ZipSifjDQPklnRGRXyljMjHFI6XmQKzexkC3WhYMR+TNnNffYr/rOqosGIrJ/hYjsZ1OZxclbmMk260RPQkTyTOS2+Ak2DkVK0S0UwvBz1p8AEdmV9iwuf/ajjEVKz4Ncud3nsco60pMshqRdnhl+H7/y5edyPyL7W4jIATCNUxttji2iB90pR9LMqfUJ/p/R89QPR0rTRQQfDD7N0YjIrgW2vjCVzeOQUvQgVzTFi2y2daAHrTAkzXb4S3a73W9bqxE5EEJEDoipnBKx3CZ5N+tOKwIknSLWMc5vbJoVFkYgpaofVm2D6IKIvJuI5cwch5Smh/h4fPraVS8FrTiYtgRIOkWs5xn7Aa/QVIXIgREgcuDE8aKm6/1XLCRC0ijvC/lF/PVoYbsYKVk1xHAShyAi7+4wToupQUpVSG98g//Eb/K55JE0KrDIf5X5ps0jQuSACRE5QKZyLBHkcq9lV3EQBxsYkh5OHc8F/8bj8Y4Gj7kHKVX9CA62azgKEXl3WdsWTGD7WKQ0PQJ8FvLMZYb1ohdZDEkRj3iJmyrupT7wkIGIHCgZRA6Y+9jJr2vyp4Il/DOfpS2SHiu5Nx6aWUtThgeRUuZwjh2EiLy3g/wcHkJKWDVPQiOTgm/E13IVvZH0qLP7fChzGnPViBxYISIH2DROKwQb4+ks5iDriaTDaP+5jTxizRvRA0xFSls/41/sbMoRkfdSTi1Pj0NK2YM8yFeivls3zrJ5tPPDDUmFafyX38Mi8tWIHGiGSAvQnSvZ0S44g0/xGatEStsav59HeZO6oUipqwGjK3/gbETk/bzMZWzAv4OUuqew1vGx/im+YF2QkuYN9gAP+2sV28dSg8iBFyLSAtTxGqfkWMFbrKGPtSdASpIXeIVfxr/bMC/TdA9S+i6CDBfYZXRCRN5Pjlksxscipe4BPpdvvTo/z9bSzntZgJSmAgu5w+4Npln9JbyCSEsQItJCTOOsqNWGaJZvtDK6U4GUGmcLf/AhPGkbH2QmkgYXY1n7MmdQiYi8H2M7E4jGIqXv99zLlduYwyrcelOBIaVmO+O5O7gvXOXRIERaCkOkRfkSGGfwWQZwCAFSOhp5i6f8HpYSDUXS4b/4PoPb2mhOJ0RE3k/EJOt/3I65/CuSDk9D6If6FxnEUVQgpaPAEv5kI3kVH4RIS2KItDjXQOfwSruc4+iElII8G3jdR1Y8ki3AbUha3AIhRwSjOQQRaY7l9Gc+0XeQtJgD7Mis/yRXcjpdCJBSsIkZ/qCNpLYKkZYmg0iLMwI2XfdLf4FrqLaeVCLJtt3n8LA9ZGvuQtLFoIxzaIWINE+ln81SGpDU+CA7FZ56kJfiq+0TfIA2SLI1soY/cI+9WYVISxQg0gL9mFrazC78wL/mE9hKhCRVjpU+Iv7S0Dsya5GUcQwrtzOpRESap9LOtHLDkbTxle1/6l9mJOvJI0kVs40X7V+C//A3F+CItESGSAv1RSKymaAbA+0G+lKOIckSe6M9678sTAprK+O7kLR5jOl07lEYY8cSIiLNUfA3M/03rf0wn0DS5QWW0DmM29v5/KudTjmGJIvTxGru4lFbE0TuAxFpmQyRFuw6CGhth/rV9jm6IUmSZ77fznhfPazpSh5E0ucWKLPT7XE6ISLNtcn/ySfR9D0kff5IwcrKrY9VcT09CZEE8c32mA1lvu8grkKk5QoRacGmMc1PbmIjs+11OtOLLJIMq/2//WdMtA1WmMYbSBpdjLW1aj5GGSLSXM4ce9Ny45D0GckjfKbgW3jLXvGQQ60CSYY6H89/2Miy+Rc2bPGLEGnJMoi0cEP5SsxqNsYrOJOPcw6tkZZtM8/6g0yx1cRDkfRyaMOZlkVEmi9jZ/AY25CUqob4yU3+IqttDJdxAZ2Qli1mCg/ZeJtPY54KRFo6QyQhvoy1jT/oF9gAziCLtEzb/FV7hhdXza6I4TEkvYawhfBoRtObABFprpilNjCa14EvIek1HgiytcdyHv05g45IS/WWP8OfbBqbqhBJhgwiCXE37LhuEvN9Gv3sI5xIiLQs25jiL/q4/PSg8Wkk7bYTZulDDwJEpPkCDvI+tmh7Hkmxj7JT/pkZNj963T/GRzmVVkjLErOClxjHs6yqQiQ5MogkyFDYct1YJvlrVNlpHEYZ0hI4dbzhL/kTPp263yICDu05wUJEZPeEHMdUNiGpNwDqn3o1mO0v+WWcxbGUIy1DxHqm+7PBH9qvaIj7IZIkGUQSZiif31Z4rGJc5nIu5UP0pAI5kJxaFvlkRvKa1Q9D5P90sBMwRGT3GB+0dmxCZKdBUPvUBHudj/oVHE9fKpEDK2Yrb/Js8JAt9sK5iCRNBpHEuQ/8S9sYzh/5OJ/iODpRgRwITgMreSW+j4kUhiHyF70xaMsxGCKye8w/SDtE/s8gHqxtfKLtuLKL7bOcSE8qMeRAKFDLcp61EcxxH4hIEgWIJNcW+210lX+P59lMDtm/nEZf7U/6NzZ/2V8oLwzjx4j8xdcxvKMfQYCI7B6zo6wD3I7IX4SUE9TzRNPn/RuMYjWNOLJ/5dnOHO7m6m7f9Tk4IglliCTYtbhlMnFnO8u+wAVUkkH2h5jItzHGf5ufXNbwQP544FVE/qoGKrmCEYjIHrDPZR+Jmm5A5K9GAjGts1FleIZdTT/akcGQfc+JyPtUe4gxrPR8XXQFhkhSGSIJdw2xZcvpyoe5xj5Ga2Rfi1jBH/iDz4+3H5H7OVsReadb4WD/Ov+GiOwB+xm/YtW3EXmnn/AxNpRnOvqH/Ar+iQ4EyL7l1DLWHvRpvsEaiKoQSbYMIgk3AvyLjfHKzMZgLif6J+0iOiD7ShNzeczHscw2Wn44IrsWQ2c7EhHZI36Ud2EVIv/gR/wIcqPWstkW8LB/nE/QFUP2lZU+ilE2P1gTNsR+CSLJl0GkBNwD/pUGFvoKf5PfcxaXcAwZpLh2+FR7hldYZBuIhiDy7gy6cBQismeOsi6IvKsqaBq1jFUstCf8NO9nJ9IGKa4Cb/I0E5kfLfdCnssQKQ2GSIn5Ehzsx9lJnMOpdEaKwtfwGhOZYm+yGYYg8l6+Ry/yn7J7qUBE9kSjX+0jy7gekfcyip26+TGcZGdxOr2R4tjKJJvIVJ/F6ipESksGkRIzBFZ+eaW9HD/vZ9ppnMShhMiec5b467ziLxXmBg0jEHl/nWmoyPSmAhHZMxUcbJX5BkTeUxU7rX98vU8OJ9gZnM4pHEOI7LkCy5jJZHuZ2WyrQqT0ZBApQXfD9mtfZrL1tY9xph3JYXQkRHZPxEaW+CJe9T81Lc3Ev0WkeUKC7nYIIrLH7BDvZssQaYaPQ8O4GR+b8dQT/lE7j6M5jO5kkN3jbGcBc3nVXmQBTYMQKU0ZRErUcMhfNZ8Fdl/FmVzIyRxCd9ojzRGxnbW+3F7353OvfLjhj7yIyO6wzvRERPZcT+vMMkSa6SJ2WvPU/TzMyf4RzqQvPelAiDRHIxtY6tNtdDiROnwAIqUrg0gJ+x04tYz78ji6+1l+Cadad9rRCkN2zaljm69iEqPzr9oWuI/7ENk9Dt3obYjInvLedENkNw2CplGv8iqt7QwfwBn0oT1tMGTXnAa2U+vzbIyNbrtwJv+KSKnLIJIO64MnakdV9Aw+6gM4g3ZUksWQv3KaaPBNvOxP+0vhWscckT3Vld6IyJ7rTVdE9lQdE3jeOvvpfinnWlcqKceQv4rJ0cgOXvfnggmZpU250D/Cw4iUPkMkJT7Bo1wXhFmvoAcXU8UJtCMgJCDtYiIidvjLPBM/x7qgKS4QD0dkz9yCwb9yq4WIyB7yiG/zC+d7iOyZpzCLMlZOFz+PgZxn7QkJCTDSLSYiYh0v+bOZF+ONcVOQr4gK9EckHTKIpMRjGMRfypFjB6t5JG5vx3OencvRZDHSK+dL7BV/KZjm632H1RMPRWTvNGXKOxMiInvMQjrnMtkCIntoEDj5J/PU8xhjwjZ+jJ/N+RxLOxwjnRxnIRNtvE2Lt1BX1tA5ruMcRNIkg0iqDGGnmB3s+MaaxuW87L+hD6dwFqdaBwJSxTcyk1eZwmK2sbXVjozDYET2XqYHPRCRvdMj04OViOyVaoipe6rO17GaKdzLQRzP2ZxKb4x0KTCTl+0lX+gbgy0TagdjiKSRIZJq10GWzvTwXnYkx9kJHEUbSpznbBHTfQoLWO3rfBO54YgUTw1+uv07gxCRvfGU32STvoNI8TwNYdyenvTiUE7w4+142mGUuh1MY7JN8+W+mjXkqhFJswwiqTYU8qz94lpm2sTwIPrQmw9wjB9tfSmn1NSzmsUsZB5LWBYvydcF/ltEis960QMR2TvdrDsiRTUQIjZP3HzOm2Oy+T70tt5+GEdxDH1pT6mpZzkLWMhKNrKUJb6KuBoRySAi3APODuYx70vQ0Q/ncD/c+nIoB3MQlRhJFrORVazylbaC5SxnydAV9/M5RPahnnRHRPZOF++GyD5wLjvlWcSiJ/F24SEc4YdzGH3pSx/KSbaYHSxnBSt8uS3xJSxutyHnFyMif5FBRP7GENjC61e/7mHYJTyGI+0DHEw3utCFTrQiSerYwAY2sMHns4BFzM/VtudO3vY5RPapLnRGRPaKd6U7IvtUNWxnts++hRPb5T/kx3IM3ehMZ7rQlTYkScQW1rGO1b7E3mJ+OD+7I44vRkTeyRCR93AtVIaH+NEczRHWh060pw2tqSSk5XEaqaOWOup8K8tsDnOZx/Ihjsh+cwc5gtvsBkRkL/nt8bfKuR6R/WMUOxmH+lF2FEfRly60ow2taU2GlqnAdrazne2+nvn2RjArXOgNlyAi7y6DiLyH4dDAPObBl6GSD8Yf5HAOtUPpTAXllFNOOWUYB0pEE43kyJGj1hez2Bb7knhJvNIaRiCy/0Vky+P2iMhes/bZ8iiHyH5SxU7OEpYw+gloxaH2QY6wvhxKd1pRTjnllFNGwIFTIEeOHDlyNLKeOTaXuZk5lZsL8UcRkfeXQUSaq4FpzMCwWio6hn2sL4fRl8P8EGtHSEBISEBIQEiAUWxORExMTExETOR51tkSFvoiX8SiYC0FHMdxHJEDIoKuQVtEZO+1LXRlJSIHRj1zmYdhWLZ14eD4MA6zvhzmh1gXQkJCAkICQgJCjH0hJiYiJiIiJvKcrfYlLGKxLbLF+fWZAo7j7pHHiEhzZBCRZrmbnZyInb7P2g2+2WYREhKQKbTPdKMr3enu3ehON+tGN1oRYBiGAYZhgPFnxtuMP3PAeZvzNgectzmO4zjuW20TG9nom9jIRtvka+NFts0KRMREHlkMQxA5sALoQltEZO+1DbqwEpED4FJ2cpydxmHbCjuYT+ChhQRk/WDrbt28u3e3bnSnm3ez9hiGYYBhGAYYf2a8zfgL523OnznggAOOA47jOFtY5+tYxzpba+viVfHioI6IiIiYaEdczqcRkd2TQUR223+BU+B/XAHYlrYrPbSMh2QIyRCStVZxB+9gHawDHWlPezp6B1pTQZllyVJG1svIWgVGjkYaydFIzhtoopFGGsmRo4EdbLJNtolNvoE8EREREREFIo8amh7wixiHSMvh0NXaIiJ7r613ReSAuwiciIj/8ThgW2wOGc8QkiEkQ0g26Bx1oIN1pAMd6EgH72BtvZwsWSsjSxlZyqkE3Btpoom8NZGnyZss5/VWT63XWR111Fmt1/nWYIOvpYkCEQUKRBQobGm6misYiYjsuQwislceYicnT56/cS07ZTwTZjxLxjJkyJIhJCDACDACjIAAiImJiYmJiXBiYmJiYiIi8t5k+TBPBL/mH41DpCUx6EJbRGTvtbUuiLQwH2enAgVy/J/nMKLFdRkyQdYznrUMGbKEBAQYRoAREBDwtpgYJ3a3mBgnJiIiIvLIIiIii+JCtikoOP34e19ERPZOBhHZB4azU4ECIinj0NXaIiJ7r613RSQBLmSniIgcItLCZRARESkagy60RUT2XlvrgoiISBFlEBERKRqHrtYOEdl77bwrIiIiRRQgIiJSJD+kFXSiDBHZe2V0asUPERERKZYAERGRIqlgbdYqEZGisMq12QpERESKJUBERKRIymjbmiwiUhzZtq3LEBERKZYAERGRIjGCNmQRkeLIBm0MERGRYskgIiJSJAZtPIuIFEfWWiMiIlI0GURERIrEoQPliEhxZKM2iIiIFE0GERGR4ulEOSJSHBlrjYiISNEEiIiIFE9byhCR4iinAyIiIkUTICIiUiRu3posIlIcFXTEEBERKZIAERGR4mlNFhEpjjLaIyIiUjQBIiIixdOGLCJSHFlaIyIiUjQZREREisSgFRlEpDgy1goREZGiySAiIlIkDhkLEJHiCDyDiIhI0QSIiIgUjyEixWOIiIgUTQYREZEiMSgjQESKI7AyREREiiaDiIhIkThkLUREiiP0LCIiIkUTICIiUjxlBIhIsRgiIiJFk0FERKRIDMoIEZHiCMggIiJSNBlERESKxKHMAkSkOAIrQ0REpGgCREREiidLiIgUx/9vD16g9K7rxA5/vr/3zSQBAknIcgkIKCiCgshqXT243SMSbI893Z62trur51jPrp5tdatkBrTWc7TuWheQ9ax1vYDr4mUFrfW6K+QicgkXQRJMQkgCAXLPzGQyycxkZt7L/1fbPe4pFSQk//ed933n8zwV+pAkqTRVJEkqSUCVQFI5KrkPSZJKU0WSJEmdKCIhSVJpqkiSVJ6MpLI0cw1JkkqTkCSpJJlco4mkchRRDyRJKksVSZJKElCjQJIkSR2oiiRJJclQiyaSytHMNSRJKk1CkqTy1CiQVI6COpIklaaKJEnlyWQklaMZNSRJKk0VSZJKEtAkI6kcRa4hSVJpEpIklWeaJpLKkWkiSVJpEpIklSSTCzKSypEpkCSpNFUkSSpPnQJJ5WjGNJIklaaKJEnlOcA0kspRz+NIklSahCRJ5ZmgjqRy1JlAkqTSVJEkqSSRGaeOpHLUY5yMJEklSUiSVJ4J6kgqR50JJEkqTUKSpJJk8jh1JJVjmgNIklSaKpIklWeUaSSVYyoOIElSaRKSJJUk4ADTSCpHnUNIklSaKpIklSTDIWpIKke9mECSpNIkJEkqSZP6OHUklaNeH28iSVJZEpIklWSSd04yjaRyTL9zchJJkspSRZKkknyME+BQZAJJxyrnQ1/nY0iSVJaEJEmlCWKYQ0g6dodiOJAkqTwJSZJKk8lDjCHp2I3loYwkSeWpIklSaQKGGEPSsRuLISRJKlEVSZJKk2E4xpB07MbyMJIklaiKJEmlCRhiDEnHbiyGkCSpRFUkSSpNhuEYQ9KxG8vDSJJUooQkSWUaYgxJx26MISRJKlFCkqTSzGH0IIeQdOwOjR6cgyRJ5UlIklSa97OQfJAGko5NIx9cyPuRJKk8CUmSShTEfg4g6dgciP2BJEllSkiSVK5BhpB0bIYYRJKkUiUkSSrXLvYi6djsZReSJJUqIUlSuQYZQtKxGWIQSZJKlZAkqVyDDCHp2AwxiCRJpUpIklSizJyhvA9JxyTvmzOUkSSpTAlJkko0QA0G8yEkHbV8iMEaA0iSVKaEJEllG2QHko7eDoaQJKlkCUmSyjYcO5F01GIHg0iSVLKEJEllG8n7kHT0dsRgIElSuRKSJJUqUwyzE0lHb3sMBpIklSshSVKpKuRBtmYkHZ1M3jH34ASSJJUrIUlSqYIqMRQ7kXRUYkcMT1EgSVK5EpIkleoqMnk4b0HS0dnIPvgokiSVKyFJUsmC2B+bkXR0NufhjCRJZasiSVLJAobzZiQdnc1pP5IklS4hSVLJCj4+yjZqSHrhpuKp8bEKkiSVLSFJUskG+K+wj6fJSHphMtvz8PG8H0mSypaQJKl0mXwwbyAj6YXJeWM+lJEkqXwJSZJKF8Sh2EiBpBemiI1xKJAkqXxVJEkqXYZD8SgFkl6YZt7IISRJaoGEJEml66MxEZuYICPpyOV8IB6dnuhDkqTyJSRJKl0whzzKwzSQdOQaPJxH5xJIklS+hCRJpfsTMnk8308dSUeuzsMchj9BkqTyJSRJaoGA8biXBpKOXCPuYzyQJKkVEpIktURlik0Mk5F0ZDLDbKpMIUlSSyQkSWqBfgryQR5hCklHZopH8sGCfiRJaoWEJEktkWE6r2ESSUdmMq9hOiNJUmtUkSSpJQJq3M8kko7M4bifGpIktUhCkqSWqNLXSI8xgqQjUbCv2DTVqCNJUmskJElqifcznZsTeS1jSHp+43ldTMzNH0KSpNZISJLUIkE04y4OIOn5jcZ9UQSSJLVKQpKk1mlyDyNIen7D6c7UTEiS1CoJSZJap2AbjzGFpF9vIm/gaQokSWqZKpIktUg/cH2De3gdL0bSr7MvHiga/UiS1DoJSZJaKXMPu5H06+1hDRlJklooIUlSaz2WnyYj6bk12cZjSJLUUglJklqonzzNI+xC0nPbwcNM9yNJUislJElqtTVsRdJze5z7kSSpxRKSJLVUEI/wOJKe2zY2IElSiyUkSWqpfvJ43sQgkp7dbtYz3o8kSa2VkCSpxYJ4kIeR9Owezg9lJElqtYQkSS1WZf5DPISkZ7eWtYEkSa2WkCSpxaqMT+X1bEXSr9qaNzCNJEktl5AkqcXeSwU2ch+SftV9bAz6kSSp1RKSJLVcom8rD+Qmkp6p4IE5WxOSJLVeQpKklruKWi1vio1IeqYNbGrUrkKSpNZLSJLUBkFsYxWSnmllbEOSpLZISJLUBgW1Xfk+DiPplzKj3NO3KyFJUjskJElqg6vpa8QWHqZA0j/I+f68ZapxFZIktUNCkqR22cMPKZD0D5rptrQ3IUlSeyQkSWqLTLGfezhIRhLkvL+4uz5SIElSeyQkSWqTKPIT+RamkQTTfJvdFSRJapeEJEltMUCmGMnfzIeRRD4ct6aRxACSJLVHQpKkNimYV4vH4l6mkGa7qbiXzbVaQpKkdklIktQmH6ROGuObHEKa7Q7xzRibwweQJKldEpIktU0Q03EH22gizWYNtsYdMR1IktQ+CUmS2mY5zaIYzCvYjzSbDeXvF4PNYjmSJLVPQpKk9mrwHZ5Gms2e5rs0kCSprapIktRGm6FY/Mhv3BvnshhpdjqQf8rWgYwkSW2VkCSpjW7iJk7J8T0eR5qttsZ3IyNJUpslJElqs6ByN2uZQpqNpvLakbsmkSSp3RKSJLVZUG/kH7AOaTZaxw+WNBtIktRuCUmS2uwqEvFjHqCBNNs08wPTq2t8DEmS2i0hSVLbzaeYzKt5CGm2eZDVx0+tQ5Kk9ktIktR2/4mAu/kJGWk2qbO6eXeNW5Akqf0SkiTNgJPJo9zDw0izyQP8ZN7oNUiSNBMSkiTNgHcR5Af5IQ2k2aIZf1d5qECSpJmRkCRpRsyDQe5gLdJssTbf2xy9CkmSZkZCkqQZ8T4SaWN8ixrSbFCLb6ZHA0mSZkpCkqQZch6Tw6zm5xRIva7g56yeHD4PSZJmSkKSpBkyzRyaT+QvMIXU66byF5pPzGEaSZJmSkKSpBnyNqB6MO5gDXWkXlZnTdxRPQhvQ5KkmZKQJGnGXE0Bu/ksE0i9bILPsrvgaiRJmjkJSZJm1IWTPJBXcBipV03wQ+5nEkmSZlQFSZJm0AouJWoMcQULkXpS3s6H44lcDCBJ0kxKSJI0o07g9Nqcn3I7B5F60QjfLx4+uT6BJEkzKyFJ0ox6D7upT/JltpCRes+WdHO1NsJHkSRpZlWRJGmGXQTNwQf2fY+lnIHUW3bxg7y+PyNJ0oxLSJI0w67kSvbm/FUeoInUS5rcz1fISJLUASpIktQBVnLlQSq8jNOQesd6buTefiRJ6gQJSZI6Qp2p7+TbOYzUKya5vfK/EpIkdYaEJEkdITN/ilv5EVKv+Pt8a30aSZI6RAVJkjrCaq6g2Bt9cREnI3W/rfkLjRUV+pEkqTMkJEnqEANEzivzrUi94JZYMScPIElSp0hIktQxCvr28SNWIXW72/j7+mAVSZI6RwVJkjrGKt5MHKDBbzOPQOpOmSGu5c5K/SokSeocFSRJ6iArWFaLA5zEpSSk7tTkS9zK/n4kSeokCUmSOkqVRTvii/lBGkjdqJEfzF9u7sxIktRZKkiS1FFu440wHqP8FgsIpO5SsDv+NO5PtQEkSeosFSRJ6jArWFZnO0u4kPlI3WU0f42bGB9AkqROk5AkqeM0aIw3/4K11JC6SS2vK25ojDeRJKnzJCRJ6jiZBwsGi0/yBFI3eZxPxOCGIiNJUuepIElSx1nNfyAK9nByvIwFSN1hF3/DLVE7jWuQJKnzBJIkdajr4EXx5/wr5iF1vun8P/MAe65GkqTOlJAkqXPtyJ/L9yF1gbyGL8Seq5EkqVMlJEnqUAM0mLyPm1mP1OnWc3P13oQkSZ2rgiRJHWs1/7xgV/TxCk5A6lx7uYlbiol+JEnqXBUkSepgK7nyMIOcyCVUkDrTJF/n5tg5gCRJnSwhSVJHW05jC1/lbgqkTlSwmr9pbFmOJEmdLSFJUkcLqvAzrmMLGanT5Lwl/0VeWyGQJKmzJSRJ6ni5ke/Ln8ijZKROkvNo/Fk8GAWSJHW8CpIkdbgVLCNNMxhVXk0fUueYiM/xDUZgAEmSOl0FSZI63kqWEYd5Il8QZ1FF6gxT+Sfx8dhN7keSpM5XQZKkLrCCZZmJ2JpfHadSQZp5dR6JD7KZZj+SJHWDhCRJXeFCvlvv+xl/mh8lI828TXx83s9W1S9CkqTuUEGSpK7wdf6YelE8lSbi5SxBmlmPxfXV7xSN83g7kiR1hwqSJHWJ1azmLU22RuI8FiHNnG18vvqVPPUBbkOSpG5RQZKkLrKSK+s8nhdwQRyHNDP2cXNxYzG6HEmSukkFSZK6ygquOMzuOJEL6ENqvwn+li/GjgEkSeouFSRJ6jIruXKYvSzhZVSQ2qvG9/krNvQjSVK3SUiS1HUapIfyZ/JdNJDaqZHvzv8jPdRAkqTuU0GSpK5zMfM4vLvvqXglp5GQ2qPJOj4yviblQe5DkqRuU0GSpK5zH4s5P9f3pq38JktISK3XZFP0p3tPqq/hr5EkqftUkCSpC23kUk5oFvt4Ii5iCQmptRps4kOVuyan3s07kCSpG1WQJKkr3c2lnF8f2Zl2xsWcTEJqnWbeHB9JqyYnT+KNSJLUnSpIktSl7uFctjYWb6scjAtYQiC1Rs6b45Ppu+dM13kvkiR1qwqSJHWtNfwe0Sw2V+qcxxKk1tjCX877aqU2xvuQJKl7BZIkdblPk+ZP/zH/Mc5FKt9WPp//iqkBJEnqbhUkSepyt7GsUdlYwHmxkEAq0+N8vn5jPnwNkiR1uwqSJHW923nTdH4kJrggFhJI5SjyNm4o/jqNX4MkSd2vgiRJPeAKinrxaAxycSwkkI5dkbfl/9b8Rj6cWIkkSd2vgiRJPWAlV/DK+vDj8RSvixNJSMemmbdzNT94xeEhrkGSpF5QQZKknrCKS4k6O9jMpbGIhHT0mnkr/ayKiWGuQZKk3lBBkqQesZJlpBo7YzOvYAkVpKNTZ318MO5IE5kBJEnqFRUkSeoZK3kXe+vztucnOZdTqSK9cNM8yEcrP56YfDHvQZKk3hFIktRjrocKy/jPXMbxSC/MYdbkG1hJcwBJknpLIElSD/oUvDm/i2WcjHTkRlgZX2LlciRJ6j0VJEnqQStYto0nmceZnIB0ZPbybT7LPf1IktSLKkiS1JNWcOWeeIzEuSxAen578peLz/DoAJIk9aYKkiT1qBUsO8CGPM7L40QC6bkVeTs3xI1p1wCSJPWqCpIk9axl9E2wge35kjiRCtKzq/NU/Je4NR8IViBJUq+qIElSz1rBFZxRG32S9VwYS6gi/appHomr4sfT41X6kSSpd1WQJKmH3c5rmKj37U4/5TTOZg7SM01yG1fHz46fDJYjSVIvCyRJ6nnXQ4WX8u/zu+N0pH+U98YX+QZbafYjSVKvqyBJUs9bwbLMfrbGDs7iNKT/K6+L/863eJKiH0mSel8gSdIscQOckN+c38M/ZT6a7Sbyndw4Z2We+ACSJM0OFSRJmiVu5621czfv306VUzgRzWa7+Q5/Obyqr9aPJEmzRSBJ0qxyPbyUd/A2zkez1WP5W3yNLQNIkjSbVJAkaVZZwZUj8QhDnMVJVAk0m2QmWc+n4ubYNYAkSbNLBUmSZpkVXD5ZPMq6OJ3FzCfQbFEwzJ3Fh5sr8sTVSJI021SQJGnWuYLp5vG7WVVMx0tYQCJQr8s0eJrPpY9Vth5uVFmFJEmzTQVJkmadVbyT9fnkyWJdepAzWEof6nUT3BlX893KwSfzBbwXSZJmn0CSpFnqU/zC3Di9+e54B2eiXvYkN6ev5N1Mw3IkSZqdAkmSZrXr4FR+J/6QywnUixr59vgS9zDUjyRJs1kFSZJmtZUsm8hPx0bGOJsFqNc8nW/ks9zPwQEkSZrdKkiSNMut5K21T+x84yZ2UXAOVdQrpvhhvpG/ZTP1ASRJmu0CSZL0C9eR58VF8W+5kpfTh7pdnce4jW+xnql+JEkSVJAkSb+wkn/SOG/36L3pAHNYwnwCdavMfu7gS83PnfnU9sZHkCRJ/0cgSZL+0bWQeEn8YfwzzuM41I0m2JpvzzexjeJqJEnSLwWSJOkZPsP8NHolf8QbWUgVdZMGI/wk37Ro9WTxPiRJ0v+riiRJeoZMsyhuq64t/nV+V1zAXBLqBgXT+TG+kL+d9jdzRpIkPVMgSZJ+xQ3kNHfO1Mvy7/P2OJUqgTpZpsEgX4uvz9k8Xq/mq5EkSf+/QJIkPatrydV0Eufz+/xeLCJQp8r5QNzC19nMQRr9SJKkZxNIkqTndB1UWRoX8Y78ljgJdaA8Gj/kG2xkF41+JEnScwkkSdKvcSsn8XRl7IL8Ov5NvIETUSc5lNdwa/z0xC0vah7i3yFJkp5bIEmSntd1MI9L+J24nNewEHWCUR7Kq7ljztpc+wCSJOn5BJIk6YhcR16QLuFyLuMSFhNopmRGWMc9rC7WxdgAkiTpSASSJOmIXUc+Ll4V/4LLeAULSajdCkZ4lDX5B/mRODyAJEk6UoEkSXpBroM+Lo4/4DJewklUULs0OchW7sq3sp7aAJIk6YUIJEnSC3YtJC5Jb+dyXsQJzEGtVmecHazKN7OBYgBJkvRCVZEkSUejYF3+eTo//y6/y8vpow+1So0am/P30nfyYxQUSJKkoxBIkqSj9Cmo5D5O5bf5Ay6jjwqBypRpUstr+FrclfelGs3lSJKkoxNIkqRjcD0k5uff4BXxNt7KIgKVJXMg/x23spGhmKToR5IkHb1AkiQdoz9jgoVz0xlxbn4L/5JzqKBj1eQpvhe3FU8Uu8am5/NhJEnSsQkkSVIproPgrHgZb+AtvIr56GiNs5bb46d5C9vJ/UiSpDIEkiSpRNfDqfkiLowLeA2vZB46cpkDbGAtW9iUNzA0gCRJKk8gSZJKdj0kTue1/CYXcyFnMwf9eplxNrMpb2AdDzeHq/QjSZLKFUiSpJa4ltwX58dlvD5eyos5mSp6NuPs4Mm8Me6Le2MoF8uRJEmtEEiSpJb5NL8wt/nafAWv42xO5iT60C9NsJ89bOCOvIanBpAkSa0USJKklrseFvJqLs+vj5ewgBPoI5i9MtOM5VHWxipWr3vy3PwxJElSq1WRJEntcJA7uTsfx0vjct7ERSygjzkkZpNMkzp1xvPP+RG3sZNpiuNzIEmSWi+QJEltci05UiX6mFssjTfEm/LrOT2CRCLobQUFmYm8NR6IB5oPxx6mohbNTD+SJKk9AkmS1Faf4Bcqc46L41mUz4/X8dp8cSwh6FU5T7ExfsaDsZ69eTIO1yYp4ENIkqR2CiRJ0oy4kdv5rXl5USzMi+Ml+RJeHa9iEUHvmMibWce6/GgMxWiMxkRuLkeSJM2MQJIkzahPE9Gc1zglTolTOIfzeSnn57OiQvca5wk2sDE/zh4GGWKUPIAkSZpZgSRJ6hDXw3H5lFjK0nxmvIhzODu/OBaS6A5FHo0neIptPMX2vIMdjA4gSZI6RSBJkjrMn1NUqielc4qzeXGcxeksYTGLWMwCOs8YBxhhhGH25O08EU81t02NV/OHkSRJnSWQJEkd60aq1f1ncBans5Sl+bRYxIks4ERO5ATmkmi/gmnGOcQhxjiUD8RedrObPWw/eVej8UdIkqROFUiSpK7wSXJKCytnchZncWZeyqmxkLnMYx7zmMc85pIoX8E0U0wxxRRTTDPKPnazk+3FjsrOOJCL5UiSpG4QSJKkLvQZqmnyhGJpLM1n5KUsjaUsZSF9JCpUqFChQoUKiUQQBEEQBEEAmUwmk8lkMpmCgiZNmjRp0qRJkzoH2Z13xe68h115d+w+6dB0fh+SJKn7VJEkSV0okwvG2MJWgiAIIubHwry4WMyidHJelBfH4rw4FjCfufTRRx999OW+OI4q0MyHo0aNGjVq1JjmMGN5JEbyCAfSfg4UI3mE0TRFJpPJZDK5yBlJktSN/jeXFzI51zvd0gAAACV0RVh0ZGF0ZTpjcmVhdGUAMjAyMi0xMi0wNVQwMjoxNjoxNSswMDowMHsYeiYAAAAldEVYdGRhdGU6bW9kaWZ5ADIwMjItMTItMDVUMDI6MTY6MTUrMDA6MDAKRcKaAAAAAElFTkSuQmCC;" vertex="1" parent="1">
          <mxGeometry x="116" y="220" width="38" height="38" as="geometry" />
        </mxCell>
      </root>
    </mxGraphModel>
  </diagram>
</mxfile>
